<?xml version="1.0" encoding="utf-8"?>
<!-- Generator: Adobe Illustrator 15.1.0, SVG Export Plug-In . SVG Version: 6.00 Build 0)  -->
<!DOCTYPE svg PUBLIC "-//W3C//DTD SVG 1.1//EN" "http://www.w3.org/Graphics/SVG/1.1/DTD/svg11.dtd">
<svg version="1.1" id="Layer_1" xmlns="http://www.w3.org/2000/svg" xmlns:xlink="http://www.w3.org/1999/xlink" x="0px" y="0px"
	 width="400px" height="300px" viewBox="0 0 400 300" enable-background="new 0 0 400 300" xml:space="preserve">
<g>
	<path d="M37.841,65.665h-0.896H17.046v1.883v0.09v25.464c-0.597-0.564-1.592-0.744-2.754-0.744c-1.326,0-2.918,0.664-4.18,1.691
		c-1.261,0.995-2.189,2.356-2.189,3.717c0,0.862,0.364,1.592,0.995,2.091c0.598,0.496,1.46,0.796,2.389,0.796
		c1.46,0,3.119-0.598,4.379-1.595c1.294-0.994,2.257-2.329,2.257-3.822V67.638h19.002v25.464c-0.598-0.564-1.593-0.744-2.754-0.744
		c-1.327,0-2.919,0.664-4.18,1.691c-1.261,0.995-2.19,2.356-2.19,3.717c0,0.862,0.365,1.592,0.996,2.091
		c0.598,0.496,1.46,0.796,2.389,0.796c1.46,0,3.118-0.598,4.379-1.595c1.294-0.994,2.257-2.311,2.257-3.804V67.638h19.002v25.446
		c-0.598-0.563-1.593-0.727-2.754-0.727c-1.327,0-2.919,0.664-4.18,1.691c-1.261,0.995-2.189,2.356-2.189,3.717
		c0,0.862,0.364,1.592,0.995,2.091c0.597,0.496,1.459,0.796,2.389,0.796c1.459,0,3.118-0.598,4.379-1.595
		c1.294-0.994,2.257-2.311,2.257-3.804V67.638v-0.09v-1.883H37.841z"/>
	<path d="M38.425,11.854v0.017l-20.706,4.286v1.794v0.18v25.374c-0.598-0.564-1.57-0.682-2.731-0.682
		c-1.327,0-2.919,0.664-4.18,1.692c-1.261,0.996-2.189,2.355-2.189,3.716c0,0.862,0.364,1.592,0.995,2.09
		c0.597,0.497,1.46,0.796,2.39,0.796c1.459,0,3.117-0.597,4.378-1.592c1.294-0.995,2.233-2.375,2.233-3.868V17.95l19.002-4.034
		v25.472c-0.597-0.563-1.569-0.726-2.73-0.726c-1.327,0-2.919,0.663-4.18,1.692c-1.261,0.995-2.189,2.355-2.189,3.716
		c0,0.861,0.364,1.592,0.995,2.089c0.597,0.498,1.46,0.797,2.388,0.797c1.459,0,3.119-0.597,4.379-1.592
		c1.295-0.996,2.236-2.331,2.236-3.823V13.735v-0.017L57.426,9.89v25.365c-0.598-0.564-1.525-0.753-2.687-0.753
		c-1.327,0-2.92,0.663-4.18,1.691c-1.261,0.996-2.19,2.356-2.19,3.716c0,0.863,0.364,1.593,0.996,2.091
		c0.596,0.497,1.459,0.796,2.387,0.796c1.461,0,3.12-0.598,4.381-1.593c1.293-0.995,2.279-2.394,2.279-3.887V9.701v-0.09V7.729
		L38.425,11.854z"/>
	<path d="M95.854,65.665h-0.897H75.059v1.883v0.09v1.076v1.973v22.415c-0.598-0.564-1.593-0.744-2.754-0.744
		c-1.327,0-2.919,0.664-4.181,1.691c-1.261,0.995-2.189,2.356-2.189,3.717c0,0.862,0.365,1.592,0.995,2.091
		c0.598,0.496,1.46,0.796,2.39,0.796c1.46,0,3.118-0.598,4.378-1.595c1.295-0.994,2.258-2.329,2.258-3.822V70.687h18.912h0.089
		v22.415c-0.598-0.564-1.592-0.744-2.753-0.744c-1.327,0-2.92,0.664-4.18,1.691c-1.261,0.995-2.189,2.356-2.189,3.717
		c0,0.862,0.364,1.592,0.995,2.091c0.596,0.496,1.459,0.796,2.387,0.796c1.461,0,3.119-0.598,4.38-1.595
		c1.295-0.994,2.258-2.311,2.258-3.804V70.687h19.001v22.397c-0.597-0.563-1.593-0.727-2.754-0.727c-1.326,0-2.919,0.664-4.18,1.691
		c-1.261,0.995-2.189,2.356-2.189,3.717c0,0.862,0.365,1.592,0.995,2.091c0.597,0.496,1.459,0.796,2.389,0.796
		c1.46,0,3.119-0.598,4.38-1.595c1.292-0.994,2.257-2.311,2.257-3.804V67.638v-0.09v-1.883H95.854z M114.854,68.714H95.854h-0.986
		H75.955v-1.076h19.001h0.897h19.001V68.714z"/>
	<path d="M96.795,11.854v0.017l-20.706,4.286v1.794v0.18v1.12v1.973v22.281c-0.597-0.564-1.569-0.682-2.73-0.682
		c-1.327,0-2.92,0.664-4.18,1.692c-1.261,0.996-2.189,2.355-2.189,3.716c0,0.862,0.364,1.592,0.995,2.09
		c0.597,0.497,1.459,0.796,2.388,0.796c1.46,0,3.119-0.597,4.379-1.592c1.295-0.995,2.235-2.375,2.235-3.868v-24.61l19.001-3.95
		v22.292c-0.597-0.563-1.569-0.726-2.73-0.726c-1.327,0-2.919,0.663-4.18,1.692c-1.262,0.995-2.19,2.355-2.19,3.716
		c0,0.861,0.365,1.592,0.996,2.089c0.597,0.498,1.459,0.797,2.388,0.797c1.46,0,3.119-0.597,4.38-1.592
		c1.293-0.996,2.234-2.331,2.234-3.823V16.919v-0.042l18.912-3.934v22.312c-0.599-0.564-1.525-0.753-2.687-0.753
		c-1.328,0-2.92,0.663-4.18,1.691c-1.262,0.996-2.191,2.356-2.191,3.716c0,0.863,0.366,1.593,0.996,2.091
		c0.597,0.497,1.46,0.796,2.389,0.796c1.46,0,3.119-0.598,4.379-1.593c1.294-0.995,2.279-2.394,2.279-3.887V9.701v-0.09V7.729
		L96.795,11.854z M76.986,17.949l19.001-4.033v1.165l-0.045,0.009v0.041l-18.956,3.942V17.949z M115.797,10.972l-18.912,3.933
		v-1.169v-0.017l18.912-3.829V10.972z"/>
	<path d="M153.382,65.665h-0.896h-19.898v1.883v0.09v1.076v1.973v1.076v1.971v19.368c-0.598-0.564-1.593-0.744-2.754-0.744
		c-1.326,0-2.92,0.664-4.18,1.691c-1.261,0.995-2.189,2.356-2.189,3.717c0,0.862,0.364,1.592,0.995,2.091
		c0.598,0.496,1.459,0.796,2.389,0.796c1.459,0,3.119-0.598,4.379-1.595c1.294-0.994,2.258-2.329,2.258-3.822V73.733h18.911h0.09
		v19.368c-0.598-0.564-1.593-0.744-2.754-0.744c-1.327,0-2.92,0.664-4.181,1.691c-1.261,0.995-2.189,2.356-2.189,3.717
		c0,0.862,0.366,1.592,0.996,2.091c0.598,0.496,1.46,0.796,2.388,0.796c1.462,0,3.119-0.598,4.381-1.595
		c1.293-0.994,2.256-2.311,2.256-3.804V73.733h19.001v19.351c-0.597-0.563-1.591-0.727-2.753-0.727c-1.326,0-2.92,0.664-4.181,1.691
		c-1.261,0.995-2.188,2.356-2.188,3.717c0,0.862,0.364,1.592,0.995,2.091c0.597,0.496,1.46,0.796,2.389,0.796
		c1.459,0,3.118-0.598,4.379-1.595c1.294-0.994,2.257-2.311,2.257-3.804V67.638v-0.09v-1.883H153.382z M153.382,71.763h-0.986
		h-18.911v-1.076h18.911h0.986h19.001v1.076H153.382z M172.383,68.714h-19.001h-0.986h-18.911v-1.076h19.001h0.896h19.001V68.714z"
		/>
	<path d="M153.875,11.854v0.017l-20.705,4.286v1.794v0.18v1.12v1.973v1.121v1.973v19.188c-0.598-0.564-1.57-0.682-2.731-0.682
		c-1.327,0-2.92,0.664-4.18,1.692c-1.261,0.996-2.19,2.355-2.19,3.716c0,0.862,0.366,1.592,0.996,2.09
		c0.597,0.497,1.459,0.796,2.389,0.796c1.459,0,3.118-0.597,4.378-1.592c1.295-0.995,2.235-2.375,2.235-3.868V24.14l19.002-3.951
		v19.199c-0.598-0.563-1.57-0.726-2.731-0.726c-1.327,0-2.92,0.663-4.18,1.692c-1.262,0.995-2.19,2.355-2.19,3.716
		c0,0.861,0.365,1.592,0.995,2.089c0.598,0.498,1.46,0.797,2.39,0.797c1.46,0,3.119-0.597,4.378-1.592
		c1.294-0.996,2.234-2.331,2.234-3.823V20.013v-0.042l18.912-3.935v19.219c-0.596-0.564-1.524-0.753-2.687-0.753
		c-1.326,0-2.919,0.663-4.18,1.691c-1.261,0.996-2.189,2.356-2.189,3.716c0,0.863,0.365,1.593,0.995,2.091
		c0.598,0.497,1.461,0.796,2.389,0.796c1.46,0,3.119-0.598,4.38-1.593c1.293-0.995,2.279-2.394,2.279-3.887V9.701v-0.09V7.729
		L153.875,11.854z M134.066,17.95l19.002-4.035v1.166l-0.045,0.009v0.041l-18.957,3.943V17.95z M134.066,21.046l19.002-3.951v1.079
		l-0.045,0.009v0.043l-18.957,3.941V21.046z M153.964,17.998v-1.079v-0.042l18.912-3.934v1.122L153.964,17.998z M172.876,10.972
		l-18.912,3.933v-1.169v-0.017l18.912-3.829V10.972z"/>
	<path d="M211.942,11.854v0.017l-20.706,4.286v1.794v0.18v1.12v1.973v1.121v1.973v1.156v1.973v16.059
		c-0.598-0.564-1.569-0.682-2.731-0.682c-1.327,0-2.919,0.664-4.18,1.692c-1.261,0.996-2.19,2.355-2.19,3.716
		c0,0.862,0.366,1.592,0.996,2.09c0.597,0.497,1.46,0.796,2.389,0.796c1.46,0,3.118-0.597,4.379-1.592
		c1.294-0.995,2.234-2.375,2.234-3.868V27.269l19.001-3.95v16.069c-0.595-0.563-1.569-0.726-2.73-0.726
		c-1.325,0-2.919,0.663-4.179,1.692c-1.262,0.995-2.191,2.355-2.191,3.716c0,0.861,0.365,1.592,0.995,2.089
		c0.6,0.498,1.46,0.797,2.391,0.797c1.459,0,3.116-0.597,4.378-1.592c1.294-0.996,2.234-2.331,2.234-3.823V23.142V23.1l18.911-3.933
		v16.088c-0.597-0.564-1.524-0.753-2.686-0.753c-1.326,0-2.919,0.663-4.18,1.691c-1.262,0.996-2.189,2.356-2.189,3.716
		c0,0.863,0.364,1.593,0.994,2.091c0.599,0.497,1.459,0.796,2.39,0.796c1.46,0,3.119-0.598,4.38-1.593
		c1.291-0.995,2.277-2.394,2.277-3.887V9.701v-0.09V7.729L211.942,11.854z M192.133,17.949l19.001-4.033v1.165l-0.044,0.009v0.041
		l-18.957,3.942V17.949z M212.031,16.877l18.911-3.934v1.122l-18.911,3.933v-1.079V16.877z M192.133,21.046l19.001-3.95v1.079
		l-0.044,0.008v0.043l-18.957,3.941V21.046z M192.133,24.14l19.001-3.951v1.116l-0.044,0.009v0.04l-18.957,3.943V24.14z
		 M212.031,21.128v-1.115v-0.042l18.911-3.935v1.158L212.031,21.128z M230.942,10.972l-18.911,3.933v-1.169v-0.017l18.911-3.829
		V10.972z"/>
	<path d="M211.987,65.665h-0.897h-19.897v1.883v0.09v1.076v1.973v1.076v1.971v1.077v1.974v16.317
		c-0.599-0.564-1.594-0.744-2.756-0.744c-1.326,0-2.918,0.664-4.178,1.691c-1.263,0.995-2.19,2.356-2.19,3.717
		c0,0.862,0.364,1.592,0.995,2.091c0.597,0.496,1.46,0.796,2.389,0.796c1.46,0,3.118-0.598,4.378-1.595
		c1.294-0.994,2.258-2.329,2.258-3.822V76.784H211h0.09v16.317c-0.597-0.564-1.593-0.744-2.755-0.744
		c-1.326,0-2.919,0.664-4.179,1.691c-1.262,0.995-2.189,2.356-2.189,3.717c0,0.862,0.364,1.592,0.994,2.091
		c0.598,0.496,1.461,0.796,2.39,0.796c1.459,0,3.118-0.598,4.38-1.595c1.293-0.994,2.257-2.311,2.257-3.804v-18.47h19.002v16.3
		c-0.599-0.563-1.594-0.727-2.755-0.727c-1.327,0-2.92,0.664-4.181,1.691c-1.26,0.995-2.189,2.356-2.189,3.717
		c0,0.862,0.365,1.592,0.994,2.091c0.6,0.496,1.463,0.796,2.392,0.796c1.458,0,3.116-0.598,4.378-1.595
		c1.294-0.994,2.257-2.311,2.257-3.804V67.638v-0.09v-1.883H211.987z M192.088,70.687H211h0.987h19.002v1.076h-19.002H211h-18.912
		V70.687z M211.987,74.811h-0.897H211h-18.912v-1.077H211h0.987h19.002v1.077H211.987z M230.989,68.714h-19.002H211h-18.912v-1.076
		h19.002h0.897h19.002V68.714z"/>
	<g>
		<path d="M252.289,94.993c0,1.561-0.981,2.955-2.335,3.995c-1.316,1.041-3.051,1.664-4.576,1.664c-0.97,0-1.87-0.313-2.496-0.831
			c-0.656-0.521-1.038-1.283-1.038-2.184c0-1.422,0.97-2.842,2.287-3.883c1.317-1.076,2.981-1.769,4.368-1.769
			c1.214,0,2.231,0.169,2.854,0.759V66.043h0.937V94.993z"/>
		<rect x="251.353" y="64.075" width="21.03" height="2.063"/>
		<path d="M272.383,94.993c0,1.561-0.98,2.955-2.333,3.995c-1.315,1.041-3.051,1.664-4.574,1.664c-0.973,0-1.872-0.313-2.496-0.831
			c-0.659-0.521-1.041-1.283-1.041-2.184c0-1.422,0.97-2.842,2.288-3.883c1.317-1.076,2.98-1.769,4.368-1.769
			c1.213,0,2.23,0.169,2.854,0.759V66.043h0.935V94.993z"/>
	</g>
	<g>
		<path d="M256.289,43.051c0,1.56-0.983,2.954-2.335,3.994c-1.316,1.041-3.051,1.665-4.577,1.665c-0.97,0-1.871-0.313-2.494-0.833
			c-0.658-0.519-1.04-1.282-1.04-2.183c0-1.422,0.97-2.842,2.288-3.884c1.316-1.074,2.98-1.768,4.366-1.768
			c1.215,0,2.229,0.169,2.855,0.76V14.101h0.937V43.051z"/>
		<polygon points="255.353,12.133 255.353,14.193 276.385,9.79 276.385,7.729 		"/>
		<path d="M276.385,38.703c0,1.561-0.984,2.954-2.335,3.995c-1.318,1.04-3.052,1.664-4.577,1.664c-0.97,0-1.872-0.313-2.494-0.832
			c-0.659-0.519-1.041-1.282-1.041-2.184c0-1.422,0.971-2.842,2.289-3.882c1.315-1.074,2.98-1.769,4.367-1.769
			c1.213,0,2.229,0.169,2.854,0.759V9.753h0.937V38.703z"/>
	</g>
	<path d="M289.251,64.075v1.967v0.096v1.124v2.06v23.424c-0.623-0.59-1.641-0.76-2.854-0.76c-1.387,0-3.05,0.693-4.368,1.768
		c-1.316,1.041-2.286,2.463-2.286,3.883c0,0.902,0.38,1.664,1.038,2.184c0.625,0.521,1.526,0.833,2.496,0.833
		c1.525,0,3.26-0.624,4.577-1.664c1.352-1.04,2.333-2.437,2.333-3.994V69.321h19.16v23.424c-0.625-0.59-1.641-0.76-2.855-0.76
		c-1.386,0-3.05,0.693-4.367,1.768c-1.316,1.041-2.288,2.463-2.288,3.883c0,0.902,0.384,1.664,1.042,2.184
		c0.621,0.521,1.524,0.833,2.494,0.833c1.525,0,3.259-0.624,4.577-1.664c1.351-1.04,2.334-2.437,2.334-3.994V69.321v-2.06v-1.124
		v-0.096v-1.967H289.251z M309.347,67.262h-19.16v-1.124h19.16V67.262z"/>
	<path d="M294.749,12.225V14.1v0.188v1.123v2.062v23.329c-0.625-0.589-1.641-0.758-2.855-0.758c-1.386,0-3.05,0.692-4.366,1.767
		c-1.317,1.041-2.288,2.462-2.288,3.884c0,0.9,0.38,1.663,1.038,2.184c0.626,0.521,1.526,0.831,2.497,0.831
		c1.524,0,3.26-0.623,4.576-1.664c1.353-1.039,2.334-2.436,2.334-3.996V17.287l19.16-4.129v23.296
		c-0.624-0.589-1.642-0.759-2.854-0.759c-1.387,0-3.052,0.692-4.367,1.768c-1.317,1.04-2.288,2.461-2.288,3.882
		c0,0.902,0.381,1.665,1.039,2.185c0.625,0.52,1.524,0.831,2.496,0.831c1.524,0,3.26-0.623,4.576-1.663
		c1.352-1.042,2.334-2.436,2.334-3.997V12.975v-2.062V9.789V9.751V7.729L294.749,12.225z M314.845,11.097l-19.16,4.13v-1.123
		l19.16-4.13V11.097z"/>
	<path d="M326.585,64.075v1.969v0.093v1.124v2.062v1.124v2.063v20.237c-0.623-0.59-1.64-0.761-2.852-0.761
		c-1.389,0-3.052,0.695-4.371,1.77c-1.315,1.04-2.285,2.461-2.285,3.881c0,0.902,0.383,1.664,1.039,2.185
		c0.624,0.521,1.526,0.832,2.496,0.832c1.526,0,3.259-0.624,4.576-1.663c1.353-1.041,2.334-2.435,2.334-3.996V72.509h19.158v20.237
		c-0.623-0.59-1.64-0.761-2.853-0.761c-1.388,0-3.052,0.695-4.369,1.77c-1.317,1.04-2.288,2.461-2.288,3.881
		c0,0.902,0.384,1.664,1.039,2.185c0.626,0.521,1.527,0.832,2.498,0.832c1.525,0,3.258-0.624,4.576-1.663
		c1.351-1.041,2.334-2.435,2.334-3.996V72.509v-2.063v-1.124v-2.062v-1.124v-0.093v-1.969H326.585z M346.681,70.446h-19.158v-1.124
		h19.158V70.446z M346.681,67.261h-19.158v-1.124h19.158V67.261z"/>
	<path d="M329.553,12.225V14.1v0.188v1.123v2.062v1.125v2.061v20.144c-0.622-0.589-1.638-0.758-2.853-0.758
		c-1.386,0-3.052,0.692-4.367,1.767c-1.316,1.041-2.289,2.462-2.289,3.884c0,0.9,0.383,1.663,1.04,2.184
		c0.625,0.521,1.526,0.831,2.495,0.831c1.527,0,3.26-0.623,4.58-1.664c1.35-1.039,2.33-2.436,2.33-3.996V20.472l19.16-4.128v20.11
		c-0.625-0.589-1.639-0.759-2.854-0.759c-1.388,0-3.053,0.692-4.367,1.768c-1.316,1.04-2.287,2.461-2.287,3.882
		c0,0.902,0.381,1.665,1.037,2.185c0.627,0.52,1.526,0.831,2.498,0.831c1.524,0,3.258-0.623,4.576-1.663
		c1.352-1.042,2.333-2.436,2.333-3.997V16.16V14.1v-1.125v-2.062V9.789V9.751V7.729L329.553,12.225z M349.649,14.282l-19.16,4.13
		v-1.125l19.16-4.128V14.282z M349.649,11.097l-19.16,4.13v-1.123l19.16-4.13V11.097z"/>
	<path d="M363.922,64.075v1.968v0.093v1.125v2.063v1.123v2.061v1.125v2.061v17.053c-0.625-0.59-1.64-0.759-2.854-0.759
		c-1.388,0-3.051,0.692-4.367,1.769c-1.318,1.037-2.289,2.459-2.289,3.881c0,0.9,0.382,1.665,1.039,2.185
		c0.625,0.519,1.525,0.832,2.498,0.832c1.524,0,3.257-0.625,4.574-1.664c1.352-1.04,2.336-2.436,2.336-3.995V75.692h19.157v17.053
		c-0.624-0.59-1.641-0.759-2.853-0.759c-1.386,0-3.051,0.692-4.369,1.769c-1.316,1.037-2.288,2.459-2.288,3.881
		c0,0.9,0.383,1.665,1.04,2.185c0.624,0.519,1.525,0.832,2.497,0.832c1.524,0,3.258-0.625,4.575-1.664
		c1.352-1.04,2.335-2.436,2.335-3.995V75.692v-2.061v-1.125v-2.061v-1.123v-2.063v-1.125v-0.093v-1.968H363.922z M384.017,73.632
		h-19.157v-1.125h19.157V73.632z M384.017,70.446h-19.157v-1.123h19.157V70.446z M384.017,67.261h-19.157v-1.125h19.157V67.261z"/>
	<path d="M366.891,12.225V14.1v0.188v1.123v2.062v1.125v2.061v1.125v2.061v16.958c-0.624-0.589-1.641-0.758-2.854-0.758
		c-1.387,0-3.052,0.692-4.368,1.767c-1.316,1.041-2.287,2.462-2.287,3.884c0,0.9,0.38,1.663,1.039,2.184
		c0.625,0.521,1.526,0.831,2.497,0.831c1.523,0,3.258-0.623,4.575-1.664c1.353-1.039,2.335-2.436,2.335-3.996V23.659l19.158-4.13
		v16.925c-0.622-0.589-1.641-0.759-2.854-0.759c-1.387,0-3.051,0.692-4.368,1.768c-1.317,1.04-2.287,2.461-2.287,3.882
		c0,0.902,0.38,1.665,1.039,2.185c0.624,0.52,1.525,0.831,2.497,0.831c1.522,0,3.257-0.623,4.574-1.663
		c1.352-1.042,2.336-2.436,2.336-3.997V19.347v-2.062V16.16V14.1v-1.125v-2.062V9.789V9.751V7.729L366.891,12.225z M386.985,17.47
		l-19.158,4.127v-1.125l19.158-4.128V17.47z M386.985,14.282l-19.158,4.13v-1.125l19.158-4.128V14.282z M386.985,11.097
		l-19.158,4.13v-1.123l19.158-4.13V11.097z"/>
	<g>
		<path d="M324.922,165.475c0,1.982-1.171,3.832-2.825,5.117c-1.611,1.293-3.73,1.959-5.59,1.768
			c-1.184-0.119-2.279-0.648-3.036-1.391c-0.8-0.748-1.263-1.744-1.263-2.842c0-1.73,1.176-3.324,2.779-4.504
			c1.603-1.217,3.633-2.01,5.33-1.971c1.482,0.037,2.695,0.211,3.458,0.963c0-11.334,0-22.667,0-34c0.382-0.001,0.764,0,1.146,0.005
			c0.085,1.594,0.313,3.813,2.137,5.58c2.077,1.958,3.979,3.947,5.288,5.703c1.732,2.307,2.95,5.081,2.95,7.831
			c0,1.4-0.21,2.84-0.589,4.207c0.715,1.443,1.094,2.951,1.094,4.684c0,2.955-0.851,5.457-2.074,7.619
			c-0.228,0.02-0.455,0.037-0.684,0.055c0.886-1.453,1.916-4.752,1.832-6.781c-0.084-2.256-0.251-3.559-1.684-5.348
			c-1.644-2.041-5.894-4.289-8.271-6.018C324.922,152.594,324.922,159.033,324.922,165.475z M334.204,148.141
			c-0.086-2.264-1.182-4.055-2.616-5.936c-1.646-2.147-4.291-4.047-6.666-5.475c0.085,3.177,2.052,6.449,3.872,8.19
			c2.075,1.919,3.09,2.935,4.313,4.495c0.38,0.475,0.669,1.029,0.963,1.5C334.155,150.018,334.244,148.869,334.204,148.141z"/>
	</g>
	<g>
		<path d="M351.455,165.533c0,1.973-1.172,3.791-2.825,5.07c-1.611,1.283-3.73,1.947-5.589,1.756
			c-1.185-0.119-2.279-0.646-3.037-1.389c-0.801-0.748-1.263-1.746-1.263-2.844c0-1.732,1.177-3.316,2.779-4.484
			c1.603-1.203,3.635-1.982,5.328-1.936c1.483,0.039,2.697,0.234,3.461,0.982c0-13.408,0-26.817,0-40.226
			c0.382-0.001,0.764,0.001,1.146,0.006c0.085,1.584,0.313,3.813,2.136,5.573c2.078,1.95,3.98,3.938,5.289,5.699
			c1.731,2.313,2.951,5.103,2.951,7.853c0,1.4-0.211,2.75-0.59,4.065c0.379,1.07,0.59,2.213,0.59,3.316s-0.127,2.207-0.38,3.193
			c0.716,1.338,0.883,2.594,0.883,4.455c0,2.955-0.851,5.486-2.073,7.652c-0.228,0.021-0.455,0.041-0.684,0.061
			c0.886-1.455,1.916-4.779,1.832-6.811c-0.083-2.252-0.167-3.469-1.601-5.23c-0.801-1.01-2.194-2.113-3.888-3.238
			c-1.65-1.172-3.277-2.383-4.466-3.219C351.455,152.404,351.455,158.969,351.455,165.533z M360.735,141.983
			c-0.084-2.263-1.179-4.065-2.615-5.952c-1.647-2.154-4.29-4.075-6.665-5.495c0.085,1.144,0.313,3.387,2.136,5.127
			c2.078,1.925,3.98,3.86,5.289,5.578c0.719,0.926,1.374,1.913,1.837,3.031C360.759,143.462,360.778,142.625,360.735,141.983z
			 M360.735,149.412c-0.084-2.258-1.179-4.016-2.615-5.857c-1.647-2.102-4.29-3.893-6.665-5.307
			c0.085,1.887,1.288,4.682,2.855,6.092c1.95,1.764,4.277,4.078,5.919,5.977c0.211,0.254,0.361,0.512,0.487,0.766
			C360.723,150.525,360.73,149.969,360.735,149.412z"/>
	</g>
	<g>
		<path d="M391.194,152.182c0.252-0.986,0.378-2.094,0.378-3.195c0-1.104-0.209-2.242-0.588-3.303
			c0.379-1.322,0.588-2.676,0.588-4.075c0-1.133-0.206-2.259-0.566-3.355c0.364-1.284,0.566-2.604,0.566-3.977
			c0-2.75-1.218-5.555-2.948-7.872c-1.31-1.766-3.213-3.754-5.289-5.697c-1.824-1.755-2.053-3.973-2.138-5.55
			c-0.343-0.005-0.687-0.006-1.031-0.006c0,15.862,0,31.726,0,47.589c-0.763-0.744-2.091-0.941-3.574-0.986
			c-1.695-0.049-3.726,0.715-5.328,1.906c-1.604,1.154-2.779,2.734-2.779,4.467c0,1.096,0.462,2.096,1.262,2.844
			c0.759,0.742,1.854,1.27,3.037,1.389c1.86,0.191,3.979-0.469,5.588-1.746c1.656-1.273,2.826-3.08,2.826-5.043
			c0-6.533,0-13.066,0-19.6c1.188,0.828,2.816,2.027,4.467,3.178c1.692,1.107,3.087,2.188,3.888,3.186
			c1.433,1.74,1.517,2.955,1.6,5.205c0.086,2.027-0.967,5.354-1.854,6.809c0.226-0.02,0.45-0.041,0.675-0.063
			c1.223-2.17,2.104-4.705,2.104-7.66C392.077,154.764,391.91,153.51,391.194,152.182z M381.197,123.304
			c2.368,1.41,5.026,3.228,6.665,5.378c1.438,1.892,2.532,3.706,2.616,5.967c0.04,0.611,0.005,1.41-0.036,2.184
			c-0.001,0.039-0.003,0.078-0.006,0.118c-0.464-1.125-1.096-2.135-1.813-3.065c-1.31-1.727-3.213-3.554-5.289-5.475
			c-1.824-1.736-2.078-4.033-2.163-5.172C381.183,123.245,381.187,123.297,381.197,123.304z M390.479,151.061
			c-0.126-0.252-0.295-0.459-0.506-0.709c-1.644-1.871-3.969-4.145-5.919-5.889c-1.567-1.393-2.771-4.17-2.856-6.049
			c2.376,1.404,5.019,3.154,6.665,5.224c1.438,1.815,2.532,3.548,2.616,5.802C390.479,149.98,390.479,150.521,390.479,151.061z
			 M390.437,144.323c-0.464-1.106-1.096-2.095-1.813-3.006c-1.31-1.688-3.213-3.587-5.289-5.486
			c-1.824-1.721-2.053-3.953-2.138-5.091c2.376,1.41,5.019,3.281,6.665,5.396c1.438,1.853,2.532,3.627,2.616,5.885
			C390.521,142.66,390.479,143.514,390.437,144.323z"/>
	</g>
	<g>
		<path d="M254.524,129.132c0.379,0.049,0.758,0.104,1.137,0.163c0,11.923,0,23.848,0,35.77c-0.076,3.672-4.707,7.539-8.232,7.318
			c-1.061-0.045-2.13-0.281-2.973-0.934c-1.35-1.061-1.636-2.545-1.594-4.098c0.117-3.682,4.58-6.385,8.233-6.643
			c1.058-0.068,2.12,0.014,3.429,0.781C254.524,150.705,254.524,139.917,254.524,129.132z M244.228,169.463
			c0,0.594,0.294,0.793,1.012,0.988c1.227,0.213,3.516-0.68,5.424-2.262c1.952-1.527,3.76-3.766,3.633-5.07
			c-0.042-0.465-0.459-0.719-0.881-0.738c-1.816-0.227-5.128,2.139-6.44,3.145C245.364,166.807,244.143,168.217,244.228,169.463z"/>
	</g>
	<g>
		<path d="M263.89,200.633c0-1.936,1.174-3.85,2.781-5.229c1.648-1.428,3.76-2.291,5.623-2.184c1.229,0.063,2.258,0.582,3.016,1.314
			c0.801,0.738,1.207,1.686,1.207,2.783c0,1.732-1.121,3.371-2.728,4.578c-1.563,1.244-3.653,2.125-5.392,2.166
			c-1.483,0.033-2.613-0.104-3.371-0.775c0,10.939,0,21.881,0,32.822c-0.379-0.051-0.758-0.105-1.137-0.164
			C263.89,224.174,263.89,212.404,263.89,200.633z"/>
	</g>
	<g>
		<path d="M299.584,196.965c1.097,0.117,1.935,1.076,1.935,2.174c0,1.096-0.838,1.963-1.935,1.879
			c-1.097-0.088-1.94-1.113-1.94-2.238S298.487,196.85,299.584,196.965z"/>
		<path d="M283.921,236.164c0-11.771,0-23.543,0-35.313c0-1.939,1.131-3.84,2.736-5.25c1.645-1.457,3.723-2.381,5.588-2.391
			c1.23-0.01,2.291,0.416,3.053,1.104c0.806,0.689,1.271,1.676,1.271,2.803c0,1.777-1.186,3.494-2.797,4.789
			c-1.568,1.332-3.606,2.236-5.342,2.301c-1.48,0.059-2.73-0.027-3.488-0.695c0,7.137,0,14.271,0,21.408
			c2.358-0.004,5.055-1.672,6.666-3.811c1.443-1.826,2.291-4.322,2.375-6.633c0.17-4.145-1.895-7.99-2.869-10.066
			c0.229-0.121,0.459-0.24,0.688-0.361c1.442,2.477,3.54,7.039,3.539,11.561c0,2.826-1.229,5.635-2.969,7.861
			c-1.314,1.701-3.223,3.551-4.913,5.518c-2.197,2.57-2.22,5.225-2.517,7.326C284.603,236.268,284.261,236.217,283.921,236.164z"/>
	</g>
	<g>
		<path d="M313.389,220.195c2.358-1.564,6.635-3.754,8.283-5.818c1.439-1.805,1.606-3.117,1.69-5.381
			c0.085-2.043-0.996-5.371-1.506-5.955c0.191-0.148,0.382-0.293,0.572-0.438c1.016,1.732,1.861,4.305,1.861,7.275
			c0,1.572-0.293,2.965-0.928,4.289c0.296,0.854,0.465,1.748,0.465,2.982c-0.001,2.762-0.756,6.684-3.213,9.879
			c-1.313,1.717-3.012,3.223-5.087,4.949c-1.819,1.553-2.075,3.641-2.161,4.109c-0.342-0.047-0.684-0.096-1.023-0.15
			c0-11.77,0-23.539,0-35.311c0-1.938,1.154-3.857,2.761-5.238c1.649-1.43,3.73-2.271,5.595-2.17
			c1.229,0.063,2.285,0.561,3.044,1.293c0.802,0.736,1.263,1.736,1.263,2.832c0,1.73-1.176,3.32-2.782,4.531
			c-1.565,1.246-3.603,2.092-5.341,2.133c-1.483,0.033-2.734-0.063-3.493-0.73C313.389,208.916,313.389,214.555,313.389,220.195z
			 M321.588,217.133c-1.229,1.559-2.247,2.576-4.324,4.418c-1.823,1.684-3.792,4.697-3.875,7.738c3.798-1.85,6.679-3.736,8.58-7.986
			c0.593-1.35,0.973-3.285,1.014-4.396c0.042-0.645,0.061-1.447,0.018-2.004C322.62,215.672,322.138,216.439,321.588,217.133z"/>
	</g>
	<g>
		<path d="M340.675,220.215c1.18-0.795,2.779-1.979,4.434-3.146c1.697-1.123,3.096-2.24,3.899-3.258
			c1.438-1.781,1.521-3.004,1.606-5.264c0.084-2.041-0.972-5.352-1.396-5.848c0.191-0.131,0.384-0.26,0.575-0.387
			c0.93,1.645,1.746,4.16,1.746,7.129c0,1.912-0.168,3.174-0.885,4.438c0.254,1.029,0.379,2.139,0.379,3.246s-0.21,2.213-0.59,3.285
			c0.38,1.277,0.591,2.719,0.59,4.123c0,2.762-1.221,5.563-2.959,7.816c-1.313,1.719-3.225,3.609-5.298,5.328
			c-1.817,1.547-2.018,3.541-2.103,5.07c-0.342-0.045-0.684-0.096-1.023-0.148c0-14.02,0-28.035,0-42.055
			c0-1.938,1.096-3.777,2.703-5.158c1.649-1.428,3.729-2.27,5.594-2.168c1.23,0.061,2.286,0.559,3.045,1.289
			c0.801,0.738,1.264,1.738,1.264,2.836c0,1.73-1.177,3.313-2.783,4.512c-1.566,1.234-3.604,2.074-5.341,2.121
			c-1.483,0.039-2.7-0.117-3.458-0.779C340.675,208.869,340.675,214.543,340.675,220.215z M349.431,215.787
			c-1.648,1.914-3.984,4.227-5.934,5.93c-1.566,1.369-2.773,4.059-2.856,5.877c2.358-1.234,5.02-2.969,6.673-5.051
			c1.44-1.822,2.541-3.588,2.624-5.852c-0.01-0.51-0.019-1.021-0.028-1.531C349.781,215.373,349.643,215.533,349.431,215.787z
			 M348.075,224.861c-1.313,1.695-3.225,3.58-5.298,5.346c-1.817,1.598-2.053,3.639-2.137,4.744c2.358-1.137,5.02-2.807,6.673-4.908
			c1.44-1.838,2.541-3.639,2.624-5.904c0.043-0.643,0.013-1.498-0.028-2.27C349.443,222.904,348.796,223.947,348.075,224.861z"/>
	</g>
	<g>
		<path d="M370.64,220.221c1.18-0.816,2.779-2.047,4.435-3.215c1.695-1.127,3.095-2.229,3.898-3.238
			c1.438-1.764,1.521-2.982,1.606-5.24c0.084-2.037-0.968-5.303-1.391-5.797c0.151-0.107,0.305-0.215,0.457-0.32
			c0.93,1.643,1.86,4.055,1.86,7.021c0,1.91-0.168,3.17-0.885,4.424c0.253,1.031,0.38,2.141,0.38,3.246s-0.212,2.209-0.592,3.271
			c0.381,1.281,0.592,2.727,0.592,4.131c0,1.191-0.212,2.344-0.633,3.461c0.38,1.357,0.633,2.836,0.633,4.367
			c0,2.758-1.222,5.57-2.959,7.824c-1.313,1.717-3.226,3.602-5.299,5.311c-1.819,1.539-2.019,3.553-2.104,5.08
			c-0.342-0.045-0.682-0.094-1.023-0.148c0-16.609,0-33.215,0-49.824c0-1.938,1.097-3.811,2.703-5.191
			c1.649-1.426,3.73-2.266,5.595-2.164c1.229,0.061,2.286,0.559,3.044,1.289c0.801,0.736,1.264,1.738,1.264,2.836
			c0,1.732-1.175,3.307-2.784,4.496c-1.563,1.225-3.602,2.059-5.34,2.111c-1.483,0.043-2.7-0.076-3.458-0.732
			C370.64,208.887,370.64,214.553,370.64,220.221z M379.396,215.746c-1.648,1.891-3.985,4.186-5.934,5.904
			c-1.567,1.381-2.773,4.1-2.857,5.92c2.36-1.295,5.021-3.039,6.674-5.104c1.441-1.809,2.541-3.555,2.624-5.814
			c0-0.527,0-1.053,0-1.58C379.776,215.283,379.607,215.492,379.396,215.746z M378.042,224.785c-1.313,1.68-3.226,3.551-5.299,5.348
			c-1.819,1.625-2.053,3.684-2.139,4.789c2.36-1.211,5.021-2.893,6.674-4.975c1.441-1.822,2.541-3.598,2.624-5.859
			c0.043-0.643,0-1.496-0.042-2.264C379.396,222.848,378.761,223.879,378.042,224.785z M378.042,232.256
			c-1.313,1.697-3.226,3.576-5.299,5.33c-1.819,1.584-2.053,3.617-2.139,5.146c2.36-1.121,5.021-2.775,6.674-4.877
			c1.441-1.834,2.541-3.643,2.624-5.906c0.044-0.729,0-1.836-0.084-2.732C379.396,230.338,378.761,231.34,378.042,232.256z"/>
	</g>
	<g>
		<path d="M244.214,236.586c-0.379-0.049-0.758-0.105-1.137-0.164c0-11.963,0-23.922,0-35.883c0.076-3.672,4.707-7.541,8.233-7.318
			c1.059,0.045,2.128,0.338,2.97,0.992c1.35,1.057,1.637,2.484,1.596,4.039c-0.118,3.68-4.58,6.5-8.232,6.76
			c-1.061,0.066-2.122-0.016-3.43-0.783C244.214,215.014,244.214,225.799,244.214,236.586z M244.436,202.396
			c0.001,0.598,0.295,0.787,1.013,0.877c1.225,0.016,3.516-1.051,5.424-2.516c1.951-1.441,3.765-3.307,3.639-4.633
			c-0.043-0.475-0.465-0.822-0.888-0.904c-1.815-0.557-5.128,1.764-6.438,2.932C245.573,199.563,244.352,201.172,244.436,202.396z"
			/>
	</g>
	<g>
		<path d="M276.038,164.984c0,1.895-1.19,3.811-2.84,5.236c-1.606,1.424-3.73,2.268-5.596,2.162
			c-1.186-0.059-2.285-0.561-3.043-1.293c-0.801-0.738-1.264-1.736-1.264-2.834c0-1.73,1.176-3.32,2.783-4.529
			c1.607-1.244,3.645-2.094,5.34-2.131c1.484-0.031,2.723,0.064,3.48,0.736c0-10.941,0-21.882,0-32.823
			c0.38,0.05,0.76,0.104,1.139,0.164C276.038,141.443,276.038,153.213,276.038,164.984z"/>
	</g>
	<g>
		<path d="M295.973,128.668c0.296,2.212,0.339,4.979,2.543,7.813c1.694,2.162,3.599,4.128,4.907,5.867
			c1.73,2.284,2.947,5.028,2.947,7.769c0.001,4.373-2.094,8.781-3.531,11.342c-0.229,0.012-0.457,0.023-0.686,0.035
			c1.017-2.406,3.039-6.238,2.871-10.273c-0.085-2.258-0.926-4.703-2.363-6.568c-1.602-2.168-4.313-3.999-6.688-4.188
			c0,8.341,0,16.681,0,25.021c0,1.98-1.146,3.809-2.8,5.098c-1.61,1.295-3.73,1.967-5.59,1.777
			c-1.184-0.115-2.279-0.646-3.035-1.387c-0.801-0.748-1.264-1.746-1.264-2.844c0-1.729,1.176-3.322,2.779-4.504
			c1.603-1.215,3.634-2.012,5.33-1.975c1.482,0.035,2.785,0.23,3.549,0.979c0-11.322,0-22.646,0-33.969
			C295.286,128.661,295.63,128.663,295.973,128.668z"/>
		<path d="M298.952,165.057c1.102-0.037,2.059,0.895,2.059,2.025c0,1.133-0.957,2.189-2.059,2.244
			c-1.102,0.053-1.947-0.928-1.947-2.072C297.003,166.107,297.851,165.098,298.952,165.057z"/>
	</g>
	<g>
		<path d="M147.939,177.65h3.07v26.23h-3.07V177.65z M152.474,203.881v-26.23h0.977v12.906c1.987-1.188,2.873-4.308,3.208-5.856
			l0.069-0.004c0.181,1.522,0.989,3.487,2.718,3.644c2.66,0.232,2.559-3.258,2.584-5.039c0.052-2.349-0.235-4.667-2.997-4.899
			c-0.464-0.051-1.523,0.077-1.523,0.749c0,0.207,0.284,0.412,0.542,0.671c0.284,0.283,0.542,0.646,0.542,1.239
			c0,1.032-0.825,1.601-1.78,1.601c-1.006,0-1.759-0.936-1.759-1.942c0-2.425,2.843-3.092,4.728-3.092
			c3.329,0,5.623,2.471,5.597,6.162c-0.026,2.917-1.881,5.299-4.772,5.557c-0.774,0.078-1.617-0.051-2.624-0.464l-1.256,1.884
			l1.256,1.884c1.007-0.413,1.85-0.567,2.624-0.489c2.891,0.258,4.72,2.665,4.772,5.582c0,3.664-2.268,6.162-5.597,6.162
			c-1.911,0-4.728-0.761-4.728-3.162c0-1.007,0.753-1.924,1.759-1.924c0.956,0,1.78,0.594,1.78,1.627
			c0,0.566-0.258,0.955-0.542,1.238c-0.258,0.258-0.542,0.465-0.542,0.697c0,0.619,1.084,0.773,1.523,0.773
			c2.762,0,3.049-2.973,2.997-5.063c-0.026-1.781,0.022-5.157-2.584-4.925c-1.729,0.155-2.537,2.119-2.718,3.668h-0.069
			c-0.336-1.626-1.195-4.594-3.208-5.859v12.906H152.474z"/>
	</g>
	<g>
		<path d="M111.285,204.576c5.62-3.758,9.195-5.837,12.334-11.313c1.35-2.371,2.336-5.765,2.336-8.246
			c0-2.006-0.111-3.502-0.876-4.962c-0.875-1.679-2.737-2.991-5.145-2.774c-1.605,0.146-3.54,0.731-4.342,1.606
			c-0.438,0.475-0.839,1.132-1.095,1.679c-0.219,0.476,0,1.204,0.875,1.24c0.329,0,1.059-0.291,1.46-0.328
			c1.897-0.219,3.466,1.313,3.466,2.957c0,1.605-1.423,3.283-3.685,3.283c-2.336,0-4.307-1.605-4.379-3.904
			c-0.073-2.445,1.532-4.927,3.795-6.166c1.204-0.767,3.832-1.461,5.108-1.461c2.335,0,4.415,0.401,6.604,2.226
			c2.189,1.825,2.919,3.321,3.248,6.387c0.475,4.342-3.138,10.034-6.641,12.917c-3.284,2.7-8.319,5.438-12.845,7.627
			L111.285,204.576z M134.529,178.996c1.204,0,1.971,0.986,1.971,1.972c0,1.021-0.767,2.008-1.971,2.008
			c-1.277,0-2.007-0.986-2.007-2.008C132.522,179.982,133.252,178.996,134.529,178.996z M134.529,186.988
			c1.204,0,1.971,0.985,1.971,1.971c0,1.021-0.767,2.007-1.971,2.007c-1.277,0-2.007-0.985-2.007-2.007
			C132.522,187.974,133.252,186.988,134.529,186.988z"/>
	</g>
	<g>
		<path d="M189.451,191.72c-0.327,4.63-3.312,8.872-8.224,8.986c-2.6,0.036-5.485-2.005-6.96-4.232
			c-1.601-2.284-2.131-4.675-2.131-7.304c0-2.989,1.061-5.356,3.28-7.759c1.563-1.703,4.078-3.04,6.264-2.991
			c3.224,0.03,7.162,2.463,7.567,6.004c0.367,1.781-0.814,4.414-3.362,4.429c-1.688-0.005-3.38-1.146-3.379-3.203
			c0-1.704,1.238-2.829,2.679-3.311c0.288-0.159,0.987,0.056,1.11-0.405c0.042-0.253-0.206-0.698-0.37-0.84
			c-0.741-0.74-1.729-1.109-2.677-1.232c-2.144-0.302-3.712,0.928-4.496,2.038c-1.278,1.956-1.36,4.472-1.36,6.902
			c0.001,1.999-0.165,5.067,0.702,7.313c0.7,1.491,1.689,2.954,4,3.048c1.897,0.092,3.379-1.07,4.406-2.458
			c1.191-1.743,1.56-3.103,1.889-4.952C188.742,191.742,189.096,191.731,189.451,191.72z"/>
	</g>
	<g>
		<path d="M207.051,198.771c3.099,1.358,6.344-2.312,7.203-7.03c0.354-0.005,0.708-0.012,1.063-0.018
			c-0.325,4.669-3.31,8.646-8.266,8.715c0,2.42,0,4.842,0,7.264c-0.411,0.004-0.824,0-1.235-0.006c0-2.477,0-4.955,0-7.432
			c-5.242-1.07-7.813-6.277-7.813-11.092c-0.002-4.574,3.228-9.105,7.813-10.225c0-2.506,0-5.012,0-7.519
			c0.411-0.007,0.824-0.008,1.235-0.005c0,2.421,0,4.843,0,7.264c3.719,0.008,7.657,2.211,8.062,5.745
			c0.367,1.776-0.814,4.424-3.363,4.434c-1.687-0.003-3.377-1.115-3.377-3.122c0-1.666,1.236-2.768,2.678-3.271
			c0.289-0.16,0.986,0.034,1.111-0.424c0.206-1.13-2.305-1.873-3.048-1.967c-0.741-0.103-1.444,0.017-2.063,0.229
			C207.051,186.464,207.051,192.618,207.051,198.771z M203.257,192.559c0,1.566,0.453,4.434,2.559,5.739c0-5.78,0-11.562,0-17.343
			c-1.733,1.001-2.559,3.28-2.559,5.909C203.257,188.762,203.257,190.66,203.257,192.559z"/>
	</g>
	<path d="M195.845,217.523v1.281l-12.027,3.609v0.076l12.027,3.57v1.277l-16.179-4.887L195.845,217.523z"/>
	<path d="M158.279,227.34v-1.281l12.027-3.607v-0.078l-12.027-3.568v-1.281l16.179,4.889L158.279,227.34z"/>
	<path d="M213.204,230.898v1.279l-24.5,3.607v0.08l24.5,3.568v1.279l-32.957-4.887L213.204,230.898z"/>
	<path d="M141.504,241.289v-1.281l24.5-3.607v-0.078l-24.5-3.568v-1.281l32.958,4.889L141.504,241.289z"/>
	<g>
		<path d="M37.253,178.168c4.356-0.386,8.503,1.345,11.123,4.878c2.518,3.396,3.36,7.882,2.577,12.007
			c-0.809,4.262-3.525,7.819-7.122,10.158c-0.903,0.587-1.854,1.1-2.835,1.544c0.199,1.561,0.396,3.12,0.596,4.683
			c0.368,2.895,1.041,5.92,1.022,8.84c-0.024,3.969-1.321,7.951-4.826,10.16c-3.462,2.184-8.033,2.242-11.485,0.041
			c-3.53-2.246-6.029-6.805-4.302-10.939c1.723-4.117,7.039-5.428,9.841-1.578c1.576,2.164,1.751,5.471-0.146,7.508
			c-1.132,1.215-3.328,2.182-4.983,1.531c0.045,2.162,3.351,3.244,5.112,3.18c2.545-0.111,5.05-1.018,6.697-3.031
			c1.716-2.102,2.209-4.859,2.142-7.502c-0.051-2.016-0.451-4.029-0.734-6.021c-0.288-2.033-0.576-4.066-0.863-6.101
			c-9.157,2.216-17.611-3.306-21.261-11.604c-1.785-4.053-2.511-8.717-1.755-13.098c0.768-4.45,3.056-8.451,5.837-11.947
			c2.841-3.573,6.196-6.691,9.545-9.776c0.384-0.354,0.769-0.708,1.153-1.063c0.314-0.289,0.396-0.249,0.32-0.707
			c-0.059-0.355-0.116-0.711-0.169-1.066c-0.231-1.522-0.416-3.052-0.538-4.587c-0.216-2.69-0.282-5.435-0.019-8.124
			c0.352-3.59,1.347-7.213,2.847-10.49c0.749-1.636,1.66-3.24,2.88-4.573c0.861-0.941,2.254-2.184,3.614-2.247
			c0.867-0.041,1.518,1.155,1.87,1.778c0.795,1.412,1.342,2.969,1.815,4.514c1.105,3.611,1.898,7.503,1.808,11.295
			c-0.111,4.702-1.688,9.409-4.021,13.462c-1.226,2.128-2.69,4.119-4.344,5.936c-0.797,0.877-1.637,1.712-2.517,2.506
			c-0.426,0.383-0.055,1.469,0.019,2.027c0.112,0.854,0.224,1.707,0.336,2.561C36.741,174.269,36.998,176.219,37.253,178.168
			 M36.261,185.286c-4.25,1.024-7.68,5.849-6.307,10.209c0.301,0.958,0.839,1.822,1.519,2.555c0.345,0.374,0.726,0.713,1.127,1.023
			c0.456,0.349,1.067,0.594,1.48,0.984c0.331,0.312,0.203,0.825-0.198,1.002c-0.475,0.209-1.014-0.19-1.417-0.413
			c-0.994-0.55-1.898-1.256-2.681-2.079c-3.136-3.299-4.165-8.329-2.389-12.544c0.908-2.156,2.418-4.066,4.26-5.502
			c0.85-0.662,1.78-1.228,2.775-1.646c0.239-0.101,0.481-0.192,0.727-0.274c0.411-0.137,0.198-0.436,0.149-0.813
			c-0.109-0.859-0.219-1.718-0.329-2.577c-0.25-1.963-0.501-3.928-0.751-5.892c-6.88,5.478-14.744,12.397-14.569,22.002
			c0.158,8.61,8.03,15.358,16.544,14.676c0.779-0.063,1.552-0.194,2.31-0.385c0.554-0.138,0.251-0.7,0.189-1.188
			c-0.063-0.489-0.125-0.979-0.188-1.471c-0.25-1.959-0.5-3.92-0.75-5.881C37.263,193.143,36.762,189.216,36.261,185.286
			 M44.891,141.467c0.08-2.337-1.637-4.938-4.207-3.965c-2.009,0.759-3.314,2.749-4.204,4.602
			c-2.437,5.069-2.702,10.593-1.768,16.071C39.843,154.207,44.686,148.234,44.891,141.467 M40.758,205.001
			c4.275-2.112,7.035-6.972,6.233-11.731c-0.748-4.436-4.291-7.854-8.835-8.102C39.02,191.779,39.888,198.391,40.758,205.001"/>
	</g>
	<g>
		<path d="M80.565,176.21c4.941-0.304,14.065,2.405,14.264,10.034c0.211,7.457-9.089,10.324-13.893,10.047
			c-5.084-0.102-14.025-3.333-14.22-10.047C66.502,179.766,75.822,176.326,80.565,176.21z M82.419,194.613
			c2.949-0.436,4.099-1.969,3.894-6.649c-0.344-6.438-3.802-10.835-7.229-10.038c-2.878,0.685-4.091,2.179-3.886,6.665
			C75.47,190.716,78.989,195.166,82.419,194.613z"/>
		<path d="M99.704,182.785c1.774,0.105,3.236,1.701,3.236,3.459s-1.538,3.214-3.31,3.314c-1.774,0.095-3.137-1.354-3.137-3.314
			C96.494,184.283,97.932,182.684,99.704,182.785z"/>
	</g>
	<g>
		<path d="M86.538,216.689c0.524-0.086,1.297-0.471,1.297,0.166c0,0.953,0,1.908,0,2.861c0,1.752,0,3.504,0,5.256
			c1.95-0.592,3.921-1.104,5.86-1.453c0,4.473,0,8.943,0,13.416c0,2.344,0,4.689,0,7.033c0,0.693,0.186,0.789-0.559,0.893
			c-0.314,0.043-0.738,0.264-0.738-0.109c0-0.494,0-0.986,0-1.48c0-2.223,0-4.443,0-6.666c-1.951,0.59-3.92,1.102-5.86,1.449
			C86.538,230.932,86.538,223.813,86.538,216.689 M87.835,233.969c0.47-0.086,4.567-0.982,4.563-1.215c0-1.719,0-3.439,0-5.16
			c-0.471,0.094-4.567,0.996-4.563,1.229C87.835,230.539,87.835,232.256,87.835,233.969"/>
	</g>
	<g>
		<path d="M102.183,217.369c0.235-0.043,1.296-0.322,1.297-0.064c0,0.43,0,0.861,0,1.293c0,1.809,0,3.621,0,5.43
			c0,3.031,0,6.064,0,9.098c1.371-1.047,3.235-2.104,4.931-1.125c1.517,0.879,2.099,2.59,1.517,4.246
			c-0.567,1.611-1.909,2.9-3.184,3.961c-1.639,1.365-3.138,2.754-4.561,4.059c0-8.842,0-17.682,0-26.521
			C102.183,217.619,102.183,217.494,102.183,217.369 M103.48,241.689c1.439-1.586,3.546-3.604,3.72-6.025
			c0.077-1.051-0.417-2.285-1.559-2.457c-0.847-0.152-1.82,0.838-2.106,1.549c-0.116,0.289-0.055,0.676-0.055,0.98
			c0,0.773,0,1.545,0,2.318C103.48,239.266,103.48,240.477,103.48,241.689"/>
	</g>
	<g>
		<path d="M73.794,237.496c-0.826,0.229-1.652,0.441-2.478,0.635c-0.305,0.072-0.133,1.162-0.133,1.439c0,2.109,0,4.219,0,6.328
			c0,0.057,0.036,0.348-0.03,0.344c-0.196-0.002-1.161,0.061-1.271-0.086c-0.214-0.273,0-1.648,0-1.971c0-1.875,0-3.752,0-5.627
			c-0.615,0.119-1.229,0.225-1.839,0.316c0-1.07,0-2.143,0-3.215c0-0.172-0.109-0.877,0.079-0.926
			c0.558-0.143,1.119-0.293,1.681-0.449c0.265-0.074,0.079-2.443,0.079-2.75c0-1.035,0-2.07,0-3.105
			c-0.615,0.154-1.229,0.311-1.839,0.467c0-1.08,0-2.16,0-3.24c0-0.158-0.1-0.744,0.079-0.797c0.558-0.166,1.119-0.328,1.681-0.484
			c0.225-0.063,0.079-1.84,0.079-2.078c0-1.398,0-2.801,0-4.201c0-0.416-0.255-1.869,0.237-1.908
			c0.142-0.018,1.064-0.139,1.064-0.012c0,0.367,0,0.736,0,1.104c0,2.236,0,4.471,0,6.705c0.826-0.227,1.652-0.438,2.478-0.633
			c0.305-0.07,0.132-1.164,0.132-1.438c0-2.137,0-4.273,0-6.41c0-0.643,1.304-0.021,1.303-0.176c0,0.703,0,1.406,0,2.107
			c0,1.867,0,3.73,0,5.596c0.614-0.117,1.228-0.227,1.838-0.32c0,1.053,0,2.102,0,3.154c0,0.293,0.139,0.717-0.169,0.795
			c-0.548,0.141-1.098,0.287-1.649,0.441c-0.154,0.041-0.02,2.508-0.02,2.734c0,1.035,0,2.07,0,3.107
			c0.614-0.191,1.228-0.385,1.838-0.576c0,1.02,0,2.037,0,3.055c0,0.215,0.12,0.879,0,1.07c-0.137,0.221-1.162,0.408-1.411,0.49
			c-0.309,0.105-0.427,0.049-0.427,0.357c0,0.426,0,0.848,0,1.271c0,1.381,0,2.764,0,4.145c0,0.256,0.133,1.959-0.114,1.979
			c-0.127,0.016-1.189,0.105-1.189,0.045c0-0.303,0-0.607,0-0.91C73.794,241.744,73.794,239.621,73.794,237.496 M71.184,233.953
			c0.756-0.188,1.512-0.379,2.268-0.576c0.544-0.143,0.343-0.527,0.343-1.08c0-1.625,0-3.252,0-4.879
			c-0.755,0.184-1.512,0.379-2.267,0.574c-0.545,0.145-0.344,0.529-0.344,1.08C71.184,230.699,71.184,232.326,71.184,233.953"/>
	</g>
	<g>
		<path d="M121.761,227.672c0.277,2.07,2.613,1.879,2.866-0.117c0.082-0.641,0.162-1.277,0.243-1.914
			c0.077-0.605,0.032-0.551,0.6-0.516c0.375-0.014,3.08,0.18,3.077,0.447c0,0.6,0,1.201,0,1.803c0,0.266,0.17,1.35,0,1.545
			c-0.174,0.199-1.304,0.174-1.579,0.219c-0.658,0.1-1.351,0.166-1.825,0.736c-0.715,0.865-0.15,2.002,0.768,2.289
			c0.601,0.189,1.282,0.211,1.898,0.287c0.441,0.057,0.738-0.082,0.738,0.379c0,0.721,0,1.439,0,2.16
			c0,0.119,0.061,0.998-0.049,1.016c-0.613,0.094-1.229,0.172-1.845,0.232c-0.554,0.055-1.108,0.096-1.665,0.125
			c-0.127,0.006-0.193-1.336-0.211-1.502c-0.063-0.582-0.061-1.252-0.316-1.783c-0.478-1.002-1.684-1.195-2.304-0.227
			c-0.599,0.936-0.611,2.414-0.795,3.484c-0.026,0.172-2.983-0.227-3.298-0.314c-0.345-0.055-0.192-0.41-0.192-0.715
			c0-0.744,0-1.486,0-2.229c0-0.496-0.094-0.523,0.383-0.605c0.611-0.105,1.225-0.219,1.839-0.344
			c1.866-0.377,1.858-2.777-0.052-3.012c-0.597-0.076-1.193-0.143-1.788-0.201c-0.525-0.049-0.383-0.176-0.383-0.713
			c0-0.875,0-1.75,0-2.625c-0.001-0.252,1.495-0.324,1.739-0.336c0.308-0.041,1.714-0.352,1.771,0.016
			C121.509,226.061,121.635,226.863,121.761,227.672"/>
	</g>
	<g>
		<path d="M71.287,140.546c-0.015-0.086-0.023-0.18-0.027-0.281s-0.005-0.252-0.005-0.454c0-0.829,0.171-1.591,0.514-2.282
			s0.874-1.356,1.595-1.989c0.504-0.44,1.305-0.966,2.401-1.58c0.49-0.267,0.847-0.473,1.071-0.616
			c0.685-0.426,1.155-0.823,1.411-1.195c0.256-0.371,0.384-0.813,0.384-1.324c0-0.635-0.24-1.146-0.719-1.531
			c-0.479-0.385-1.12-0.578-1.92-0.578c-0.656,0-1.2,0.129-1.633,0.389c-0.433,0.261-0.75,0.639-0.952,1.137
			c0.13-0.029,0.255-0.055,0.374-0.075c0.119-0.022,0.222-0.034,0.308-0.034c0.461,0,0.836,0.142,1.125,0.422
			c0.288,0.282,0.432,0.646,0.432,1.092c0,0.513-0.196,0.947-0.589,1.305c-0.393,0.357-0.878,0.535-1.455,0.535
			c-0.713,0-1.283-0.219-1.708-0.66c-0.426-0.439-0.638-1.035-0.638-1.783c0-1.241,0.546-2.277,1.638-3.109
			c1.092-0.834,2.475-1.25,4.148-1.25c1.78,0,3.203,0.407,4.266,1.223c1.064,0.814,1.596,1.899,1.596,3.255
			c0,1.016-0.342,1.888-1.027,2.611c-0.686,0.725-1.698,1.286-3.039,1.683c-0.188,0.059-0.451,0.135-0.79,0.227
			c-2.192,0.643-3.591,1.384-4.197,2.229c0.447-0.245,0.9-0.428,1.357-0.547c0.458-0.119,0.936-0.178,1.433-0.178
			c0.541,0,1.182,0.082,1.925,0.242c0.743,0.163,1.222,0.245,1.438,0.245c0.454,0,0.779-0.145,0.973-0.435
			c0.195-0.287,0.292-0.771,0.292-1.449h1.947c0.007,0.103,0.013,0.207,0.017,0.32c0.003,0.111,0.005,0.275,0.005,0.492
			c0,1.485-0.325,2.582-0.974,3.287c-0.649,0.707-1.655,1.061-3.017,1.061c-0.657,0-1.471-0.199-2.444-0.595
			c-0.159-0.065-0.274-0.112-0.346-0.141c-0.498-0.188-0.9-0.323-1.206-0.405c-0.306-0.084-0.568-0.125-0.784-0.125
			c-0.304,0-0.564,0.072-0.784,0.217c-0.22,0.144-0.395,0.359-0.524,0.648H71.287z"/>
		<path d="M71.287,157.719c-0.015-0.085-0.023-0.18-0.027-0.28s-0.005-0.253-0.005-0.454c0-0.83,0.171-1.591,0.514-2.283
			c0.343-0.691,0.874-1.354,1.595-1.989c0.504-0.439,1.305-0.966,2.401-1.579c0.49-0.268,0.847-0.472,1.071-0.617
			c0.685-0.425,1.155-0.822,1.411-1.194s0.384-0.813,0.384-1.325c0-0.635-0.24-1.144-0.719-1.53c-0.479-0.386-1.12-0.579-1.92-0.579
			c-0.656,0-1.2,0.131-1.633,0.39c-0.433,0.261-0.75,0.639-0.952,1.136c0.13-0.027,0.255-0.055,0.374-0.075
			c0.119-0.021,0.222-0.034,0.308-0.034c0.461,0,0.836,0.143,1.125,0.423c0.288,0.282,0.432,0.646,0.432,1.093
			c0,0.513-0.196,0.947-0.589,1.304c-0.393,0.356-0.878,0.535-1.455,0.535c-0.713,0-1.283-0.22-1.708-0.66
			c-0.426-0.44-0.638-1.034-0.638-1.784c0-1.24,0.546-2.277,1.638-3.109c1.092-0.833,2.475-1.249,4.148-1.249
			c1.78,0,3.203,0.406,4.266,1.222c1.064,0.816,1.596,1.9,1.596,3.255c0,1.018-0.342,1.888-1.027,2.612
			c-0.686,0.725-1.698,1.287-3.039,1.683c-0.188,0.058-0.451,0.134-0.79,0.227c-2.192,0.643-3.591,1.385-4.197,2.228
			c0.447-0.244,0.9-0.426,1.357-0.546c0.458-0.118,0.936-0.177,1.433-0.177c0.541,0,1.182,0.08,1.925,0.242
			c0.743,0.162,1.222,0.244,1.438,0.244c0.454,0,0.779-0.145,0.973-0.435c0.195-0.288,0.292-0.77,0.292-1.449h1.947
			c0.007,0.103,0.013,0.208,0.017,0.32c0.003,0.111,0.005,0.274,0.005,0.491c0,1.486-0.325,2.582-0.974,3.287
			c-0.649,0.707-1.655,1.061-3.017,1.061c-0.657,0-1.471-0.198-2.444-0.595c-0.159-0.063-0.274-0.111-0.346-0.14
			c-0.498-0.188-0.9-0.323-1.206-0.404c-0.306-0.085-0.568-0.126-0.784-0.126c-0.304,0-0.564,0.072-0.784,0.217
			c-0.22,0.145-0.395,0.359-0.524,0.647H71.287z"/>
	</g>
	<g>
		<path d="M90.173,140.546c-0.015-0.086-0.023-0.18-0.026-0.281c-0.004-0.102-0.006-0.252-0.006-0.454
			c0-0.829,0.171-1.591,0.514-2.282c0.342-0.691,0.874-1.356,1.595-1.989c0.504-0.44,1.305-0.966,2.401-1.58
			c0.49-0.267,0.847-0.473,1.07-0.616c0.686-0.426,1.156-0.823,1.412-1.195c0.256-0.371,0.384-0.813,0.384-1.324
			c0-0.635-0.24-1.146-0.72-1.531c-0.479-0.385-1.119-0.578-1.919-0.578c-0.657,0-1.201,0.129-1.633,0.389
			c-0.433,0.261-0.75,0.639-0.952,1.137c0.129-0.029,0.254-0.055,0.373-0.075c0.119-0.022,0.221-0.034,0.309-0.034
			c0.461,0,0.836,0.142,1.125,0.422c0.288,0.282,0.432,0.646,0.432,1.092c0,0.513-0.196,0.947-0.589,1.305s-0.877,0.535-1.455,0.535
			c-0.713,0-1.283-0.219-1.708-0.66c-0.425-0.439-0.638-1.035-0.638-1.783c0-1.241,0.546-2.277,1.639-3.109
			c1.092-0.834,2.475-1.25,4.147-1.25c1.78,0,3.203,0.407,4.267,1.223c1.063,0.814,1.595,1.899,1.595,3.255
			c0,1.016-0.343,1.888-1.027,2.611c-0.686,0.725-1.699,1.286-3.04,1.683c-0.188,0.059-0.451,0.135-0.79,0.227
			c-2.192,0.643-3.59,1.384-4.196,2.229c0.447-0.245,0.899-0.428,1.357-0.547s0.936-0.178,1.433-0.178
			c0.541,0,1.183,0.082,1.925,0.242c0.743,0.163,1.223,0.245,1.439,0.245c0.454,0,0.778-0.145,0.973-0.435
			c0.195-0.287,0.292-0.771,0.292-1.449h1.946c0.007,0.103,0.013,0.207,0.016,0.32c0.004,0.111,0.006,0.275,0.006,0.492
			c0,1.485-0.326,2.582-0.974,3.287c-0.649,0.707-1.654,1.061-3.018,1.061c-0.656,0-1.471-0.199-2.444-0.595
			c-0.159-0.065-0.274-0.112-0.346-0.141c-0.498-0.188-0.9-0.323-1.206-0.405c-0.307-0.084-0.567-0.125-0.785-0.125
			c-0.302,0-0.564,0.072-0.784,0.217c-0.22,0.144-0.395,0.359-0.524,0.648H90.173z"/>
		<path d="M94.217,157.719v-1.838h0.595c0.699,0,1.159-0.062,1.379-0.184c0.22-0.123,0.33-0.483,0.33-1.081v-0.087v-0.909h-6.446
			v-2.12l6.89-7.268h3.341v7.442h2.152v1.945h-2.152v1.331c0,0.374,0.099,0.623,0.297,0.746c0.199,0.122,0.623,0.184,1.271,0.184
			h0.584v1.838H94.217z M92.293,151.675h4.229l0.043-4.349L92.293,151.675z"/>
	</g>
	<g>
		<path d="M113.904,134.414v-1.86c0.908-0.043,1.584-0.229,2.027-0.557c0.444-0.328,0.665-0.803,0.665-1.424
			c0-0.64-0.239-1.147-0.719-1.52c-0.479-0.37-1.13-0.555-1.952-0.555c-0.447,0-0.849,0.06-1.206,0.184
			c-0.357,0.122-0.68,0.313-0.967,0.571h0.194c0.469,0,0.842,0.131,1.12,0.39c0.277,0.26,0.417,0.61,0.417,1.05
			c0,0.526-0.174,0.948-0.52,1.266c-0.346,0.317-0.807,0.477-1.384,0.477c-0.634,0-1.133-0.183-1.498-0.546
			c-0.363-0.365-0.546-0.868-0.546-1.511c0-1.125,0.482-2.022,1.444-2.692c0.962-0.671,2.269-1.006,3.92-1.006
			c1.832,0,3.241,0.315,4.229,0.946c0.988,0.632,1.482,1.528,1.482,2.688c0,0.764-0.25,1.408-0.752,1.931
			c-0.501,0.521-1.195,0.858-2.082,1.011c1.139,0.288,1.988,0.716,2.547,1.281c0.559,0.566,0.838,1.277,0.838,2.135
			c0,1.4-0.557,2.465-1.671,3.196c-1.114,0.732-2.742,1.099-4.883,1.099c-1.701,0-3.046-0.333-4.034-1
			c-0.988-0.668-1.481-1.566-1.481-2.698c0-0.722,0.21-1.305,0.632-1.747c0.422-0.444,0.971-0.666,1.649-0.666
			c0.562,0,1.031,0.177,1.406,0.529c0.375,0.354,0.563,0.799,0.563,1.332c0,0.49-0.161,0.881-0.482,1.173
			c-0.321,0.293-0.759,0.438-1.314,0.438c0.318,0.253,0.674,0.438,1.071,0.557c0.396,0.12,0.854,0.179,1.374,0.179
			c0.937,0,1.658-0.218,2.163-0.655c0.504-0.435,0.757-1.061,0.757-1.875c0-0.729-0.243-1.266-0.73-1.605
			C115.693,134.585,114.935,134.414,113.904,134.414z"/>
		<path d="M109.058,157.719c-0.014-0.085-0.023-0.18-0.027-0.28s-0.005-0.253-0.005-0.454c0-0.83,0.171-1.591,0.514-2.283
			c0.343-0.691,0.875-1.354,1.595-1.989c0.505-0.439,1.305-0.966,2.401-1.579c0.489-0.268,0.847-0.472,1.07-0.617
			c0.685-0.425,1.155-0.822,1.412-1.194c0.256-0.372,0.384-0.813,0.384-1.325c0-0.635-0.24-1.144-0.72-1.53
			c-0.479-0.386-1.119-0.579-1.919-0.579c-0.656,0-1.201,0.131-1.634,0.39c-0.432,0.261-0.75,0.639-0.952,1.136
			c0.131-0.027,0.255-0.055,0.374-0.075c0.118-0.021,0.222-0.034,0.308-0.034c0.462,0,0.836,0.143,1.125,0.423
			c0.289,0.282,0.433,0.646,0.433,1.093c0,0.513-0.197,0.947-0.589,1.304c-0.394,0.356-0.879,0.535-1.455,0.535
			c-0.714,0-1.283-0.22-1.709-0.66s-0.638-1.034-0.638-1.784c0-1.24,0.546-2.277,1.638-3.109c1.093-0.833,2.475-1.249,4.148-1.249
			c1.781,0,3.203,0.406,4.267,1.222c1.063,0.816,1.595,1.9,1.595,3.255c0,1.018-0.342,1.888-1.027,2.612
			c-0.685,0.725-1.698,1.287-3.039,1.683c-0.188,0.058-0.451,0.134-0.79,0.227c-2.192,0.643-3.591,1.385-4.197,2.228
			c0.447-0.244,0.9-0.426,1.358-0.546c0.458-0.118,0.935-0.177,1.433-0.177c0.541,0,1.182,0.08,1.925,0.242
			c0.743,0.162,1.222,0.244,1.438,0.244c0.454,0,0.779-0.145,0.974-0.435c0.194-0.288,0.292-0.77,0.292-1.449h1.947
			c0.008,0.103,0.013,0.208,0.017,0.32c0.003,0.111,0.005,0.274,0.005,0.491c0,1.486-0.324,2.582-0.974,3.287
			c-0.649,0.707-1.655,1.061-3.017,1.061c-0.656,0-1.472-0.198-2.445-0.595c-0.159-0.063-0.274-0.111-0.346-0.14
			c-0.498-0.188-0.899-0.323-1.206-0.404c-0.306-0.085-0.567-0.126-0.784-0.126c-0.303,0-0.564,0.072-0.784,0.217
			c-0.22,0.145-0.395,0.359-0.525,0.647H109.058z"/>
	</g>
	<g>
		<path d="M132.79,134.414v-1.86c0.909-0.043,1.584-0.229,2.028-0.557c0.443-0.328,0.665-0.803,0.665-1.424
			c0-0.64-0.24-1.147-0.719-1.52c-0.479-0.37-1.13-0.555-1.952-0.555c-0.447,0-0.849,0.06-1.206,0.184
			c-0.357,0.122-0.68,0.313-0.968,0.571h0.195c0.469,0,0.842,0.131,1.119,0.39c0.277,0.26,0.417,0.61,0.417,1.05
			c0,0.526-0.173,0.948-0.519,1.266s-0.808,0.477-1.384,0.477c-0.634,0-1.134-0.183-1.499-0.546
			c-0.364-0.365-0.546-0.868-0.546-1.511c0-1.125,0.481-2.022,1.444-2.692c0.962-0.671,2.269-1.006,3.92-1.006
			c1.832,0,3.241,0.315,4.229,0.946c0.988,0.632,1.481,1.528,1.481,2.688c0,0.764-0.25,1.408-0.751,1.931
			c-0.501,0.521-1.195,0.858-2.082,1.011c1.139,0.288,1.988,0.716,2.547,1.281c0.559,0.566,0.838,1.277,0.838,2.135
			c0,1.4-0.557,2.465-1.671,3.196c-1.114,0.732-2.742,1.099-4.883,1.099c-1.701,0-3.046-0.333-4.034-1
			c-0.988-0.668-1.482-1.566-1.482-2.698c0-0.722,0.211-1.305,0.633-1.747c0.422-0.444,0.971-0.666,1.649-0.666
			c0.562,0,1.031,0.177,1.406,0.529c0.375,0.354,0.563,0.799,0.563,1.332c0,0.49-0.161,0.881-0.481,1.173
			c-0.321,0.293-0.76,0.438-1.314,0.438c0.317,0.253,0.674,0.438,1.071,0.557c0.397,0.12,0.854,0.179,1.374,0.179
			c0.937,0,1.657-0.218,2.163-0.655c0.504-0.435,0.758-1.061,0.758-1.875c0-0.729-0.244-1.266-0.73-1.605
			C134.58,134.585,133.82,134.414,132.79,134.414z"/>
		<path d="M131.989,157.719v-1.838h0.595c0.699,0,1.159-0.062,1.379-0.184c0.22-0.123,0.33-0.483,0.33-1.081v-0.087v-0.909h-6.446
			v-2.12l6.889-7.268h3.342v7.442h2.152v1.945h-2.152v1.331c0,0.374,0.099,0.623,0.297,0.746c0.198,0.122,0.622,0.184,1.271,0.184
			h0.584v1.838H131.989z M130.064,151.675h4.229l0.043-4.349L130.064,151.675z"/>
	</g>
	<g>
		<path d="M151.675,134.414v-1.86c0.908-0.043,1.584-0.229,2.027-0.557s0.666-0.803,0.666-1.424c0-0.64-0.24-1.147-0.719-1.52
			c-0.479-0.37-1.13-0.555-1.953-0.555c-0.447,0-0.849,0.06-1.205,0.184c-0.358,0.122-0.681,0.313-0.968,0.571h0.194
			c0.469,0,0.842,0.131,1.12,0.39c0.278,0.26,0.417,0.61,0.417,1.05c0,0.526-0.173,0.948-0.52,1.266
			c-0.346,0.317-0.806,0.477-1.384,0.477c-0.634,0-1.134-0.183-1.498-0.546c-0.364-0.365-0.546-0.868-0.546-1.511
			c0-1.125,0.481-2.022,1.443-2.692c0.963-0.671,2.269-1.006,3.92-1.006c1.832,0,3.241,0.315,4.229,0.946
			c0.988,0.632,1.482,1.528,1.482,2.688c0,0.764-0.251,1.408-0.753,1.931c-0.501,0.521-1.194,0.858-2.081,1.011
			c1.138,0.288,1.987,0.716,2.546,1.281c0.559,0.566,0.838,1.277,0.838,2.135c0,1.4-0.556,2.465-1.67,3.196
			c-1.115,0.732-2.742,1.099-4.884,1.099c-1.702,0-3.046-0.333-4.035-1c-0.987-0.668-1.481-1.566-1.481-2.698
			c0-0.722,0.211-1.305,0.633-1.747c0.421-0.444,0.971-0.666,1.649-0.666c0.563,0,1.031,0.177,1.406,0.529
			c0.375,0.354,0.563,0.799,0.563,1.332c0,0.49-0.162,0.881-0.481,1.173c-0.321,0.293-0.759,0.438-1.314,0.438
			c0.317,0.253,0.674,0.438,1.07,0.557c0.397,0.12,0.854,0.179,1.374,0.179c0.938,0,1.659-0.218,2.163-0.655
			c0.505-0.435,0.757-1.061,0.757-1.875c0-0.729-0.243-1.266-0.73-1.605C153.465,134.585,152.707,134.414,151.675,134.414z"/>
		<path d="M149.317,151.058c-0.692-0.396-1.211-0.856-1.558-1.38c-0.346-0.522-0.52-1.112-0.52-1.769
			c0-1.276,0.512-2.277,1.537-3.007c1.023-0.728,2.447-1.091,4.271-1.091c1.593,0,2.873,0.307,3.84,0.919
			c0.966,0.611,1.449,1.414,1.449,2.401c0,0.599-0.188,1.116-0.563,1.558c-0.375,0.439-0.949,0.814-1.72,1.123
			c1.017,0.361,1.777,0.859,2.282,1.493c0.504,0.636,0.757,1.406,0.757,2.314c0,1.392-0.572,2.487-1.714,3.282
			c-1.143,0.798-2.728,1.195-4.754,1.195c-1.911,0-3.381-0.34-4.412-1.022c-1.031-0.681-1.547-1.647-1.547-2.903
			c0-0.715,0.23-1.343,0.692-1.886C147.82,151.74,148.474,151.331,149.317,151.058z M151.026,152.031
			c-0.549,0.267-0.954,0.569-1.217,0.908c-0.264,0.339-0.395,0.729-0.395,1.168c0,0.684,0.279,1.229,0.838,1.633
			c0.558,0.405,1.31,0.606,2.255,0.606c1.024,0,1.778-0.145,2.266-0.433c0.486-0.289,0.73-0.736,0.73-1.342
			c0-0.381-0.261-0.736-0.784-1.066C154.196,153.18,152.965,152.688,151.026,152.031z M154.303,149.034
			c0.433-0.222,0.755-0.485,0.968-0.788c0.212-0.305,0.318-0.652,0.318-1.051c0-0.475-0.236-0.859-0.708-1.151
			c-0.473-0.292-1.108-0.438-1.909-0.438c-0.714,0-1.272,0.122-1.677,0.367c-0.403,0.245-0.605,0.589-0.605,1.027
			c0,0.649,1.096,1.295,3.288,1.938L154.303,149.034z"/>
	</g>
	<g>
		<path d="M169.76,140.546v-1.838h0.595c0.699,0,1.159-0.062,1.379-0.185c0.219-0.122,0.33-0.483,0.33-1.081v-0.087v-0.908h-6.446
			v-2.12l6.89-7.268h3.342v7.44h2.152v1.947h-2.152v1.33c0,0.375,0.099,0.624,0.297,0.746c0.199,0.123,0.623,0.185,1.271,0.185
			h0.584v1.838H169.76z M167.835,134.5h4.229l0.043-4.347L167.835,134.5z"/>
		<path d="M169.76,157.719v-1.838h0.595c0.699,0,1.159-0.062,1.379-0.184c0.219-0.123,0.33-0.483,0.33-1.081v-0.087v-0.909h-6.446
			v-2.12l6.89-7.268h3.342v7.442h2.152v1.945h-2.152v1.331c0,0.374,0.099,0.623,0.297,0.746c0.199,0.122,0.623,0.184,1.271,0.184
			h0.584v1.838H169.76z M167.835,151.675h4.229l0.043-4.349L167.835,151.675z"/>
	</g>
	<g>
		<path d="M188.754,133.191c0.483-0.331,0.986-0.576,1.509-0.735c0.522-0.158,1.09-0.238,1.704-0.238
			c1.449,0,2.597,0.384,3.444,1.147c0.849,0.765,1.272,1.799,1.272,3.104c0,1.326-0.522,2.405-1.564,3.233
			c-1.041,0.83-2.403,1.244-4.082,1.244c-1.968,0-3.52-0.604-4.656-1.811c-1.136-1.209-1.704-2.865-1.704-4.971
			c0-2.322,0.604-4.149,1.812-5.482c1.208-1.335,2.872-2.002,4.991-2.002c1.428,0,2.567,0.27,3.417,0.806
			c0.852,0.537,1.277,1.242,1.277,2.114c0,0.563-0.192,1.021-0.578,1.373c-0.387,0.354-0.886,0.53-1.498,0.53
			c-0.592,0-1.067-0.151-1.423-0.454c-0.356-0.303-0.535-0.702-0.535-1.2c0-0.289,0.073-0.538,0.216-0.747
			c0.145-0.209,0.359-0.381,0.648-0.519c-0.194-0.072-0.386-0.126-0.573-0.162c-0.188-0.035-0.365-0.054-0.529-0.054
			c-1.033,0-1.814,0.385-2.349,1.157c-0.533,0.771-0.8,1.903-0.8,3.396V133.191z M190.863,139.15c0.547,0,0.983-0.213,1.31-0.638
			c0.323-0.425,0.485-1.002,0.485-1.729c0-0.859-0.16-1.521-0.48-1.986c-0.322-0.463-0.773-0.696-1.358-0.696
			c-0.556,0-1.009,0.229-1.363,0.687c-0.352,0.458-0.529,1.054-0.529,1.789c0,0.829,0.168,1.467,0.504,1.909
			C189.766,138.93,190.243,139.15,190.863,139.15z"/>
		<path d="M187.088,151.058c-0.692-0.396-1.211-0.856-1.558-1.38c-0.346-0.522-0.519-1.112-0.519-1.769
			c0-1.276,0.512-2.277,1.536-3.007c1.023-0.728,2.447-1.091,4.271-1.091c1.594,0,2.874,0.307,3.841,0.919
			c0.965,0.611,1.448,1.414,1.448,2.401c0,0.599-0.188,1.116-0.563,1.558c-0.375,0.439-0.948,0.814-1.72,1.123
			c1.017,0.361,1.778,0.859,2.283,1.493c0.505,0.636,0.757,1.406,0.757,2.314c0,1.392-0.572,2.487-1.715,3.282
			c-1.142,0.798-2.728,1.195-4.753,1.195c-1.911,0-3.381-0.34-4.412-1.022c-1.031-0.681-1.547-1.647-1.547-2.903
			c0-0.715,0.231-1.343,0.692-1.886C185.592,151.74,186.245,151.331,187.088,151.058z M188.798,152.031
			c-0.549,0.267-0.953,0.569-1.217,0.908c-0.263,0.339-0.394,0.729-0.394,1.168c0,0.684,0.279,1.229,0.838,1.633
			c0.558,0.405,1.31,0.606,2.254,0.606c1.023,0,1.779-0.145,2.266-0.433c0.486-0.289,0.73-0.736,0.73-1.342
			c0-0.381-0.261-0.736-0.783-1.066C191.968,153.18,190.737,152.688,188.798,152.031z M192.074,149.034
			c0.433-0.222,0.755-0.485,0.967-0.788c0.214-0.305,0.32-0.652,0.32-1.051c0-0.475-0.237-0.859-0.709-1.151
			s-1.108-0.438-1.908-0.438c-0.714,0-1.273,0.122-1.677,0.367c-0.405,0.245-0.606,0.589-0.606,1.027
			c0,0.649,1.096,1.295,3.287,1.938L192.074,149.034z"/>
	</g>
	<g>
		<path d="M211.489,134.414c-0.49,0.339-0.998,0.59-1.524,0.752c-0.526,0.161-1.095,0.243-1.71,0.243
			c-1.441,0-2.587-0.383-3.438-1.147c-0.852-0.763-1.277-1.799-1.277-3.104c0-1.342,0.521-2.426,1.563-3.255
			c1.043-0.829,2.404-1.244,4.084-1.244c1.975,0,3.529,0.604,4.661,1.813c1.132,1.206,1.696,2.863,1.696,4.969
			c0,2.328-0.604,4.161-1.814,5.499s-2.874,2.007-4.986,2.007c-1.42,0-2.559-0.272-3.412-0.815
			c-0.854-0.545-1.281-1.257-1.281-2.137c0-0.556,0.193-1.012,0.584-1.368c0.389-0.357,0.896-0.535,1.525-0.535
			c0.582,0,1.049,0.154,1.4,0.464c0.35,0.311,0.523,0.718,0.523,1.223c0,0.282-0.07,0.524-0.211,0.729
			c-0.141,0.206-0.359,0.377-0.654,0.514c0.231,0.08,0.435,0.139,0.611,0.179c0.176,0.041,0.346,0.06,0.503,0.06
			c1.03,0,1.815-0.389,2.352-1.168c0.538-0.777,0.806-1.919,0.806-3.418V134.414z M209.371,128.455c-0.55,0-0.984,0.212-1.31,0.637
			c-0.324,0.427-0.487,1.003-0.487,1.731c0,0.857,0.161,1.523,0.483,1.994c0.318,0.473,0.773,0.709,1.355,0.709
			c0.556,0,1.012-0.233,1.369-0.703c0.355-0.469,0.534-1.07,0.534-1.806c0-0.815-0.169-1.444-0.508-1.893
			C210.47,128.679,209.989,128.455,209.371,128.455z"/>
		<path d="M205.974,151.058c-0.691-0.396-1.211-0.856-1.557-1.38c-0.346-0.522-0.52-1.112-0.52-1.769
			c0-1.276,0.512-2.277,1.536-3.007c1.023-0.728,2.446-1.091,4.272-1.091c1.592,0,2.873,0.307,3.84,0.919
			c0.966,0.611,1.449,1.414,1.449,2.401c0,0.599-0.188,1.116-0.563,1.558c-0.375,0.439-0.949,0.814-1.721,1.123
			c1.018,0.361,1.777,0.859,2.283,1.493c0.504,0.636,0.758,1.406,0.758,2.314c0,1.392-0.572,2.487-1.717,3.282
			c-1.142,0.798-2.727,1.195-4.752,1.195c-1.912,0-3.382-0.34-4.413-1.022c-1.031-0.681-1.547-1.647-1.547-2.903
			c0-0.715,0.23-1.343,0.692-1.886C204.478,151.74,205.13,151.331,205.974,151.058z M207.684,152.031
			c-0.548,0.267-0.954,0.569-1.218,0.908c-0.263,0.339-0.395,0.729-0.395,1.168c0,0.684,0.279,1.229,0.838,1.633
			c0.559,0.405,1.311,0.606,2.256,0.606c1.023,0,1.779-0.145,2.266-0.433c0.486-0.289,0.729-0.736,0.729-1.342
			c0-0.381-0.261-0.736-0.784-1.066C210.854,153.18,209.622,152.688,207.684,152.031z M210.96,149.034
			c0.434-0.222,0.756-0.485,0.969-0.788c0.212-0.305,0.318-0.652,0.318-1.051c0-0.475-0.235-0.859-0.709-1.151
			c-0.472-0.292-1.107-0.438-1.908-0.438c-0.713,0-1.273,0.122-1.677,0.367s-0.605,0.589-0.605,1.027
			c0,0.649,1.095,1.295,3.288,1.938L210.96,149.034z"/>
	</g>
	<g>
		<g>
			<path d="M316.062,270.709l5.296-0.895h0.96l-0.721,2.607c1.121-1.023,2.038-1.715,2.752-2.072
				c0.715-0.355,1.424-0.535,2.129-0.535c1.002,0,1.775,0.387,2.319,1.16c0.543,0.773,0.816,1.719,0.816,2.84
				c0,3.061-1.062,5.775-3.185,8.145c-1.877,2.09-3.924,3.135-6.143,3.135c-0.396,0-0.732-0.039-1.009-0.113
				c-0.277-0.074-0.667-0.24-1.167-0.496l-0.833,2.879c-0.298,1.047-0.447,1.84-0.447,2.387c0,0.34,0.117,0.607,0.352,0.807
				c0.234,0.195,0.783,0.365,1.648,0.502l-0.145,0.592h-8.607l0.16-0.592c0.683-0.02,1.25-0.238,1.704-0.654
				s0.877-1.311,1.271-2.688l3.904-13.455c0.287-1.002,0.431-1.711,0.431-2.127c0-0.182-0.043-0.334-0.127-0.457
				c-0.086-0.123-0.213-0.209-0.384-0.264c-0.171-0.053-0.556-0.08-1.152-0.08L316.062,270.709z M318.558,282.996
				c0.319,0.523,0.608,0.873,0.864,1.049s0.554,0.264,0.896,0.264c0.341,0,0.675-0.094,1-0.279c0.325-0.188,0.728-0.563,1.208-1.129
				c0.48-0.564,0.94-1.289,1.384-2.174c0.442-0.887,0.798-1.893,1.064-3.018c0.266-1.125,0.399-2.199,0.399-3.225
				c0-0.82-0.146-1.418-0.44-1.791c-0.293-0.373-0.647-0.559-1.063-0.559c-0.373,0-0.726,0.096-1.056,0.287
				c-0.48,0.277-1.046,0.795-1.697,1.551L318.558,282.996z"/>
			<path d="M331.141,270.709l5.295-0.895h0.961l-0.721,2.607c1.12-1.023,2.037-1.715,2.752-2.072
				c0.714-0.355,1.425-0.535,2.128-0.535c1.002,0,1.775,0.387,2.32,1.16c0.544,0.773,0.815,1.719,0.815,2.84
				c0,3.061-1.062,5.775-3.184,8.145c-1.877,2.09-3.926,3.135-6.144,3.135c-0.395,0-0.731-0.039-1.008-0.113
				c-0.277-0.074-0.666-0.24-1.169-0.496l-0.831,2.879c-0.298,1.047-0.447,1.84-0.447,2.387c0,0.34,0.117,0.607,0.352,0.807
				c0.234,0.195,0.783,0.365,1.648,0.502l-0.145,0.592h-8.607l0.16-0.592c0.683-0.02,1.251-0.238,1.703-0.654
				c0.454-0.416,0.879-1.311,1.271-2.688l3.905-13.455c0.287-1.002,0.432-1.711,0.432-2.127c0-0.182-0.043-0.334-0.128-0.457
				c-0.086-0.123-0.213-0.209-0.385-0.264c-0.17-0.053-0.554-0.08-1.151-0.08L331.141,270.709z M333.637,282.996
				c0.319,0.523,0.608,0.873,0.863,1.049c0.257,0.176,0.555,0.264,0.896,0.264c0.341,0,0.674-0.094,1-0.279
				c0.325-0.188,0.729-0.563,1.208-1.129c0.479-0.564,0.941-1.289,1.384-2.174c0.442-0.887,0.797-1.893,1.063-3.018
				s0.4-2.199,0.4-3.225c0-0.82-0.146-1.418-0.44-1.791c-0.293-0.373-0.647-0.559-1.063-0.559c-0.373,0-0.726,0.096-1.057,0.287
				c-0.479,0.277-1.045,0.795-1.695,1.551L333.637,282.996z"/>
			<path d="M346.872,270.709l5.296-0.895h0.959l-0.72,2.607c1.119-1.023,2.037-1.715,2.752-2.072
				c0.714-0.355,1.424-0.535,2.127-0.535c1.003,0,1.776,0.387,2.32,1.16c0.545,0.773,0.816,1.719,0.816,2.84
				c0,3.061-1.062,5.775-3.185,8.145c-1.877,2.09-3.925,3.135-6.143,3.135c-0.396,0-0.731-0.039-1.009-0.113
				c-0.276-0.074-0.666-0.24-1.168-0.496l-0.832,2.879c-0.298,1.047-0.447,1.84-0.447,2.387c0,0.34,0.117,0.607,0.352,0.807
				c0.235,0.195,0.785,0.365,1.648,0.502l-0.145,0.592h-8.606l0.16-0.592c0.682-0.02,1.251-0.238,1.704-0.654
				c0.452-0.416,0.877-1.311,1.271-2.688l3.904-13.455c0.288-1.002,0.432-1.711,0.432-2.127c0-0.182-0.042-0.334-0.129-0.457
				c-0.084-0.123-0.213-0.209-0.383-0.264c-0.171-0.053-0.555-0.08-1.151-0.08L346.872,270.709z M349.368,282.996
				c0.319,0.523,0.606,0.873,0.863,1.049c0.256,0.176,0.555,0.264,0.896,0.264c0.342,0,0.675-0.094,1-0.279
				c0.325-0.188,0.729-0.563,1.209-1.129c0.479-0.564,0.941-1.289,1.383-2.174c0.443-0.887,0.798-1.893,1.063-3.018
				s0.4-2.199,0.4-3.225c0-0.82-0.146-1.418-0.44-1.791c-0.293-0.373-0.647-0.559-1.063-0.559c-0.373,0-0.726,0.096-1.056,0.287
				c-0.48,0.277-1.045,0.795-1.695,1.551L349.368,282.996z"/>
		</g>
		<g>
			<path d="M267.049,269.814l-2.048,6.879c1.376-2.111,2.379-3.535,3.008-4.271c0.929-1.076,1.693-1.781,2.297-2.111
				c0.603-0.33,1.208-0.496,1.815-0.496c0.693,0,1.194,0.207,1.504,0.623c0.309,0.418,0.464,0.875,0.464,1.377
				c0,0.523-0.144,1.291-0.432,2.303l-0.72,2.576c1.385-2.133,2.384-3.551,2.992-4.256c0.938-1.088,1.753-1.824,2.447-2.207
				c0.479-0.277,0.991-0.416,1.536-0.416c0.564,0,1.036,0.189,1.415,0.568s0.567,0.871,0.567,1.479c0,0.684-0.159,1.57-0.48,2.656
				l-1.774,5.967c-0.267,0.887-0.399,1.455-0.399,1.713c0,0.084,0.033,0.166,0.104,0.24c0.068,0.072,0.146,0.113,0.231,0.113
				c0.118,0,0.219-0.041,0.305-0.113c0.383-0.309,0.788-0.764,1.215-1.359c0.096-0.129,0.24-0.326,0.433-0.594l0.544,0.352
				c-0.736,1.377-1.544,2.385-2.424,3.025c-0.88,0.639-1.693,0.959-2.44,0.959c-0.65,0-1.173-0.18-1.567-0.535
				c-0.394-0.357-0.592-0.775-0.592-1.256c0-0.459,0.133-1.152,0.4-2.08l1.808-6.24c0.244-0.863,0.367-1.402,0.367-1.617
				c0-0.072-0.036-0.145-0.112-0.215c-0.074-0.068-0.148-0.104-0.224-0.104c-0.139,0-0.277,0.033-0.415,0.096
				c-0.204,0.107-0.515,0.385-0.937,0.832c-0.421,0.447-1.026,1.252-1.816,2.408c-0.789,1.158-1.335,2.061-1.64,2.713
				c-0.304,0.65-0.605,1.492-0.903,2.527l-0.977,3.297h-4.047l2.991-10.449c0.16-0.564,0.24-0.953,0.24-1.168
				c0-0.074-0.035-0.143-0.104-0.209c-0.069-0.063-0.141-0.094-0.216-0.094c-0.394,0-1.018,0.518-1.871,1.551
				c-1.302,1.6-2.485,3.525-3.552,5.775l-1.297,4.594h-4.078l3.007-10.289c0.298-1.012,0.448-1.73,0.448-2.158
				c0-0.172-0.043-0.318-0.128-0.439c-0.085-0.125-0.225-0.219-0.416-0.289c-0.191-0.068-0.561-0.105-1.104-0.105l0.159-0.607
				l5.456-0.943H267.049z"/>
			<path d="M284.513,270.709l5.296-0.895h0.959l-0.72,2.607c1.12-1.023,2.037-1.715,2.752-2.072
				c0.715-0.355,1.424-0.535,2.127-0.535c1.002,0,1.776,0.387,2.32,1.16c0.545,0.773,0.816,1.719,0.816,2.84
				c0,3.061-1.063,5.775-3.184,8.145c-1.877,2.09-3.927,3.135-6.144,3.135c-0.396,0-0.731-0.039-1.008-0.113
				c-0.278-0.074-0.667-0.24-1.169-0.496l-0.832,2.879c-0.299,1.047-0.447,1.84-0.447,2.387c0,0.34,0.117,0.607,0.352,0.807
				c0.235,0.195,0.785,0.365,1.648,0.502l-0.145,0.592h-8.606l0.16-0.592c0.682-0.02,1.251-0.238,1.703-0.654
				c0.453-0.416,0.878-1.311,1.271-2.688l3.904-13.455c0.288-1.002,0.433-1.711,0.433-2.127c0-0.182-0.043-0.334-0.129-0.457
				c-0.085-0.123-0.214-0.209-0.384-0.264c-0.171-0.053-0.555-0.08-1.152-0.08L284.513,270.709z M287.009,282.996
				c0.319,0.523,0.607,0.873,0.863,1.049s0.555,0.264,0.896,0.264c0.342,0,0.675-0.094,1-0.279c0.325-0.188,0.729-0.563,1.209-1.129
				c0.479-0.564,0.94-1.289,1.384-2.174c0.441-0.887,0.796-1.893,1.063-3.018c0.266-1.125,0.4-2.199,0.4-3.225
				c0-0.82-0.147-1.418-0.441-1.791c-0.293-0.373-0.647-0.559-1.063-0.559c-0.373,0-0.727,0.096-1.057,0.287
				c-0.479,0.277-1.046,0.795-1.695,1.551L287.009,282.996z"/>
		</g>
		<g>
			<path d="M132.006,270.369l-2.047,6.879c1.375-2.111,2.378-3.537,3.008-4.271c0.928-1.076,1.693-1.781,2.295-2.111
				c0.604-0.33,1.208-0.496,1.816-0.496c0.693,0,1.194,0.207,1.504,0.623c0.309,0.416,0.464,0.875,0.464,1.377
				c0,0.523-0.144,1.291-0.432,2.305l-0.719,2.574c1.386-2.133,2.383-3.551,2.991-4.256c0.938-1.088,1.754-1.824,2.448-2.209
				c0.48-0.275,0.992-0.414,1.536-0.414c0.565,0,1.037,0.189,1.416,0.568c0.379,0.377,0.568,0.871,0.568,1.479
				c0,0.684-0.16,1.568-0.48,2.656l-1.775,5.967c-0.267,0.887-0.4,1.455-0.4,1.713c0,0.084,0.034,0.164,0.104,0.24
				c0.069,0.074,0.147,0.111,0.232,0.111c0.117,0,0.218-0.037,0.304-0.111c0.384-0.309,0.789-0.764,1.216-1.359
				c0.095-0.129,0.239-0.326,0.431-0.594l0.544,0.352c-0.736,1.377-1.543,2.385-2.423,3.023c-0.88,0.641-1.694,0.963-2.44,0.963
				c-0.651,0-1.173-0.18-1.568-0.537s-0.591-0.777-0.591-1.256c0-0.459,0.132-1.152,0.399-2.08l1.809-6.24
				c0.245-0.863,0.368-1.402,0.368-1.615c0-0.074-0.038-0.146-0.112-0.217c-0.075-0.068-0.15-0.104-0.224-0.104
				c-0.139,0-0.278,0.033-0.417,0.096c-0.203,0.107-0.515,0.385-0.936,0.832s-1.026,1.252-1.815,2.408
				c-0.79,1.158-1.336,2.061-1.64,2.711c-0.304,0.652-0.605,1.494-0.904,2.529l-0.976,3.295h-4.047l2.991-10.447
				c0.16-0.564,0.24-0.953,0.24-1.168c0-0.074-0.034-0.145-0.104-0.209c-0.069-0.063-0.142-0.094-0.216-0.094
				c-0.395,0-1.019,0.518-1.872,1.551c-1.302,1.6-2.485,3.525-3.552,5.775l-1.295,4.592h-4.08l3.007-10.287
				c0.298-1.014,0.448-1.732,0.448-2.16c0-0.17-0.042-0.316-0.127-0.439s-0.224-0.219-0.417-0.287
				c-0.191-0.07-0.559-0.105-1.103-0.105l0.16-0.607l5.456-0.943H132.006z"/>
			<path d="M156.061,272.689l-1.872,7.391c-0.875,3.486-1.728,6.016-2.56,7.582c-0.832,1.57-1.806,2.729-2.92,3.48
				c-1.115,0.752-2.391,1.129-3.832,1.129c-0.906,0-1.573-0.174-1.999-0.52c-0.426-0.348-0.641-0.754-0.641-1.225
				c0-0.438,0.176-0.816,0.529-1.137c0.352-0.32,0.815-0.479,1.392-0.479c0.48,0,0.848,0.121,1.104,0.365
				c0.256,0.246,0.384,0.557,0.384,0.93c0,0.342-0.08,0.594-0.239,0.76c-0.16,0.164-0.24,0.273-0.24,0.328l0.081,0.111
				c0.063,0.055,0.138,0.08,0.223,0.08c0.321,0,0.593-0.1,0.816-0.303c0.565-0.504,0.986-1.111,1.264-1.824
				c0.191-0.49,0.56-1.787,1.104-3.889l3.264-12.781h-2.224l0.528-1.873c0.8,0.01,1.381-0.09,1.744-0.303s0.747-0.693,1.152-1.441
				c1.173-2.164,2.411-3.717,3.711-4.654c1.301-0.939,2.752-1.408,4.351-1.408c1.024,0,1.769,0.197,2.232,0.592
				c0.463,0.395,0.696,0.906,0.696,1.537c0,0.553-0.154,0.994-0.464,1.318c-0.31,0.326-0.694,0.488-1.152,0.488
				c-0.427,0-0.778-0.133-1.056-0.4c-0.278-0.266-0.417-0.586-0.417-0.959c0-0.268,0.088-0.549,0.264-0.85
				c0.176-0.297,0.264-0.5,0.264-0.607c0-0.117-0.04-0.213-0.12-0.287c-0.08-0.074-0.183-0.111-0.312-0.111
				c-0.629,0-1.274,0.389-1.936,1.168c-1.088,1.246-1.963,3.221-2.624,5.918h2.32l-0.56,1.873H156.061z"/>
		</g>
		<g>
			<path d="M181.717,272.689l-1.871,7.391c-0.875,3.486-1.729,6.016-2.561,7.582c-0.832,1.57-1.805,2.729-2.92,3.48
				c-1.114,0.752-2.392,1.129-3.831,1.129c-0.907,0-1.573-0.174-2-0.52c-0.426-0.348-0.64-0.754-0.64-1.225
				c0-0.438,0.176-0.816,0.528-1.137c0.352-0.32,0.815-0.479,1.392-0.479c0.479,0,0.848,0.121,1.104,0.365
				c0.255,0.246,0.383,0.557,0.383,0.93c0,0.342-0.08,0.594-0.24,0.76c-0.16,0.164-0.24,0.273-0.24,0.328l0.08,0.111
				c0.064,0.055,0.139,0.08,0.225,0.08c0.319,0,0.591-0.1,0.815-0.303c0.565-0.504,0.987-1.111,1.264-1.824
				c0.192-0.49,0.56-1.787,1.104-3.889l3.264-12.781h-2.224l0.527-1.873c0.8,0.01,1.381-0.09,1.744-0.303
				c0.362-0.213,0.746-0.693,1.152-1.441c1.173-2.164,2.41-3.717,3.711-4.654c1.301-0.939,2.752-1.408,4.352-1.408
				c1.024,0,1.768,0.197,2.231,0.592c0.464,0.395,0.696,0.906,0.696,1.537c0,0.553-0.154,0.994-0.463,1.318
				c-0.31,0.326-0.693,0.488-1.151,0.488c-0.427,0-0.779-0.133-1.056-0.4c-0.278-0.266-0.416-0.586-0.416-0.959
				c0-0.268,0.088-0.549,0.264-0.85c0.176-0.297,0.264-0.5,0.264-0.607c0-0.117-0.04-0.213-0.12-0.287s-0.184-0.111-0.313-0.111
				c-0.629,0-1.274,0.389-1.936,1.168c-1.088,1.246-1.962,3.221-2.624,5.918h2.32l-0.56,1.873H181.717z"/>
			<path d="M196.408,270.816l-9.087,10.736c0.683,0.201,1.189,0.506,1.52,0.91c0.427,0.535,0.737,1.33,0.928,2.393
				c0.193,1.061,0.411,1.732,0.657,2.018c0.245,0.281,0.496,0.422,0.752,0.422c0.17,0,0.331-0.078,0.48-0.23
				c0.149-0.156,0.224-0.328,0.224-0.52c0-0.205-0.064-0.535-0.192-0.994c-0.085-0.309-0.127-0.607-0.127-0.895
				c0-0.598,0.189-1.1,0.568-1.504c0.378-0.406,0.834-0.607,1.367-0.607c0.48,0,0.882,0.178,1.208,0.535
				c0.325,0.355,0.488,0.824,0.488,1.4c0,0.885-0.405,1.688-1.216,2.414c-0.811,0.725-1.807,1.088-2.992,1.088
				c-1.365,0-2.703-0.629-4.015-1.887c-0.534-0.502-0.966-0.844-1.296-1.025c-0.191-0.096-0.438-0.143-0.736-0.143
				c-0.256,0-0.539,0.092-0.848,0.271h-1.024l9.279-11.008h-3.328c-0.95,0-1.634,0.119-2.056,0.354
				c-0.421,0.234-0.819,0.693-1.191,1.375h-0.688l1.328-5.104H196.408z"/>
		</g>
		<g>
			<path d="M86.415,272.689l-1.872,7.391c-0.875,3.486-1.728,6.016-2.56,7.582c-0.832,1.57-1.805,2.729-2.92,3.48
				s-2.392,1.129-3.831,1.129c-0.907,0-1.574-0.174-2-0.52c-0.427-0.348-0.64-0.754-0.64-1.225c0-0.438,0.176-0.816,0.528-1.137
				c0.352-0.32,0.815-0.479,1.392-0.479c0.48,0,0.848,0.121,1.104,0.365c0.256,0.246,0.384,0.557,0.384,0.93
				c0,0.342-0.08,0.594-0.24,0.76c-0.16,0.164-0.24,0.273-0.24,0.328l0.081,0.111c0.063,0.055,0.138,0.08,0.224,0.08
				c0.321,0,0.592-0.1,0.816-0.303c0.565-0.504,0.987-1.111,1.264-1.824c0.191-0.49,0.561-1.787,1.104-3.889l3.264-12.781h-2.224
				l0.528-1.873c0.8,0.01,1.381-0.09,1.744-0.303c0.362-0.213,0.747-0.693,1.152-1.441c1.173-2.164,2.411-3.717,3.711-4.654
				c1.302-0.939,2.752-1.408,4.352-1.408c1.023,0,1.768,0.197,2.231,0.592c0.464,0.395,0.696,0.906,0.696,1.537
				c0,0.553-0.155,0.994-0.464,1.318c-0.31,0.326-0.694,0.488-1.152,0.488c-0.427,0-0.779-0.133-1.056-0.4
				c-0.277-0.266-0.416-0.586-0.416-0.959c0-0.268,0.088-0.549,0.264-0.85c0.176-0.297,0.264-0.5,0.264-0.607
				c0-0.117-0.04-0.213-0.12-0.287c-0.08-0.074-0.184-0.111-0.312-0.111c-0.63,0-1.275,0.389-1.936,1.168
				c-1.088,1.246-1.963,3.221-2.624,5.918h2.319l-0.561,1.873H86.415z"/>
			<path d="M96.083,272.689l-1.873,7.391c-0.875,3.486-1.728,6.016-2.56,7.582c-0.832,1.57-1.805,2.729-2.919,3.48
				s-2.392,1.129-3.832,1.129c-0.906,0-1.573-0.174-2-0.52c-0.427-0.348-0.64-0.754-0.64-1.225c0-0.438,0.176-0.816,0.528-1.137
				s0.815-0.479,1.392-0.479c0.479,0,0.847,0.121,1.104,0.365c0.255,0.246,0.384,0.557,0.384,0.93c0,0.342-0.08,0.594-0.241,0.76
				c-0.159,0.164-0.24,0.273-0.24,0.328l0.081,0.111c0.064,0.055,0.139,0.08,0.224,0.08c0.32,0,0.591-0.1,0.816-0.303
				c0.565-0.504,0.986-1.111,1.264-1.824c0.191-0.49,0.56-1.787,1.104-3.889l3.263-12.781h-2.223l0.527-1.873
				c0.801,0.01,1.382-0.09,1.744-0.303c0.363-0.213,0.747-0.693,1.151-1.441c1.173-2.164,2.411-3.717,3.712-4.654
				c1.302-0.939,2.752-1.408,4.352-1.408c1.023,0,1.768,0.197,2.231,0.592c0.464,0.395,0.697,0.906,0.697,1.537
				c0,0.553-0.155,0.994-0.465,1.318c-0.31,0.326-0.693,0.488-1.152,0.488c-0.427,0-0.779-0.133-1.055-0.4
				c-0.278-0.266-0.417-0.586-0.417-0.959c0-0.268,0.088-0.549,0.264-0.85c0.176-0.297,0.264-0.5,0.264-0.607
				c0-0.117-0.04-0.213-0.12-0.287c-0.08-0.074-0.185-0.111-0.313-0.111c-0.629,0-1.274,0.389-1.936,1.168
				c-1.088,1.246-1.962,3.221-2.624,5.918h2.32l-0.56,1.873H96.083z"/>
			<path d="M106.4,272.689l-1.872,7.391c-0.875,3.486-1.728,6.016-2.56,7.582c-0.833,1.57-1.806,2.729-2.92,3.48
				s-2.391,1.129-3.832,1.129c-0.907,0-1.573-0.174-2-0.52c-0.426-0.348-0.64-0.754-0.64-1.225c0-0.438,0.176-0.816,0.528-1.137
				c0.353-0.32,0.815-0.479,1.392-0.479c0.48,0,0.848,0.121,1.104,0.365c0.256,0.246,0.383,0.557,0.383,0.93
				c0,0.342-0.079,0.594-0.24,0.76c-0.159,0.164-0.24,0.273-0.24,0.328l0.081,0.111c0.063,0.055,0.139,0.08,0.224,0.08
				c0.319,0,0.592-0.1,0.816-0.303c0.565-0.504,0.986-1.111,1.264-1.824c0.191-0.49,0.56-1.787,1.104-3.889l3.263-12.781h-2.223
				l0.527-1.873c0.8,0.01,1.382-0.09,1.744-0.303c0.363-0.213,0.747-0.693,1.152-1.441c1.173-2.164,2.41-3.717,3.712-4.654
				c1.301-0.939,2.752-1.408,4.351-1.408c1.024,0,1.768,0.197,2.232,0.592c0.464,0.395,0.696,0.906,0.696,1.537
				c0,0.553-0.154,0.994-0.463,1.318c-0.311,0.326-0.694,0.488-1.152,0.488c-0.426,0-0.778-0.133-1.055-0.4
				c-0.278-0.266-0.417-0.586-0.417-0.959c0-0.268,0.088-0.549,0.264-0.85c0.176-0.297,0.264-0.5,0.264-0.607
				c0-0.117-0.04-0.213-0.12-0.287c-0.08-0.074-0.185-0.111-0.312-0.111c-0.629,0-1.275,0.389-1.937,1.168
				c-1.087,1.246-1.962,3.221-2.624,5.918h2.321l-0.561,1.873H106.4z"/>
		</g>
		<g>
			<path d="M222.565,270.369l-0.705,4.943h-0.592c-0.085-1.281-0.478-2.289-1.176-3.023c-0.699-0.736-1.447-1.104-2.248-1.104
				c-0.49,0-0.896,0.143-1.215,0.432c-0.32,0.287-0.48,0.633-0.48,1.039c0,0.344,0.069,0.662,0.208,0.961
				c0.138,0.299,0.448,0.703,0.927,1.215c1.686,1.814,2.709,3.063,3.072,3.744c0.363,0.684,0.543,1.414,0.543,2.191
				c0,0.844-0.213,1.641-0.639,2.391c-0.428,0.754-1.064,1.355-1.912,1.811c-0.847,0.451-1.731,0.68-2.648,0.68
				c-0.619,0-1.381-0.123-2.287-0.369c-0.598-0.17-1.045-0.256-1.343-0.256c-0.267,0-0.476,0.039-0.625,0.119
				s-0.315,0.248-0.497,0.506h-0.592l0.785-5.33h0.512c0.373,1.293,0.723,2.211,1.047,2.762c0.326,0.549,0.762,0.986,1.305,1.311
				c0.545,0.326,1.066,0.49,1.568,0.49c0.585,0,1.071-0.186,1.456-0.553c0.382-0.367,0.575-0.809,0.575-1.32
				c0-0.502-0.125-0.986-0.375-1.455c-0.252-0.471-0.83-1.201-1.737-2.193c-1.247-1.354-2.069-2.4-2.463-3.135
				c-0.278-0.533-0.417-1.143-0.417-1.824c0-1.152,0.42-2.111,1.258-2.879c0.837-0.77,2.012-1.152,3.526-1.152
				c0.661,0,1.472,0.117,2.433,0.352c0.479,0.117,0.863,0.176,1.15,0.176c0.417,0,0.754-0.176,1.009-0.527H222.565z"/>
			<path d="M230.396,272.689l-1.872,7.391c-0.875,3.486-1.729,6.016-2.559,7.582c-0.834,1.57-1.808,2.729-2.92,3.48
				c-1.116,0.752-2.393,1.129-3.833,1.129c-0.905,0-1.571-0.174-1.999-0.52c-0.428-0.348-0.641-0.754-0.641-1.225
				c0-0.438,0.176-0.816,0.527-1.137c0.354-0.32,0.816-0.479,1.394-0.479c0.48,0,0.847,0.121,1.104,0.365
				c0.254,0.246,0.383,0.557,0.383,0.93c0,0.342-0.08,0.594-0.24,0.76c-0.16,0.164-0.24,0.273-0.24,0.328l0.08,0.111
				c0.064,0.055,0.139,0.08,0.226,0.08c0.318,0,0.591-0.1,0.815-0.303c0.564-0.504,0.986-1.111,1.264-1.824
				c0.191-0.49,0.559-1.787,1.104-3.889l3.264-12.781h-2.225l0.529-1.873c0.799,0.01,1.381-0.09,1.744-0.303
				c0.361-0.213,0.745-0.693,1.15-1.441c1.174-2.164,2.41-3.717,3.713-4.654c1.3-0.939,2.751-1.408,4.352-1.408
				c1.022,0,1.768,0.197,2.23,0.592c0.465,0.395,0.696,0.906,0.696,1.537c0,0.553-0.154,0.994-0.464,1.318
				c-0.31,0.326-0.694,0.488-1.152,0.488c-0.427,0-0.779-0.133-1.055-0.4c-0.278-0.266-0.416-0.586-0.416-0.959
				c0-0.268,0.086-0.549,0.264-0.85c0.176-0.297,0.264-0.5,0.264-0.607c0-0.117-0.039-0.213-0.121-0.287
				c-0.078-0.074-0.183-0.111-0.311-0.111c-0.63,0-1.275,0.389-1.936,1.168c-1.088,1.246-1.964,3.221-2.625,5.918h2.32l-0.56,1.873
				H230.396z"/>
			<path d="M245.087,270.816L236,281.553c0.683,0.201,1.188,0.506,1.521,0.91c0.426,0.535,0.734,1.33,0.928,2.393
				c0.189,1.061,0.41,1.732,0.654,2.018c0.246,0.281,0.498,0.422,0.752,0.422c0.173,0,0.332-0.078,0.48-0.23
				c0.15-0.156,0.224-0.328,0.224-0.52c0-0.205-0.063-0.535-0.191-0.994c-0.087-0.309-0.128-0.607-0.128-0.895
				c0-0.598,0.189-1.1,0.567-1.504c0.379-0.406,0.835-0.607,1.37-0.607c0.479,0,0.881,0.178,1.206,0.535
				c0.326,0.355,0.489,0.824,0.489,1.4c0,0.885-0.406,1.688-1.217,2.414c-0.812,0.725-1.809,1.088-2.99,1.088
				c-1.367,0-2.706-0.629-4.018-1.887c-0.533-0.502-0.966-0.844-1.295-1.025c-0.193-0.096-0.438-0.143-0.736-0.143
				c-0.258,0-0.539,0.092-0.848,0.271h-1.025l9.281-11.008h-3.33c-0.948,0-1.633,0.119-2.054,0.354
				c-0.423,0.234-0.819,0.693-1.194,1.375h-0.688l1.329-5.104H245.087z"/>
		</g>
		<g>
			<path d="M49.245,272.689l-1.871,7.391c-0.876,3.486-1.729,6.016-2.561,7.582c-0.832,1.57-1.805,2.729-2.919,3.48
				c-1.115,0.752-2.392,1.129-3.831,1.129c-0.908,0-1.574-0.174-2.001-0.52c-0.426-0.348-0.639-0.754-0.639-1.225
				c0-0.438,0.175-0.816,0.528-1.137s0.815-0.479,1.392-0.479c0.479,0,0.847,0.121,1.103,0.365c0.256,0.246,0.384,0.557,0.384,0.93
				c0,0.342-0.08,0.594-0.24,0.76c-0.159,0.164-0.239,0.273-0.239,0.328l0.08,0.111c0.063,0.055,0.138,0.08,0.224,0.08
				c0.319,0,0.591-0.1,0.815-0.303c0.565-0.504,0.987-1.111,1.265-1.824c0.191-0.49,0.56-1.787,1.103-3.889l3.265-12.781h-2.224
				l0.528-1.873c0.799,0.01,1.381-0.09,1.743-0.303c0.362-0.213,0.746-0.693,1.153-1.441c1.173-2.164,2.41-3.717,3.71-4.654
				c1.301-0.939,2.752-1.408,4.353-1.408c1.024,0,1.767,0.197,2.231,0.592c0.465,0.395,0.696,0.906,0.696,1.537
				c0,0.553-0.155,0.994-0.464,1.318c-0.31,0.326-0.694,0.488-1.152,0.488c-0.427,0-0.778-0.133-1.056-0.4
				c-0.278-0.266-0.416-0.586-0.416-0.959c0-0.268,0.088-0.549,0.264-0.85c0.175-0.297,0.265-0.5,0.265-0.607
				c0-0.117-0.04-0.213-0.121-0.287c-0.081-0.074-0.184-0.111-0.312-0.111c-0.629,0-1.275,0.389-1.936,1.168
				c-1.088,1.246-1.962,3.221-2.624,5.918h2.32l-0.56,1.873H49.245z"/>
			<path d="M58.913,272.689l-1.873,7.391c-0.875,3.486-1.727,6.016-2.56,7.582c-0.833,1.57-1.806,2.729-2.92,3.48
				c-1.114,0.752-2.391,1.129-3.831,1.129c-0.907,0-1.573-0.174-2-0.52c-0.426-0.348-0.639-0.754-0.639-1.225
				c0-0.438,0.175-0.816,0.527-1.137c0.353-0.32,0.816-0.479,1.392-0.479c0.481,0,0.847,0.121,1.104,0.365
				c0.255,0.246,0.384,0.557,0.384,0.93c0,0.342-0.08,0.594-0.241,0.76c-0.16,0.164-0.24,0.273-0.24,0.328l0.08,0.111
				c0.063,0.055,0.139,0.08,0.225,0.08c0.319,0,0.591-0.1,0.815-0.303c0.565-0.504,0.987-1.111,1.265-1.824
				c0.191-0.49,0.559-1.787,1.103-3.889l3.264-12.781h-2.224l0.528-1.873c0.8,0.01,1.382-0.09,1.744-0.303s0.746-0.693,1.151-1.441
				c1.174-2.164,2.411-3.717,3.712-4.654c1.301-0.939,2.752-1.408,4.352-1.408c1.023,0,1.768,0.197,2.233,0.592
				c0.463,0.395,0.696,0.906,0.696,1.537c0,0.553-0.155,0.994-0.464,1.318c-0.31,0.326-0.693,0.488-1.152,0.488
				c-0.427,0-0.778-0.133-1.056-0.4c-0.278-0.266-0.416-0.586-0.416-0.959c0-0.268,0.087-0.549,0.264-0.85
				c0.176-0.297,0.264-0.5,0.264-0.607c0-0.117-0.04-0.213-0.121-0.287c-0.08-0.074-0.184-0.111-0.312-0.111
				c-0.629,0-1.274,0.389-1.935,1.168c-1.088,1.246-1.962,3.221-2.625,5.918h2.32l-0.561,1.873H58.913z"/>
		</g>
	</g>
</g>
</svg>
