<?xml version="1.0" encoding="UTF-8" standalone="no"?>
<!-- Generator: Adobe Illustrator 15.1.0, SVG Export Plug-In . SVG Version: 6.00 Build 0)  -->

<svg
   xmlns:dc="http://purl.org/dc/elements/1.1/"
   xmlns:cc="http://creativecommons.org/ns#"
   xmlns:rdf="http://www.w3.org/1999/02/22-rdf-syntax-ns#"
   xmlns:svg="http://www.w3.org/2000/svg"
   xmlns="http://www.w3.org/2000/svg"
   xmlns:sodipodi="http://sodipodi.sourceforge.net/DTD/sodipodi-0.dtd"
   xmlns:inkscape="http://www.inkscape.org/namespaces/inkscape"
   version="1.1"
   id="Layer_1"
   x="0px"
   y="0px"
   width="397"
   height="505"
   viewBox="0 0 397 505"
   enable-background="new 0 0 400 300"
   xml:space="preserve"
   inkscape:version="0.48.2 r9819"
   sodipodi:docname="Keys Template.svg"><metadata
   id="metadata253"><rdf:RDF><cc:Work
       rdf:about=""><dc:format>image/svg+xml</dc:format><dc:type
         rdf:resource="http://purl.org/dc/dcmitype/StillImage" /><dc:title></dc:title></cc:Work></rdf:RDF></metadata><defs
   id="defs251" /><sodipodi:namedview
   pagecolor="#ffffff"
   bordercolor="#666666"
   borderopacity="1"
   objecttolerance="10"
   gridtolerance="10"
   guidetolerance="10"
   inkscape:pageopacity="0"
   inkscape:pageshadow="2"
   inkscape:window-width="1064"
   inkscape:window-height="754"
   id="namedview249"
   showgrid="false"
   fit-margin-top="0"
   fit-margin-left="0"
   fit-margin-right="0"
   fit-margin-bottom="0"
   inkscape:zoom="0.78666667"
   inkscape:cx="171.84906"
   inkscape:cy="303.73303"
   inkscape:window-x="80"
   inkscape:window-y="36"
   inkscape:window-maximized="0"
   inkscape:current-layer="g3" />
<g
   id="g3"
   transform="translate(-1.9467955,205.9798)">
	
	
	
	
	
	
	
	
	
	
	
	
	
	
	
	
	
	
	
	
	
	
	
	
	
	
	
	
	
	
	
	
	
	
	
	
	<g
   id="g125"
   transform="matrix(3.9129795,0,0,3.9129795,-36.094866,-633.36934)">
		<path
   d="m 37.253,178.168 c 4.356,-0.386 8.503,1.345 11.123,4.878 2.518,3.396 3.36,7.882 2.577,12.007 -0.809,4.262 -3.525,7.819 -7.122,10.158 -0.903,0.587 -1.854,1.1 -2.835,1.544 0.199,1.561 0.396,3.12 0.596,4.683 0.368,2.895 1.041,5.92 1.022,8.84 -0.024,3.969 -1.321,7.951 -4.826,10.16 -3.462,2.184 -8.033,2.242 -11.485,0.041 -3.53,-2.246 -6.029,-6.805 -4.302,-10.939 1.723,-4.117 7.039,-5.428 9.841,-1.578 1.576,2.164 1.751,5.471 -0.146,7.508 -1.132,1.215 -3.328,2.182 -4.983,1.531 0.045,2.162 3.351,3.244 5.112,3.18 2.545,-0.111 5.05,-1.018 6.697,-3.031 1.716,-2.102 2.209,-4.859 2.142,-7.502 -0.051,-2.016 -0.451,-4.029 -0.734,-6.021 -0.288,-2.033 -0.576,-4.066 -0.863,-6.101 -9.157,2.216 -17.611,-3.306 -21.261,-11.604 -1.785,-4.053 -2.511,-8.717 -1.755,-13.098 0.768,-4.45 3.056,-8.451 5.837,-11.947 2.841,-3.573 6.196,-6.691 9.545,-9.776 0.384,-0.354 0.769,-0.708 1.153,-1.063 0.314,-0.289 0.396,-0.249 0.32,-0.707 -0.059,-0.355 -0.116,-0.711 -0.169,-1.066 -0.231,-1.522 -0.416,-3.052 -0.538,-4.587 -0.216,-2.69 -0.282,-5.435 -0.019,-8.124 0.352,-3.59 1.347,-7.213 2.847,-10.49 0.749,-1.636 1.66,-3.24 2.88,-4.573 0.861,-0.941 2.254,-2.184 3.614,-2.247 0.867,-0.041 1.518,1.155 1.87,1.778 0.795,1.412 1.342,2.969 1.815,4.514 1.105,3.611 1.898,7.503 1.808,11.295 -0.111,4.702 -1.688,9.409 -4.021,13.462 -1.226,2.128 -2.69,4.119 -4.344,5.936 -0.797,0.877 -1.637,1.712 -2.517,2.506 -0.426,0.383 -0.055,1.469 0.019,2.027 0.112,0.854 0.224,1.707 0.336,2.561 0.254,1.946 0.511,3.896 0.766,5.845 m -0.992,7.118 c -4.25,1.024 -7.68,5.849 -6.307,10.209 0.301,0.958 0.839,1.822 1.519,2.555 0.345,0.374 0.726,0.713 1.127,1.023 0.456,0.349 1.067,0.594 1.48,0.984 0.331,0.312 0.203,0.825 -0.198,1.002 -0.475,0.209 -1.014,-0.19 -1.417,-0.413 -0.994,-0.55 -1.898,-1.256 -2.681,-2.079 -3.136,-3.299 -4.165,-8.329 -2.389,-12.544 0.908,-2.156 2.418,-4.066 4.26,-5.502 0.85,-0.662 1.78,-1.228 2.775,-1.646 0.239,-0.101 0.481,-0.192 0.727,-0.274 0.411,-0.137 0.198,-0.436 0.149,-0.813 -0.109,-0.859 -0.219,-1.718 -0.329,-2.577 -0.25,-1.963 -0.501,-3.928 -0.751,-5.892 -6.88,5.478 -14.744,12.397 -14.569,22.002 0.158,8.61 8.03,15.358 16.544,14.676 0.779,-0.063 1.552,-0.194 2.31,-0.385 0.554,-0.138 0.251,-0.7 0.189,-1.188 -0.063,-0.489 -0.125,-0.979 -0.188,-1.471 -0.25,-1.959 -0.5,-3.92 -0.75,-5.881 -0.499,-3.929 -1,-7.856 -1.501,-11.786 m 8.63,-43.819 c 0.08,-2.337 -1.637,-4.938 -4.207,-3.965 -2.009,0.759 -3.314,2.749 -4.204,4.602 -2.437,5.069 -2.702,10.593 -1.768,16.071 5.131,-3.968 9.974,-9.941 10.179,-16.708 m -4.133,63.534 c 4.275,-2.112 7.035,-6.972 6.233,-11.731 -0.748,-4.436 -4.291,-7.854 -8.835,-8.102 0.864,6.611 1.732,13.223 2.602,19.833"
   id="path127"
   inkscape:connector-curvature="0" />
	</g>
	
	
	<g
   id="g139"
   transform="translate(205.87928,32.806286)">
		
	</g>
	<g
   id="g143"
   transform="translate(34.923423,-152.94116)">
		<path
   d="m 73.794,237.496 c -0.826,0.229 -1.652,0.441 -2.478,0.635 -0.305,0.072 -0.133,1.162 -0.133,1.439 0,2.109 0,4.219 0,6.328 0,0.057 0.036,0.348 -0.03,0.344 -0.196,-0.002 -1.161,0.061 -1.271,-0.086 -0.214,-0.273 0,-1.648 0,-1.971 0,-1.875 0,-3.752 0,-5.627 -0.615,0.119 -1.229,0.225 -1.839,0.316 0,-1.07 0,-2.143 0,-3.215 0,-0.172 -0.109,-0.877 0.079,-0.926 0.558,-0.143 1.119,-0.293 1.681,-0.449 0.265,-0.074 0.079,-2.443 0.079,-2.75 0,-1.035 0,-2.07 0,-3.105 -0.615,0.154 -1.229,0.311 -1.839,0.467 0,-1.08 0,-2.16 0,-3.24 0,-0.158 -0.1,-0.744 0.079,-0.797 0.558,-0.166 1.119,-0.328 1.681,-0.484 0.225,-0.063 0.079,-1.84 0.079,-2.078 0,-1.398 0,-2.801 0,-4.201 0,-0.416 -0.255,-1.869 0.237,-1.908 0.142,-0.018 1.064,-0.139 1.064,-0.012 0,0.367 0,0.736 0,1.104 0,2.236 0,4.471 0,6.705 0.826,-0.227 1.652,-0.438 2.478,-0.633 0.305,-0.07 0.132,-1.164 0.132,-1.438 0,-2.137 0,-4.273 0,-6.41 0,-0.643 1.304,-0.021 1.303,-0.176 0,0.703 0,1.406 0,2.107 0,1.867 0,3.73 0,5.596 0.614,-0.117 1.228,-0.227 1.838,-0.32 0,1.053 0,2.102 0,3.154 0,0.293 0.139,0.717 -0.169,0.795 -0.548,0.141 -1.098,0.287 -1.649,0.441 -0.154,0.041 -0.02,2.508 -0.02,2.734 0,1.035 0,2.07 0,3.107 0.614,-0.191 1.228,-0.385 1.838,-0.576 0,1.02 0,2.037 0,3.055 0,0.215 0.12,0.879 0,1.07 -0.137,0.221 -1.162,0.408 -1.411,0.49 -0.309,0.105 -0.427,0.049 -0.427,0.357 0,0.426 0,0.848 0,1.271 0,1.381 0,2.764 0,4.145 0,0.256 0.133,1.959 -0.114,1.979 -0.127,0.016 -1.189,0.105 -1.189,0.045 0,-0.303 0,-0.607 0,-0.91 10e-4,-2.124 10e-4,-4.247 10e-4,-6.372 m -2.61,-3.543 c 0.756,-0.188 1.512,-0.379 2.268,-0.576 0.544,-0.143 0.343,-0.527 0.343,-1.08 0,-1.625 0,-3.252 0,-4.879 -0.755,0.184 -1.512,0.379 -2.267,0.574 -0.545,0.145 -0.344,0.529 -0.344,1.08 0,1.627 0,3.254 0,4.881"
   id="path145"
   inkscape:connector-curvature="0" />
	</g>
	
	
	
	
	
	
	
	
	
	
<path
   style="fill:#000000"
   d="m 18.946795,209.0202 0,-3 190.000005,0 190,0 0,3 0,3 -190,0 -190.000005,0 0,-3 z m 0,-84 0,-3 190.000005,0 190,0 0,3 0,3 -190,0 -190.000005,0 0,-3 z m 0,-84 0,-3 190.000005,0 190,0 0,3 0,3 -190,0 -190.000005,0 0,-3 z m 0,-84 0,-3 190.000005,0 190,0 0,3 0,3 -190,0 -190.000005,0 0,-3 z m 0,-84 0,-3 190.000005,0 190,0 0,3 0,3 -190,0 -190.000005,0 0,-3 z"
   id="path3265"
   inkscape:connector-curvature="0" /></g><g
   inkscape:groupmode="layer"
   id="layer2"
   inkscape:label="Sharps" /><g
   inkscape:groupmode="layer"
   id="layer1"
   inkscape:label="flats"><path
     d="m 64.590056,425.64662 c 0.235,-0.043 1.296,-0.322 1.297,-0.064 0,0.43 0,0.861 0,1.293 0,1.809 0,3.621 0,5.43 0,3.031 0,6.064 0,9.098 1.371,-1.047 3.235,-2.104 4.931,-1.125 1.517,0.879 2.099,2.59 1.517,4.246 -0.567,1.611 -1.909,2.9 -3.184,3.961 -1.639,1.365 -3.138,2.754 -4.561,4.059 0,-8.842 0,-17.682 0,-26.521 0,-0.127 0,-0.252 0,-0.377 m 1.297,24.32 c 1.439,-1.586 3.546,-3.604 3.72,-6.025 0.077,-1.051 -0.417,-2.285 -1.559,-2.457 -0.847,-0.152 -1.82,0.838 -2.106,1.549 -0.116,0.289 -0.055,0.676 -0.055,0.98 0,0.773 0,1.545 0,2.318 0,1.212 0,2.423 0,3.635"
     id="path141"
     inkscape:connector-curvature="0" /></g>
</svg>