<?xml version="1.0" encoding="UTF-8" standalone="no"?>
<!-- Created with DrawBerry (http://raphaelbost.free.fr/) -->
<svg 
 	 width = "50.000000" 
 	 height = "120.000000" 
xmlns:dc="http://purl.org/dc/elements/1.1/"
xmlns:cc="http://web.resource.org/cc/"
xmlns:rdf="http://www.w3.org/1999/02/22-rdf-syntax-ns#"
 xmlns:svg="http://www.w3.org/2000/svg"
 xmlns="http://www.w3.org/2000/svg" 
 xmlns:sodipodi="http://inkscape.sourceforge.net/DTD/sodipodi-0.dtd"
 xmlns:inkscape="http://www.inkscape.org/namespaces/inkscape"
 >
<g inkscape:label="" inkscape:groupmode="layer" id="">
</g>
<g inkscape:label="" inkscape:groupmode="layer" id="">
</g>
<g inkscape:label="" inkscape:groupmode="layer" id="">
</g>
<g inkscape:label="" inkscape:groupmode="layer" id="">
</g>
<g inkscape:label="" inkscape:groupmode="layer" id="">
</g>
<g inkscape:label="" inkscape:groupmode="layer" id="">
</g>
<g inkscape:label="" inkscape:groupmode="layer" id="">
</g>
<g inkscape:label="" inkscape:groupmode="layer" id="">
</g>
<g inkscape:label="" inkscape:groupmode="layer" id="">
</g>
<g inkscape:label="" inkscape:groupmode="layer" id="">
</g>
<g inkscape:label="" inkscape:groupmode="layer" id="">
</g>
<g inkscape:label="" inkscape:groupmode="layer" id="">
</g>
<g inkscape:label="" inkscape:groupmode="layer" id="">
</g>
<g inkscape:label="" inkscape:groupmode="layer" id="">
</g>
<g inkscape:label="" inkscape:groupmode="layer" id="">
</g>
<g inkscape:label="" inkscape:groupmode="layer" id="">
</g>
<g inkscape:label="" inkscape:groupmode="layer" id="">
</g>
<g inkscape:label="" inkscape:groupmode="layer" id="">
</g>
<g inkscape:label="" inkscape:groupmode="layer" id="">
<path  style="fill:#000000;fill-opacity:1.000000;stroke:#000000;stroke-width:1.000000px;stroke-opacity:1.000000;stroke-linecap:butt;stroke-linejoin:miter;" 
 d="M 28.424873,56.800812 C 32.780876,56.414810 36.927876,58.145813 39.547874,61.678818 C 42.065872,65.074814 42.907875,69.560806 42.124878,73.685806 C 41.315872,77.947815 38.599876,81.504807 35.002876,83.843811 C 34.099876,84.430817 33.148876,84.943817 32.167873,85.387817 C 32.366875,86.948807 32.563873,88.507812 32.763874,90.070816 C 33.131874,92.965805 33.804874,95.990814 33.785873,98.910812 C 33.761875,102.879807 32.464874,106.861816 28.959873,109.070816 C 25.497875,111.254807 20.926872,111.312805 17.474876,109.111816 C 13.944878,106.865814 11.445877,102.306808 13.172874,98.172806 C 14.895874,94.055817 20.211876,92.744812 23.013874,96.594818 C 24.589874,98.758820 24.764874,102.065811 22.867874,104.102814 C 21.735874,105.317810 19.539875,106.284805 17.884872,105.633820 C 17.929874,107.795807 21.235874,108.877808 22.996876,108.813812 C 25.541874,108.702820 28.046875,107.795807 29.693874,105.782806 C 31.409874,103.680817 31.902874,100.923813 31.835876,98.280807 C 31.784874,96.264816 31.384876,94.251816 31.101875,92.259811 C 30.813873,90.226807 30.525875,88.193817 30.238876,86.158813 C 21.081875,88.374817 12.627876,82.852814 8.977875,74.554810 C 7.192875,70.501816 6.466875,65.837814 7.222876,61.456818 C 7.990875,57.006805 10.278877,53.005814 13.059875,49.509811 C 15.900875,45.936813 19.255875,42.818817 22.604874,39.733810 C 22.988876,39.379807 23.373875,39.025818 23.757874,38.670807 C 24.071877,38.381805 24.153873,38.421814 24.077873,37.963806 C 24.018875,37.608810 23.961876,37.252808 23.908875,36.897812 C 23.677876,35.375809 23.492874,33.845810 23.370876,32.310806 C 23.154877,29.620819 23.088875,26.875809 23.351875,24.186813 C 23.703876,20.596817 24.698875,16.973816 26.198875,13.696808 C 26.947876,12.060806 27.858875,10.456818 29.078876,9.123810 C 29.939877,8.182816 31.332874,6.939819 32.692875,6.876816 C 33.559875,6.835815 34.210876,8.031815 34.562874,8.654816 C 35.357876,10.066818 35.904877,11.623810 36.377876,13.168808 C 37.482876,16.779816 38.275875,20.671814 38.185875,24.463806 C 38.074875,29.165817 36.497875,33.872818 34.164875,37.925812 C 32.938873,40.053818 31.474876,42.044815 29.820873,43.861816 C 29.023876,44.738815 28.183876,45.573807 27.303875,46.367813 C 26.877876,46.750809 27.248875,47.836807 27.322876,48.394806 C 27.434875,49.248810 27.546875,50.101807 27.658875,50.955811 C 27.912876,52.901810 28.169876,54.851807 28.424873,56.800812 M 27.432877,63.918808 C 23.182877,64.942810 19.752876,69.767807 21.125877,74.127808 C 21.426872,75.085815 21.964874,75.949814 22.644875,76.682816 C 22.989876,77.056808 23.370876,77.395813 23.771873,77.705811 C 24.227875,78.054810 24.838875,78.299820 25.251877,78.689819 C 25.582874,79.001816 25.454876,79.514816 25.053875,79.691818 C 24.578876,79.900818 24.039875,79.501816 23.636875,79.278809 C 22.642876,78.728806 21.738876,78.022812 20.955875,77.199814 C 17.819878,73.900818 16.790874,68.870819 18.566875,64.655807 C 19.474876,62.499817 20.984875,60.589813 22.826874,59.153809 C 23.676876,58.491806 24.606876,57.925812 25.601875,57.507812 C 25.840874,57.406815 26.082874,57.315811 26.328876,57.233810 C 26.739876,57.096817 26.526875,56.797806 26.477875,56.420807 C 26.368874,55.561813 26.258877,54.702820 26.148876,53.843811 C 25.898876,51.880814 25.647877,49.915817 25.397877,47.951813 C 18.517876,53.429810 10.653877,60.348816 10.828873,69.953812 C 10.986877,78.563812 18.858875,85.311813 27.372875,84.629807 C 28.151875,84.566818 28.924873,84.435806 29.682877,84.244812 C 30.236874,84.106812 29.933876,83.544815 29.871876,83.056808 C 29.808876,82.567810 29.746876,82.077820 29.683876,81.585815 C 29.433876,79.626816 29.183876,77.665817 28.933876,75.704819 C 28.434875,71.775818 27.933876,67.848816 27.432877,63.918808 M 36.062874,20.099808 C 36.142876,17.762817 34.425877,15.161819 31.855873,16.134811 C 29.846874,16.893814 28.541874,18.883820 27.651875,20.736816 C 25.214874,25.805817 24.949875,31.329819 25.883877,36.807816 C 31.014874,32.839813 35.857876,26.866806 36.062874,20.099808 M 31.929874,83.633820 C 36.204876,81.521820 38.964874,76.661819 38.162876,71.902817 C 37.414875,67.466812 33.871876,64.048813 29.327873,63.800812 C 30.191875,70.411819 31.059875,77.023819 31.929874,83.633820 "  />
</g>
<g inkscape:label="" inkscape:groupmode="layer" id="">
</g>
<g inkscape:label="" inkscape:groupmode="layer" id="">
</g>
<g inkscape:label="" inkscape:groupmode="layer" id="">
</g>
<g inkscape:label="" inkscape:groupmode="layer" id="">
</g>
<g inkscape:label="" inkscape:groupmode="layer" id="">
</g>
<g inkscape:label="" inkscape:groupmode="layer" id="">
</g>
<g inkscape:label="" inkscape:groupmode="layer" id="">
</g>
<g inkscape:label="" inkscape:groupmode="layer" id="">
</g>
<g inkscape:label="" inkscape:groupmode="layer" id="">
</g>
<g inkscape:label="" inkscape:groupmode="layer" id="">
</g>
<g inkscape:label="" inkscape:groupmode="layer" id="">
</g>
<g inkscape:label="" inkscape:groupmode="layer" id="">
</g>
<g inkscape:label="" inkscape:groupmode="layer" id="">
</g>
<g inkscape:label="" inkscape:groupmode="layer" id="">
</g>
<g inkscape:label="" inkscape:groupmode="layer" id="">
</g>
<g inkscape:label="" inkscape:groupmode="layer" id="">
</g>
<g inkscape:label="" inkscape:groupmode="layer" id="">
</g>
<g inkscape:label="" inkscape:groupmode="layer" id="">
</g>
<g inkscape:label="" inkscape:groupmode="layer" id="">
</g>
<g inkscape:label="" inkscape:groupmode="layer" id="">
</g>
</svg>
