<?xml version="1.0" encoding="UTF-8" standalone="no"?>
<!-- Created with Inkscape (http://www.inkscape.org/) -->

<svg
   xmlns:dc="http://purl.org/dc/elements/1.1/"
   xmlns:cc="http://creativecommons.org/ns#"
   xmlns:rdf="http://www.w3.org/1999/02/22-rdf-syntax-ns#"
   xmlns:svg="http://www.w3.org/2000/svg"
   xmlns="http://www.w3.org/2000/svg"
   version="1.1"
   width="12.627999"
   height="42.896919"
   viewBox="0 0 12.628 42.896913"
   id="Layer_1"
   xml:space="preserve"><metadata
   id="metadata3527"><rdf:RDF><cc:Work
       rdf:about=""><dc:format>image/svg+xml</dc:format><dc:type
         rdf:resource="http://purl.org/dc/dcmitype/StillImage" /><dc:title></dc:title></cc:Work></rdf:RDF></metadata><defs
   id="defs3525" />
<g
   transform="translate(-263.889,-193.21108)"
   id="g3277">
	<path
   d="M 37.841,65.665 H 36.945 17.046 v 1.883 0.09 25.464 c -0.597,-0.564 -1.592,-0.744 -2.754,-0.744 -1.326,0 -2.918,0.664 -4.18,1.691 -1.261,0.995 -2.189,2.356 -2.189,3.717 0,0.862 0.364,1.592 0.995,2.091 0.598,0.496 1.46,0.796 2.389,0.796 1.46,0 3.119,-0.598 4.379,-1.595 1.294,-0.994 2.257,-2.329 2.257,-3.822 V 67.638 h 19.002 v 25.464 c -0.598,-0.564 -1.593,-0.744 -2.754,-0.744 -1.327,0 -2.919,0.664 -4.18,1.691 -1.261,0.995 -2.19,2.356 -2.19,3.717 0,0.862 0.365,1.592 0.996,2.091 0.598,0.496 1.46,0.796 2.389,0.796 1.46,0 3.118,-0.598 4.379,-1.595 1.294,-0.994 2.257,-2.311 2.257,-3.804 V 67.638 h 19.002 v 25.446 c -0.598,-0.563 -1.593,-0.727 -2.754,-0.727 -1.327,0 -2.919,0.664 -4.18,1.691 -1.261,0.995 -2.189,2.356 -2.189,3.717 0,0.862 0.364,1.592 0.995,2.091 0.597,0.496 1.459,0.796 2.389,0.796 1.459,0 3.118,-0.598 4.379,-1.595 1.294,-0.994 2.257,-2.311 2.257,-3.804 v -27.615 -0.09 -1.883 h -19.9 z"
   id="path3279" />
	<path
   d="m 38.425,11.854 v 0.017 l -20.706,4.286 v 1.794 0.18 25.374 c -0.598,-0.564 -1.57,-0.682 -2.731,-0.682 -1.327,0 -2.919,0.664 -4.18,1.692 -1.261,0.996 -2.189,2.355 -2.189,3.716 0,0.862 0.364,1.592 0.995,2.09 0.597,0.497 1.46,0.796 2.39,0.796 1.459,0 3.117,-0.597 4.378,-1.592 1.294,-0.995 2.233,-2.375 2.233,-3.868 V 17.95 l 19.002,-4.034 v 25.472 c -0.597,-0.563 -1.569,-0.726 -2.73,-0.726 -1.327,0 -2.919,0.663 -4.18,1.692 -1.261,0.995 -2.189,2.355 -2.189,3.716 0,0.861 0.364,1.592 0.995,2.089 0.597,0.498 1.46,0.797 2.388,0.797 1.459,0 3.119,-0.597 4.379,-1.592 1.295,-0.996 2.236,-2.331 2.236,-3.823 V 13.735 13.718 L 57.426,9.89 v 25.365 c -0.598,-0.564 -1.525,-0.753 -2.687,-0.753 -1.327,0 -2.92,0.663 -4.18,1.691 -1.261,0.996 -2.19,2.356 -2.19,3.716 0,0.863 0.364,1.593 0.996,2.091 0.596,0.497 1.459,0.796 2.387,0.796 1.461,0 3.12,-0.598 4.381,-1.593 1.293,-0.995 2.279,-2.394 2.279,-3.887 V 9.701 9.611 7.729 l -19.987,4.125 z"
   id="path3281" />
	<path
   d="M 95.854,65.665 H 94.957 75.059 v 1.883 0.09 1.076 1.973 22.415 c -0.598,-0.564 -1.593,-0.744 -2.754,-0.744 -1.327,0 -2.919,0.664 -4.181,1.691 -1.261,0.995 -2.189,2.356 -2.189,3.717 0,0.862 0.365,1.592 0.995,2.091 0.598,0.496 1.46,0.796 2.39,0.796 1.46,0 3.118,-0.598 4.378,-1.595 1.295,-0.994 2.258,-2.329 2.258,-3.822 V 70.687 h 18.912 0.089 v 22.415 c -0.598,-0.564 -1.592,-0.744 -2.753,-0.744 -1.327,0 -2.92,0.664 -4.18,1.691 -1.261,0.995 -2.189,2.356 -2.189,3.717 0,0.862 0.364,1.592 0.995,2.091 0.596,0.496 1.459,0.796 2.387,0.796 1.461,0 3.119,-0.598 4.38,-1.595 1.295,-0.994 2.258,-2.311 2.258,-3.804 V 70.687 h 19.001 v 22.397 c -0.597,-0.563 -1.593,-0.727 -2.754,-0.727 -1.326,0 -2.919,0.664 -4.18,1.691 -1.261,0.995 -2.189,2.356 -2.189,3.717 0,0.862 0.365,1.592 0.995,2.091 0.597,0.496 1.459,0.796 2.389,0.796 1.46,0 3.119,-0.598 4.38,-1.595 1.292,-0.994 2.257,-2.311 2.257,-3.804 v -27.615 -0.09 -1.883 h -19.9 z m 19,3.049 h -19 -0.986 -18.913 v -1.076 h 19.001 0.897 19.001 v 1.076 z"
   id="path3283" />
	<path
   d="m 96.795,11.854 v 0.017 l -20.706,4.286 v 1.794 0.18 1.12 1.973 22.281 c -0.597,-0.564 -1.569,-0.682 -2.73,-0.682 -1.327,0 -2.92,0.664 -4.18,1.692 -1.261,0.996 -2.189,2.355 -2.189,3.716 0,0.862 0.364,1.592 0.995,2.09 0.597,0.497 1.459,0.796 2.388,0.796 1.46,0 3.119,-0.597 4.379,-1.592 1.295,-0.995 2.235,-2.375 2.235,-3.868 v -24.61 l 19.001,-3.95 v 22.292 c -0.597,-0.563 -1.569,-0.726 -2.73,-0.726 -1.327,0 -2.919,0.663 -4.18,1.692 -1.262,0.995 -2.19,2.355 -2.19,3.716 0,0.861 0.365,1.592 0.996,2.089 0.597,0.498 1.459,0.797 2.388,0.797 1.46,0 3.119,-0.597 4.38,-1.592 1.293,-0.996 2.234,-2.331 2.234,-3.823 V 16.919 16.877 l 18.912,-3.934 v 22.312 c -0.599,-0.564 -1.525,-0.753 -2.687,-0.753 -1.328,0 -2.92,0.663 -4.18,1.691 -1.262,0.996 -2.191,2.356 -2.191,3.716 0,0.863 0.366,1.593 0.996,2.091 0.597,0.497 1.46,0.796 2.389,0.796 1.46,0 3.119,-0.598 4.379,-1.593 1.294,-0.995 2.279,-2.394 2.279,-3.887 V 9.701 9.611 7.729 l -19.988,4.125 z m -19.809,6.095 19.001,-4.033 v 1.165 l -0.045,0.009 v 0.041 l -18.956,3.942 v -1.124 z m 38.811,-6.977 -18.912,3.933 V 13.736 13.719 L 115.797,9.89 v 1.082 z"
   id="path3285" />
	<path
   d="m 153.382,65.665 h -0.896 -19.898 v 1.883 0.09 1.076 1.973 1.076 1.971 19.368 c -0.598,-0.564 -1.593,-0.744 -2.754,-0.744 -1.326,0 -2.92,0.664 -4.18,1.691 -1.261,0.995 -2.189,2.356 -2.189,3.717 0,0.862 0.364,1.592 0.995,2.091 0.598,0.496 1.459,0.796 2.389,0.796 1.459,0 3.119,-0.598 4.379,-1.595 1.294,-0.994 2.258,-2.329 2.258,-3.822 V 73.733 h 18.911 0.09 v 19.368 c -0.598,-0.564 -1.593,-0.744 -2.754,-0.744 -1.327,0 -2.92,0.664 -4.181,1.691 -1.261,0.995 -2.189,2.356 -2.189,3.717 0,0.862 0.366,1.592 0.996,2.091 0.598,0.496 1.46,0.796 2.388,0.796 1.462,0 3.119,-0.598 4.381,-1.595 1.293,-0.994 2.256,-2.311 2.256,-3.804 v -21.52 h 19.001 v 19.351 c -0.597,-0.563 -1.591,-0.727 -2.753,-0.727 -1.326,0 -2.92,0.664 -4.181,1.691 -1.261,0.995 -2.188,2.356 -2.188,3.717 0,0.862 0.364,1.592 0.995,2.091 0.597,0.496 1.46,0.796 2.389,0.796 1.459,0 3.118,-0.598 4.379,-1.595 1.294,-0.994 2.257,-2.311 2.257,-3.804 v -27.615 -0.09 -1.883 h -19.901 z m 0,6.098 h -0.986 -18.911 v -1.076 h 18.911 0.986 19.001 v 1.076 h -19.001 z m 19.001,-3.049 h -19.001 -0.986 -18.911 v -1.076 h 19.001 0.896 19.001 v 1.076 z"
   id="path3287" />
	<path
   d="m 153.875,11.854 v 0.017 l -20.705,4.286 v 1.794 0.18 1.12 1.973 1.121 1.973 19.188 c -0.598,-0.564 -1.57,-0.682 -2.731,-0.682 -1.327,0 -2.92,0.664 -4.18,1.692 -1.261,0.996 -2.19,2.355 -2.19,3.716 0,0.862 0.366,1.592 0.996,2.09 0.597,0.497 1.459,0.796 2.389,0.796 1.459,0 3.118,-0.597 4.378,-1.592 1.295,-0.995 2.235,-2.375 2.235,-3.868 V 24.14 l 19.002,-3.951 v 19.199 c -0.598,-0.563 -1.57,-0.726 -2.731,-0.726 -1.327,0 -2.92,0.663 -4.18,1.692 -1.262,0.995 -2.19,2.355 -2.19,3.716 0,0.861 0.365,1.592 0.995,2.089 0.598,0.498 1.46,0.797 2.39,0.797 1.46,0 3.119,-0.597 4.378,-1.592 1.294,-0.996 2.234,-2.331 2.234,-3.823 V 20.013 19.971 l 18.912,-3.935 v 19.219 c -0.596,-0.564 -1.524,-0.753 -2.687,-0.753 -1.326,0 -2.919,0.663 -4.18,1.691 -1.261,0.996 -2.189,2.356 -2.189,3.716 0,0.863 0.365,1.593 0.995,2.091 0.598,0.497 1.461,0.796 2.389,0.796 1.46,0 3.119,-0.598 4.38,-1.593 1.293,-0.995 2.279,-2.394 2.279,-3.887 V 9.701 9.611 7.729 l -19.989,4.125 z m -19.809,6.096 19.002,-4.035 v 1.166 l -0.045,0.009 v 0.041 l -18.957,3.943 V 17.95 z m 0,3.096 19.002,-3.951 v 1.079 l -0.045,0.009 v 0.043 l -18.957,3.941 v -1.121 z m 19.898,-3.048 v -1.079 -0.042 l 18.912,-3.934 v 1.122 l -18.912,3.933 z m 18.912,-7.026 -18.912,3.933 V 13.736 13.719 L 172.876,9.89 v 1.082 z"
   id="path3289" />
	<path
   d="m 211.942,11.854 v 0.017 l -20.706,4.286 v 1.794 0.18 1.12 1.973 1.121 1.973 1.156 1.973 16.059 c -0.598,-0.564 -1.569,-0.682 -2.731,-0.682 -1.327,0 -2.919,0.664 -4.18,1.692 -1.261,0.996 -2.19,2.355 -2.19,3.716 0,0.862 0.366,1.592 0.996,2.09 0.597,0.497 1.46,0.796 2.389,0.796 1.46,0 3.118,-0.597 4.379,-1.592 1.294,-0.995 2.234,-2.375 2.234,-3.868 V 27.269 l 19.001,-3.95 v 16.069 c -0.595,-0.563 -1.569,-0.726 -2.73,-0.726 -1.325,0 -2.919,0.663 -4.179,1.692 -1.262,0.995 -2.191,2.355 -2.191,3.716 0,0.861 0.365,1.592 0.995,2.089 0.6,0.498 1.46,0.797 2.391,0.797 1.459,0 3.116,-0.597 4.378,-1.592 1.294,-0.996 2.234,-2.331 2.234,-3.823 V 23.142 23.1 l 18.911,-3.933 v 16.088 c -0.597,-0.564 -1.524,-0.753 -2.686,-0.753 -1.326,0 -2.919,0.663 -4.18,1.691 -1.262,0.996 -2.189,2.356 -2.189,3.716 0,0.863 0.364,1.593 0.994,2.091 0.599,0.497 1.459,0.796 2.39,0.796 1.46,0 3.119,-0.598 4.38,-1.593 1.291,-0.995 2.277,-2.394 2.277,-3.887 V 9.701 9.611 7.729 l -19.987,4.125 z m -19.809,6.095 19.001,-4.033 v 1.165 l -0.044,0.009 v 0.041 l -18.957,3.942 v -1.124 z m 19.898,-1.072 18.911,-3.934 v 1.122 l -18.911,3.933 v -1.079 -0.042 z m -19.898,4.169 19.001,-3.95 v 1.079 l -0.044,0.008 v 0.043 l -18.957,3.941 v -1.121 z m 0,3.094 19.001,-3.951 v 1.116 l -0.044,0.009 v 0.04 l -18.957,3.943 V 24.14 z m 19.898,-3.012 v -1.115 -0.042 l 18.911,-3.935 v 1.158 l -18.911,3.934 z m 18.911,-10.156 -18.911,3.933 V 13.736 13.719 L 230.942,9.89 v 1.082 z"
   id="path3291" />
	<path
   d="m 211.987,65.665 h -0.897 -19.897 v 1.883 0.09 1.076 1.973 1.076 1.971 1.077 1.974 16.317 c -0.599,-0.564 -1.594,-0.744 -2.756,-0.744 -1.326,0 -2.918,0.664 -4.178,1.691 -1.263,0.995 -2.19,2.356 -2.19,3.717 0,0.862 0.364,1.592 0.995,2.091 0.597,0.496 1.46,0.796 2.389,0.796 1.46,0 3.118,-0.598 4.378,-1.595 1.294,-0.994 2.258,-2.329 2.258,-3.822 V 76.784 H 211 h 0.09 v 16.317 c -0.597,-0.564 -1.593,-0.744 -2.755,-0.744 -1.326,0 -2.919,0.664 -4.179,1.691 -1.262,0.995 -2.189,2.356 -2.189,3.717 0,0.862 0.364,1.592 0.994,2.091 0.598,0.496 1.461,0.796 2.39,0.796 1.459,0 3.118,-0.598 4.38,-1.595 1.293,-0.994 2.257,-2.311 2.257,-3.804 v -18.47 h 19.002 v 16.3 c -0.599,-0.563 -1.594,-0.727 -2.755,-0.727 -1.327,0 -2.92,0.664 -4.181,1.691 -1.26,0.995 -2.189,2.356 -2.189,3.717 0,0.862 0.365,1.592 0.994,2.091 0.6,0.496 1.463,0.796 2.392,0.796 1.458,0 3.116,-0.598 4.378,-1.595 1.294,-0.994 2.257,-2.311 2.257,-3.804 v -27.614 -0.09 -1.883 h -19.899 z m -19.899,5.022 H 211 h 0.987 19.002 v 1.076 H 211.987 211 192.088 v -1.076 z m 19.899,4.124 H 211.09 211 192.088 V 73.734 H 211 h 0.987 19.002 v 1.077 h -19.002 z m 19.002,-6.097 H 211.987 211 192.088 v -1.076 h 19.002 0.897 19.002 v 1.076 z"
   id="path3293" />
	<g
   id="g3295">
		<path
   d="m 252.289,94.993 c 0,1.561 -0.981,2.955 -2.335,3.995 -1.316,1.041 -3.051,1.664 -4.576,1.664 -0.97,0 -1.87,-0.313 -2.496,-0.831 -0.656,-0.521 -1.038,-1.283 -1.038,-2.184 0,-1.422 0.97,-2.842 2.287,-3.883 1.317,-1.076 2.981,-1.769 4.368,-1.769 1.214,0 2.231,0.169 2.854,0.759 V 66.043 h 0.937 v 28.95 z"
   id="path3297" />
		<rect
   width="21.030001"
   height="2.063"
   x="251.353"
   y="64.074997"
   id="rect3299" />
		<path
   d="m 272.383,94.993 c 0,1.561 -0.98,2.955 -2.333,3.995 -1.315,1.041 -3.051,1.664 -4.574,1.664 -0.973,0 -1.872,-0.313 -2.496,-0.831 -0.659,-0.521 -1.041,-1.283 -1.041,-2.184 0,-1.422 0.97,-2.842 2.288,-3.883 1.317,-1.076 2.98,-1.769 4.368,-1.769 1.213,0 2.23,0.169 2.854,0.759 V 66.043 h 0.935 v 28.95 z"
   id="path3301" />
	</g>
	<g
   id="g3303">
		<path
   d="m 256.289,43.051 c 0,1.56 -0.983,2.954 -2.335,3.994 -1.316,1.041 -3.051,1.665 -4.577,1.665 -0.97,0 -1.871,-0.313 -2.494,-0.833 -0.658,-0.519 -1.04,-1.282 -1.04,-2.183 0,-1.422 0.97,-2.842 2.288,-3.884 1.316,-1.074 2.98,-1.768 4.366,-1.768 1.215,0 2.229,0.169 2.855,0.76 V 14.101 h 0.937 v 28.95 z"
   id="path3305" />
		<polygon
   points="276.385,7.729 255.353,12.133 255.353,14.193 276.385,9.79 "
   id="polygon3307" />
		<path
   d="m 276.385,38.703 c 0,1.561 -0.984,2.954 -2.335,3.995 -1.318,1.04 -3.052,1.664 -4.577,1.664 -0.97,0 -1.872,-0.313 -2.494,-0.832 -0.659,-0.519 -1.041,-1.282 -1.041,-2.184 0,-1.422 0.971,-2.842 2.289,-3.882 1.315,-1.074 2.98,-1.769 4.367,-1.769 1.213,0 2.229,0.169 2.854,0.759 V 9.753 h 0.937 v 28.95 z"
   id="path3309" />
	</g>
	<path
   d="m 289.251,64.075 v 1.967 0.096 1.124 2.06 23.424 c -0.623,-0.59 -1.641,-0.76 -2.854,-0.76 -1.387,0 -3.05,0.693 -4.368,1.768 -1.316,1.041 -2.286,2.463 -2.286,3.883 0,0.902 0.38,1.664 1.038,2.184 0.625,0.521 1.526,0.833 2.496,0.833 1.525,0 3.26,-0.624 4.577,-1.664 1.352,-1.04 2.333,-2.437 2.333,-3.994 V 69.321 h 19.16 v 23.424 c -0.625,-0.59 -1.641,-0.76 -2.855,-0.76 -1.386,0 -3.05,0.693 -4.367,1.768 -1.316,1.041 -2.288,2.463 -2.288,3.883 0,0.902 0.384,1.664 1.042,2.184 0.621,0.521 1.524,0.833 2.494,0.833 1.525,0 3.259,-0.624 4.577,-1.664 1.351,-1.04 2.334,-2.437 2.334,-3.994 v -25.674 -2.06 -1.124 -0.096 -1.967 h -21.033 z m 20.096,3.187 h -19.16 v -1.124 h 19.16 v 1.124 z"
   id="path3311" />
	<path
   d="m 294.749,12.225 v 1.875 0.188 1.123 2.062 23.329 c -0.625,-0.589 -1.641,-0.758 -2.855,-0.758 -1.386,0 -3.05,0.692 -4.366,1.767 -1.317,1.041 -2.288,2.462 -2.288,3.884 0,0.9 0.38,1.663 1.038,2.184 0.626,0.521 1.526,0.831 2.497,0.831 1.524,0 3.26,-0.623 4.576,-1.664 1.353,-1.039 2.334,-2.436 2.334,-3.996 V 17.287 l 19.16,-4.129 v 23.296 c -0.624,-0.589 -1.642,-0.759 -2.854,-0.759 -1.387,0 -3.052,0.692 -4.367,1.768 -1.317,1.04 -2.288,2.461 -2.288,3.882 0,0.902 0.381,1.665 1.039,2.185 0.625,0.52 1.524,0.831 2.496,0.831 1.524,0 3.26,-0.623 4.576,-1.663 1.352,-1.042 2.334,-2.436 2.334,-3.997 V 12.975 10.913 9.789 9.751 7.729 l -21.032,4.496 z m 20.096,-1.128 -19.16,4.13 v -1.123 l 19.16,-4.13 v 1.123 z"
   id="path3313" />
	<path
   d="m 326.585,64.075 v 1.969 0.093 1.124 2.062 1.124 2.063 20.237 c -0.623,-0.59 -1.64,-0.761 -2.852,-0.761 -1.389,0 -3.052,0.695 -4.371,1.77 -1.315,1.04 -2.285,2.461 -2.285,3.881 0,0.902 0.383,1.664 1.039,2.185 0.624,0.521 1.526,0.832 2.496,0.832 1.526,0 3.259,-0.624 4.576,-1.663 1.353,-1.041 2.334,-2.435 2.334,-3.996 V 72.509 h 19.158 v 20.237 c -0.623,-0.59 -1.64,-0.761 -2.853,-0.761 -1.388,0 -3.052,0.695 -4.369,1.77 -1.317,1.04 -2.288,2.461 -2.288,3.881 0,0.902 0.384,1.664 1.039,2.185 0.626,0.521 1.527,0.832 2.498,0.832 1.525,0 3.258,-0.624 4.576,-1.663 1.351,-1.041 2.334,-2.435 2.334,-3.996 V 72.509 70.446 69.322 67.26 66.136 66.043 64.074 h -21.032 z m 20.096,6.371 h -19.158 v -1.124 h 19.158 v 1.124 z m 0,-3.185 h -19.158 v -1.124 h 19.158 v 1.124 z"
   id="path3315" />
	<path
   d="m 329.553,12.225 v 1.875 0.188 1.123 2.062 1.125 2.061 20.144 c -0.622,-0.589 -1.638,-0.758 -2.853,-0.758 -1.386,0 -3.052,0.692 -4.367,1.767 -1.316,1.041 -2.289,2.462 -2.289,3.884 0,0.9 0.383,1.663 1.04,2.184 0.625,0.521 1.526,0.831 2.495,0.831 1.527,0 3.26,-0.623 4.58,-1.664 1.35,-1.039 2.33,-2.436 2.33,-3.996 V 20.472 l 19.16,-4.128 v 20.11 c -0.625,-0.589 -1.639,-0.759 -2.854,-0.759 -1.388,0 -3.053,0.692 -4.367,1.768 -1.316,1.04 -2.287,2.461 -2.287,3.882 0,0.902 0.381,1.665 1.037,2.185 0.627,0.52 1.526,0.831 2.498,0.831 1.524,0 3.258,-0.623 4.576,-1.663 1.352,-1.042 2.333,-2.436 2.333,-3.997 V 16.16 14.1 12.975 10.913 9.789 9.751 7.729 l -21.032,4.496 z m 20.096,2.057 -19.16,4.13 v -1.125 l 19.16,-4.128 v 1.123 z m 0,-3.185 -19.16,4.13 v -1.123 l 19.16,-4.13 v 1.123 z"
   id="path3317" />
	<path
   d="m 363.922,64.075 v 1.968 0.093 1.125 2.063 1.123 2.061 1.125 2.061 17.053 c -0.625,-0.59 -1.64,-0.759 -2.854,-0.759 -1.388,0 -3.051,0.692 -4.367,1.769 -1.318,1.037 -2.289,2.459 -2.289,3.881 0,0.9 0.382,1.665 1.039,2.185 0.625,0.519 1.525,0.832 2.498,0.832 1.524,0 3.257,-0.625 4.574,-1.664 1.352,-1.04 2.336,-2.436 2.336,-3.995 V 75.692 h 19.157 v 17.053 c -0.624,-0.59 -1.641,-0.759 -2.853,-0.759 -1.386,0 -3.051,0.692 -4.369,1.769 -1.316,1.037 -2.288,2.459 -2.288,3.881 0,0.9 0.383,1.665 1.04,2.185 0.624,0.519 1.525,0.832 2.497,0.832 1.524,0 3.258,-0.625 4.575,-1.664 1.352,-1.04 2.335,-2.436 2.335,-3.995 V 75.692 73.631 72.506 70.445 69.322 67.259 66.134 66.041 64.073 h -21.031 z m 20.095,9.557 H 364.86 v -1.125 h 19.157 v 1.125 z m 0,-3.186 H 364.86 v -1.123 h 19.157 v 1.123 z m 0,-3.185 H 364.86 v -1.125 h 19.157 v 1.125 z"
   id="path3319" />
	<path
   d="m 366.891,12.225 v 1.875 0.188 1.123 2.062 1.125 2.061 1.125 2.061 16.958 c -0.624,-0.589 -1.641,-0.758 -2.854,-0.758 -1.387,0 -3.052,0.692 -4.368,1.767 -1.316,1.041 -2.287,2.462 -2.287,3.884 0,0.9 0.38,1.663 1.039,2.184 0.625,0.521 1.526,0.831 2.497,0.831 1.523,0 3.258,-0.623 4.575,-1.664 1.353,-1.039 2.335,-2.436 2.335,-3.996 V 23.659 l 19.158,-4.13 v 16.925 c -0.622,-0.589 -1.641,-0.759 -2.854,-0.759 -1.387,0 -3.051,0.692 -4.368,1.768 -1.317,1.04 -2.287,2.461 -2.287,3.882 0,0.902 0.38,1.665 1.039,2.185 0.624,0.52 1.525,0.831 2.497,0.831 1.522,0 3.257,-0.623 4.574,-1.663 1.352,-1.042 2.336,-2.436 2.336,-3.997 V 19.347 17.285 16.16 14.1 12.975 10.913 9.789 9.751 7.729 l -21.032,4.496 z m 20.094,5.245 -19.158,4.127 v -1.125 l 19.158,-4.128 v 1.126 z m 0,-3.188 -19.158,4.13 v -1.125 l 19.158,-4.128 v 1.123 z m 0,-3.185 -19.158,4.13 v -1.123 l 19.158,-4.13 v 1.123 z"
   id="path3321" />
	<g
   id="g3323">
		<path
   d="m 324.922,165.475 c 0,1.982 -1.171,3.832 -2.825,5.117 -1.611,1.293 -3.73,1.959 -5.59,1.768 -1.184,-0.119 -2.279,-0.648 -3.036,-1.391 -0.8,-0.748 -1.263,-1.744 -1.263,-2.842 0,-1.73 1.176,-3.324 2.779,-4.504 1.603,-1.217 3.633,-2.01 5.33,-1.971 1.482,0.037 2.695,0.211 3.458,0.963 0,-11.334 0,-22.667 0,-34 0.382,-0.001 0.764,0 1.146,0.005 0.085,1.594 0.313,3.813 2.137,5.58 2.077,1.958 3.979,3.947 5.288,5.703 1.732,2.307 2.95,5.081 2.95,7.831 0,1.4 -0.21,2.84 -0.589,4.207 0.715,1.443 1.094,2.951 1.094,4.684 0,2.955 -0.851,5.457 -2.074,7.619 -0.228,0.02 -0.455,0.037 -0.684,0.055 0.886,-1.453 1.916,-4.752 1.832,-6.781 -0.084,-2.256 -0.251,-3.559 -1.684,-5.348 -1.644,-2.041 -5.894,-4.289 -8.271,-6.018 0.002,6.442 0.002,12.881 0.002,19.323 z m 9.282,-17.334 c -0.086,-2.264 -1.182,-4.055 -2.616,-5.936 -1.646,-2.147 -4.291,-4.047 -6.666,-5.475 0.085,3.177 2.052,6.449 3.872,8.19 2.075,1.919 3.09,2.935 4.313,4.495 0.38,0.475 0.669,1.029 0.963,1.5 0.085,-0.897 0.174,-2.046 0.134,-2.774 z"
   id="path3325" />
	</g>
	<g
   id="g3327">
		<path
   d="m 351.455,165.533 c 0,1.973 -1.172,3.791 -2.825,5.07 -1.611,1.283 -3.73,1.947 -5.589,1.756 -1.185,-0.119 -2.279,-0.646 -3.037,-1.389 -0.801,-0.748 -1.263,-1.746 -1.263,-2.844 0,-1.732 1.177,-3.316 2.779,-4.484 1.603,-1.203 3.635,-1.982 5.328,-1.936 1.483,0.039 2.697,0.234 3.461,0.982 0,-13.408 0,-26.817 0,-40.226 0.382,-0.001 0.764,10e-4 1.146,0.006 0.085,1.584 0.313,3.813 2.136,5.573 2.078,1.95 3.98,3.938 5.289,5.699 1.731,2.313 2.951,5.103 2.951,7.853 0,1.4 -0.211,2.75 -0.59,4.065 0.379,1.07 0.59,2.213 0.59,3.316 0,1.103 -0.127,2.207 -0.38,3.193 0.716,1.338 0.883,2.594 0.883,4.455 0,2.955 -0.851,5.486 -2.073,7.652 -0.228,0.021 -0.455,0.041 -0.684,0.061 0.886,-1.455 1.916,-4.779 1.832,-6.811 -0.083,-2.252 -0.167,-3.469 -1.601,-5.23 -0.801,-1.01 -2.194,-2.113 -3.888,-3.238 -1.65,-1.172 -3.277,-2.383 -4.466,-3.219 10e-4,6.567 10e-4,13.132 10e-4,19.696 z m 9.28,-23.55 c -0.084,-2.263 -1.179,-4.065 -2.615,-5.952 -1.647,-2.154 -4.29,-4.075 -6.665,-5.495 0.085,1.144 0.313,3.387 2.136,5.127 2.078,1.925 3.98,3.86 5.289,5.578 0.719,0.926 1.374,1.913 1.837,3.031 0.042,-0.81 0.061,-1.647 0.018,-2.289 z m 0,7.429 c -0.084,-2.258 -1.179,-4.016 -2.615,-5.857 -1.647,-2.102 -4.29,-3.893 -6.665,-5.307 0.085,1.887 1.288,4.682 2.855,6.092 1.95,1.764 4.277,4.078 5.919,5.977 0.211,0.254 0.361,0.512 0.487,0.766 0.007,-0.558 0.014,-1.114 0.019,-1.671 z"
   id="path3329" />
	</g>
	<g
   id="g3331">
		<path
   d="m 391.194,152.182 c 0.252,-0.986 0.378,-2.094 0.378,-3.195 0,-1.104 -0.209,-2.242 -0.588,-3.303 0.379,-1.322 0.588,-2.676 0.588,-4.075 0,-1.133 -0.206,-2.259 -0.566,-3.355 0.364,-1.284 0.566,-2.604 0.566,-3.977 0,-2.75 -1.218,-5.555 -2.948,-7.872 -1.31,-1.766 -3.213,-3.754 -5.289,-5.697 -1.824,-1.755 -2.053,-3.973 -2.138,-5.55 -0.343,-0.005 -0.687,-0.006 -1.031,-0.006 0,15.862 0,31.726 0,47.589 -0.763,-0.744 -2.091,-0.941 -3.574,-0.986 -1.695,-0.049 -3.726,0.715 -5.328,1.906 -1.604,1.154 -2.779,2.734 -2.779,4.467 0,1.096 0.462,2.096 1.262,2.844 0.759,0.742 1.854,1.27 3.037,1.389 1.86,0.191 3.979,-0.469 5.588,-1.746 1.656,-1.273 2.826,-3.08 2.826,-5.043 0,-6.533 0,-13.066 0,-19.6 1.188,0.828 2.816,2.027 4.467,3.178 1.692,1.107 3.087,2.188 3.888,3.186 1.433,1.74 1.517,2.955 1.6,5.205 0.086,2.027 -0.967,5.354 -1.854,6.809 0.226,-0.02 0.45,-0.041 0.675,-0.063 1.223,-2.17 2.104,-4.705 2.104,-7.66 -10e-4,-1.863 -0.168,-3.117 -0.884,-4.445 z m -9.997,-28.878 c 2.368,1.41 5.026,3.228 6.665,5.378 1.438,1.892 2.532,3.706 2.616,5.967 0.04,0.611 0.005,1.41 -0.036,2.184 -0.001,0.039 -0.003,0.078 -0.006,0.118 -0.464,-1.125 -1.096,-2.135 -1.813,-3.065 -1.31,-1.727 -3.213,-3.554 -5.289,-5.475 -1.824,-1.736 -2.078,-4.033 -2.163,-5.172 0.012,0.006 0.016,0.058 0.026,0.065 z m 9.282,27.757 c -0.126,-0.252 -0.295,-0.459 -0.506,-0.709 -1.644,-1.871 -3.969,-4.145 -5.919,-5.889 -1.567,-1.393 -2.771,-4.17 -2.856,-6.049 2.376,1.404 5.019,3.154 6.665,5.224 1.438,1.815 2.532,3.548 2.616,5.802 0,0.54 0,1.081 0,1.621 z m -0.042,-6.738 c -0.464,-1.106 -1.096,-2.095 -1.813,-3.006 -1.31,-1.688 -3.213,-3.587 -5.289,-5.486 -1.824,-1.721 -2.053,-3.953 -2.138,-5.091 2.376,1.41 5.019,3.281 6.665,5.396 1.438,1.853 2.532,3.627 2.616,5.885 0.043,0.639 10e-4,1.493 -0.041,2.302 z"
   id="path3333" />
	</g>
	<g
   id="g3335">
		<path
   d="m 254.524,129.132 c 0.379,0.049 0.758,0.104 1.137,0.163 0,11.923 0,23.848 0,35.77 -0.076,3.672 -4.707,7.539 -8.232,7.318 -1.061,-0.045 -2.13,-0.281 -2.973,-0.934 -1.35,-1.061 -1.636,-2.545 -1.594,-4.098 0.117,-3.682 4.58,-6.385 8.233,-6.643 1.058,-0.068 2.12,0.014 3.429,0.781 0,-10.784 0,-21.572 0,-32.357 z m -10.296,40.331 c 0,0.594 0.294,0.793 1.012,0.988 1.227,0.213 3.516,-0.68 5.424,-2.262 1.952,-1.527 3.76,-3.766 3.633,-5.07 -0.042,-0.465 -0.459,-0.719 -0.881,-0.738 -1.816,-0.227 -5.128,2.139 -6.44,3.145 -1.612,1.281 -2.833,2.691 -2.748,3.937 z"
   id="path3337" />
	</g>
	<g
   id="g3339">
		<path
   d="m 263.89,200.633 c 0,-1.936 1.174,-3.85 2.781,-5.229 1.648,-1.428 3.76,-2.291 5.623,-2.184 1.229,0.063 2.258,0.582 3.016,1.314 0.801,0.738 1.207,1.686 1.207,2.783 0,1.732 -1.121,3.371 -2.728,4.578 -1.563,1.244 -3.653,2.125 -5.392,2.166 -1.483,0.033 -2.613,-0.104 -3.371,-0.775 0,10.939 0,21.881 0,32.822 -0.379,-0.051 -0.758,-0.105 -1.137,-0.164 10e-4,-11.77 10e-4,-23.54 10e-4,-35.311 z"
   id="path3341" />
	</g>
	<g
   id="g3343">
		<path
   d="m 299.584,196.965 c 1.097,0.117 1.935,1.076 1.935,2.174 0,1.096 -0.838,1.963 -1.935,1.879 -1.097,-0.088 -1.94,-1.113 -1.94,-2.238 0,-1.125 0.843,-1.93 1.94,-1.815 z"
   id="path3345" />
		<path
   d="m 283.921,236.164 c 0,-11.771 0,-23.543 0,-35.313 0,-1.939 1.131,-3.84 2.736,-5.25 1.645,-1.457 3.723,-2.381 5.588,-2.391 1.23,-0.01 2.291,0.416 3.053,1.104 0.806,0.689 1.271,1.676 1.271,2.803 0,1.777 -1.186,3.494 -2.797,4.789 -1.568,1.332 -3.606,2.236 -5.342,2.301 -1.48,0.059 -2.73,-0.027 -3.488,-0.695 0,7.137 0,14.271 0,21.408 2.358,-0.004 5.055,-1.672 6.666,-3.811 1.443,-1.826 2.291,-4.322 2.375,-6.633 0.17,-4.145 -1.895,-7.99 -2.869,-10.066 0.229,-0.121 0.459,-0.24 0.688,-0.361 1.442,2.477 3.54,7.039 3.539,11.561 0,2.826 -1.229,5.635 -2.969,7.861 -1.314,1.701 -3.223,3.551 -4.913,5.518 -2.197,2.57 -2.22,5.225 -2.517,7.326 -0.339,-0.047 -0.681,-0.098 -1.021,-0.151 z"
   id="path3347" />
	</g>
	<g
   id="g3349">
		<path
   d="m 313.389,220.195 c 2.358,-1.564 6.635,-3.754 8.283,-5.818 1.439,-1.805 1.606,-3.117 1.69,-5.381 0.085,-2.043 -0.996,-5.371 -1.506,-5.955 0.191,-0.148 0.382,-0.293 0.572,-0.438 1.016,1.732 1.861,4.305 1.861,7.275 0,1.572 -0.293,2.965 -0.928,4.289 0.296,0.854 0.465,1.748 0.465,2.982 -0.001,2.762 -0.756,6.684 -3.213,9.879 -1.313,1.717 -3.012,3.223 -5.087,4.949 -1.819,1.553 -2.075,3.641 -2.161,4.109 -0.342,-0.047 -0.684,-0.096 -1.023,-0.15 0,-11.77 0,-23.539 0,-35.311 0,-1.938 1.154,-3.857 2.761,-5.238 1.649,-1.43 3.73,-2.271 5.595,-2.17 1.229,0.063 2.285,0.561 3.044,1.293 0.802,0.736 1.263,1.736 1.263,2.832 0,1.73 -1.176,3.32 -2.782,4.531 -1.565,1.246 -3.603,2.092 -5.341,2.133 -1.483,0.033 -2.734,-0.063 -3.493,-0.73 0,5.64 0,11.279 0,16.919 z m 8.199,-3.062 c -1.229,1.559 -2.247,2.576 -4.324,4.418 -1.823,1.684 -3.792,4.697 -3.875,7.738 3.798,-1.85 6.679,-3.736 8.58,-7.986 0.593,-1.35 0.973,-3.285 1.014,-4.396 0.042,-0.645 0.061,-1.447 0.018,-2.004 -0.381,0.769 -0.863,1.536 -1.413,2.23 z"
   id="path3351" />
	</g>
	<g
   id="g3353">
		<path
   d="m 340.675,220.215 c 1.18,-0.795 2.779,-1.979 4.434,-3.146 1.697,-1.123 3.096,-2.24 3.899,-3.258 1.438,-1.781 1.521,-3.004 1.606,-5.264 0.084,-2.041 -0.972,-5.352 -1.396,-5.848 0.191,-0.131 0.384,-0.26 0.575,-0.387 0.93,1.645 1.746,4.16 1.746,7.129 0,1.912 -0.168,3.174 -0.885,4.438 0.254,1.029 0.379,2.139 0.379,3.246 0,1.107 -0.21,2.213 -0.59,3.285 0.38,1.277 0.591,2.719 0.59,4.123 0,2.762 -1.221,5.563 -2.959,7.816 -1.313,1.719 -3.225,3.609 -5.298,5.328 -1.817,1.547 -2.018,3.541 -2.103,5.07 -0.342,-0.045 -0.684,-0.096 -1.023,-0.148 0,-14.02 0,-28.035 0,-42.055 0,-1.938 1.096,-3.777 2.703,-5.158 1.649,-1.428 3.729,-2.27 5.594,-2.168 1.23,0.061 2.286,0.559 3.045,1.289 0.801,0.738 1.264,1.738 1.264,2.836 0,1.73 -1.177,3.313 -2.783,4.512 -1.566,1.234 -3.604,2.074 -5.341,2.121 -1.483,0.039 -2.7,-0.117 -3.458,-0.779 0.001,5.672 0.001,11.346 0.001,17.018 z m 8.756,-4.428 c -1.648,1.914 -3.984,4.227 -5.934,5.93 -1.566,1.369 -2.773,4.059 -2.856,5.877 2.358,-1.234 5.02,-2.969 6.673,-5.051 1.44,-1.822 2.541,-3.588 2.624,-5.852 -0.01,-0.51 -0.019,-1.021 -0.028,-1.531 -0.129,0.213 -0.267,0.373 -0.479,0.627 z m -1.356,9.074 c -1.313,1.695 -3.225,3.58 -5.298,5.346 -1.817,1.598 -2.053,3.639 -2.137,4.744 2.358,-1.137 5.02,-2.807 6.673,-4.908 1.44,-1.838 2.541,-3.639 2.624,-5.904 0.043,-0.643 0.013,-1.498 -0.028,-2.27 -0.466,1.035 -1.113,2.078 -1.834,2.992 z"
   id="path3355" />
	</g>
	<g
   id="g3357">
		<path
   d="m 370.64,220.221 c 1.18,-0.816 2.779,-2.047 4.435,-3.215 1.695,-1.127 3.095,-2.229 3.898,-3.238 1.438,-1.764 1.521,-2.982 1.606,-5.24 0.084,-2.037 -0.968,-5.303 -1.391,-5.797 0.151,-0.107 0.305,-0.215 0.457,-0.32 0.93,1.643 1.86,4.055 1.86,7.021 0,1.91 -0.168,3.17 -0.885,4.424 0.253,1.031 0.38,2.141 0.38,3.246 0,1.105 -0.212,2.209 -0.592,3.271 0.381,1.281 0.592,2.727 0.592,4.131 0,1.191 -0.212,2.344 -0.633,3.461 0.38,1.357 0.633,2.836 0.633,4.367 0,2.758 -1.222,5.57 -2.959,7.824 -1.313,1.717 -3.226,3.602 -5.299,5.311 -1.819,1.539 -2.019,3.553 -2.104,5.08 -0.342,-0.045 -0.682,-0.094 -1.023,-0.148 0,-16.609 0,-33.215 0,-49.824 0,-1.938 1.097,-3.811 2.703,-5.191 1.649,-1.426 3.73,-2.266 5.595,-2.164 1.229,0.061 2.286,0.559 3.044,1.289 0.801,0.736 1.264,1.738 1.264,2.836 0,1.732 -1.175,3.307 -2.784,4.496 -1.563,1.225 -3.602,2.059 -5.34,2.111 -1.483,0.043 -2.7,-0.076 -3.458,-0.732 10e-4,5.667 10e-4,11.333 10e-4,17.001 z m 8.756,-4.475 c -1.648,1.891 -3.985,4.186 -5.934,5.904 -1.567,1.381 -2.773,4.1 -2.857,5.92 2.36,-1.295 5.021,-3.039 6.674,-5.104 1.441,-1.809 2.541,-3.555 2.624,-5.814 0,-0.527 0,-1.053 0,-1.58 -0.127,0.211 -0.296,0.42 -0.507,0.674 z m -1.354,9.039 c -1.313,1.68 -3.226,3.551 -5.299,5.348 -1.819,1.625 -2.053,3.684 -2.139,4.789 2.36,-1.211 5.021,-2.893 6.674,-4.975 1.441,-1.822 2.541,-3.598 2.624,-5.859 0.043,-0.643 0,-1.496 -0.042,-2.264 -0.464,1.024 -1.099,2.055 -1.818,2.961 z m 0,7.471 c -1.313,1.697 -3.226,3.576 -5.299,5.33 -1.819,1.584 -2.053,3.617 -2.139,5.146 2.36,-1.121 5.021,-2.775 6.674,-4.877 1.441,-1.834 2.541,-3.643 2.624,-5.906 0.044,-0.729 0,-1.836 -0.084,-2.732 -0.422,1.121 -1.057,2.123 -1.776,3.039 z"
   id="path3359" />
	</g>
	<g
   id="g3361">
		<path
   d="m 244.214,236.586 c -0.379,-0.049 -0.758,-0.105 -1.137,-0.164 0,-11.963 0,-23.922 0,-35.883 0.076,-3.672 4.707,-7.541 8.233,-7.318 1.059,0.045 2.128,0.338 2.97,0.992 1.35,1.057 1.637,2.484 1.596,4.039 -0.118,3.68 -4.58,6.5 -8.232,6.76 -1.061,0.066 -2.122,-0.016 -3.43,-0.783 0,10.785 0,21.57 0,32.357 z m 0.222,-34.19 c 0.001,0.598 0.295,0.787 1.013,0.877 1.225,0.016 3.516,-1.051 5.424,-2.516 1.951,-1.441 3.765,-3.307 3.639,-4.633 -0.043,-0.475 -0.465,-0.822 -0.888,-0.904 -1.815,-0.557 -5.128,1.764 -6.438,2.932 -1.613,1.411 -2.834,3.02 -2.75,4.244 z"
   id="path3363" />
	</g>
	<g
   id="g3365">
		<path
   d="m 276.038,164.984 c 0,1.895 -1.19,3.811 -2.84,5.236 -1.606,1.424 -3.73,2.268 -5.596,2.162 -1.186,-0.059 -2.285,-0.561 -3.043,-1.293 -0.801,-0.738 -1.264,-1.736 -1.264,-2.834 0,-1.73 1.176,-3.32 2.783,-4.529 1.607,-1.244 3.645,-2.094 5.34,-2.131 1.484,-0.031 2.723,0.064 3.48,0.736 0,-10.941 0,-21.882 0,-32.823 0.38,0.05 0.76,0.104 1.139,0.164 0.001,11.771 0.001,23.541 0.001,35.312 z"
   id="path3367" />
	</g>
	<g
   id="g3369">
		<path
   d="m 295.973,128.668 c 0.296,2.212 0.339,4.979 2.543,7.813 1.694,2.162 3.599,4.128 4.907,5.867 1.73,2.284 2.947,5.028 2.947,7.769 10e-4,4.373 -2.094,8.781 -3.531,11.342 -0.229,0.012 -0.457,0.023 -0.686,0.035 1.017,-2.406 3.039,-6.238 2.871,-10.273 -0.085,-2.258 -0.926,-4.703 -2.363,-6.568 -1.602,-2.168 -4.313,-3.999 -6.688,-4.188 0,8.341 0,16.681 0,25.021 0,1.98 -1.146,3.809 -2.8,5.098 -1.61,1.295 -3.73,1.967 -5.59,1.777 -1.184,-0.115 -2.279,-0.646 -3.035,-1.387 -0.801,-0.748 -1.264,-1.746 -1.264,-2.844 0,-1.729 1.176,-3.322 2.779,-4.504 1.603,-1.215 3.634,-2.012 5.33,-1.975 1.482,0.035 2.785,0.23 3.549,0.979 0,-11.322 0,-22.646 0,-33.969 0.344,0 0.688,0.002 1.031,0.007 z"
   id="path3371" />
		
	</g>
	<g
   id="g3375">
		<path
   d="m 147.939,177.65 h 3.07 v 26.23 h -3.07 v -26.23 z m 4.535,26.231 v -26.23 h 0.977 v 12.906 c 1.987,-1.188 2.873,-4.308 3.208,-5.856 l 0.069,-0.004 c 0.181,1.522 0.989,3.487 2.718,3.644 2.66,0.232 2.559,-3.258 2.584,-5.039 0.052,-2.349 -0.235,-4.667 -2.997,-4.899 -0.464,-0.051 -1.523,0.077 -1.523,0.749 0,0.207 0.284,0.412 0.542,0.671 0.284,0.283 0.542,0.646 0.542,1.239 0,1.032 -0.825,1.601 -1.78,1.601 -1.006,0 -1.759,-0.936 -1.759,-1.942 0,-2.425 2.843,-3.092 4.728,-3.092 3.329,0 5.623,2.471 5.597,6.162 -0.026,2.917 -1.881,5.299 -4.772,5.557 -0.774,0.078 -1.617,-0.051 -2.624,-0.464 l -1.256,1.884 1.256,1.884 c 1.007,-0.413 1.85,-0.567 2.624,-0.489 2.891,0.258 4.72,2.665 4.772,5.582 0,3.664 -2.268,6.162 -5.597,6.162 -1.911,0 -4.728,-0.761 -4.728,-3.162 0,-1.007 0.753,-1.924 1.759,-1.924 0.956,0 1.78,0.594 1.78,1.627 0,0.566 -0.258,0.955 -0.542,1.238 -0.258,0.258 -0.542,0.465 -0.542,0.697 0,0.619 1.084,0.773 1.523,0.773 2.762,0 3.049,-2.973 2.997,-5.063 -0.026,-1.781 0.022,-5.157 -2.584,-4.925 -1.729,0.155 -2.537,2.119 -2.718,3.668 h -0.069 c -0.336,-1.626 -1.195,-4.594 -3.208,-5.859 v 12.906 h -0.977 z"
   id="path3377" />
	</g>
	<g
   id="g3379">
		<path
   d="m 111.285,204.576 c 5.62,-3.758 9.195,-5.837 12.334,-11.313 1.35,-2.371 2.336,-5.765 2.336,-8.246 0,-2.006 -0.111,-3.502 -0.876,-4.962 -0.875,-1.679 -2.737,-2.991 -5.145,-2.774 -1.605,0.146 -3.54,0.731 -4.342,1.606 -0.438,0.475 -0.839,1.132 -1.095,1.679 -0.219,0.476 0,1.204 0.875,1.24 0.329,0 1.059,-0.291 1.46,-0.328 1.897,-0.219 3.466,1.313 3.466,2.957 0,1.605 -1.423,3.283 -3.685,3.283 -2.336,0 -4.307,-1.605 -4.379,-3.904 -0.073,-2.445 1.532,-4.927 3.795,-6.166 1.204,-0.767 3.832,-1.461 5.108,-1.461 2.335,0 4.415,0.401 6.604,2.226 2.189,1.825 2.919,3.321 3.248,6.387 0.475,4.342 -3.138,10.034 -6.641,12.917 -3.284,2.7 -8.319,5.438 -12.845,7.627 l -0.218,-0.768 z m 23.244,-25.58 c 1.204,0 1.971,0.986 1.971,1.972 0,1.021 -0.767,2.008 -1.971,2.008 -1.277,0 -2.007,-0.986 -2.007,-2.008 0,-0.986 0.73,-1.972 2.007,-1.972 z m 0,7.992 c 1.204,0 1.971,0.985 1.971,1.971 0,1.021 -0.767,2.007 -1.971,2.007 -1.277,0 -2.007,-0.985 -2.007,-2.007 0,-0.985 0.73,-1.971 2.007,-1.971 z"
   id="path3381" />
	</g>
	<g
   id="g3383">
		<path
   d="m 189.451,191.72 c -0.327,4.63 -3.312,8.872 -8.224,8.986 -2.6,0.036 -5.485,-2.005 -6.96,-4.232 -1.601,-2.284 -2.131,-4.675 -2.131,-7.304 0,-2.989 1.061,-5.356 3.28,-7.759 1.563,-1.703 4.078,-3.04 6.264,-2.991 3.224,0.03 7.162,2.463 7.567,6.004 0.367,1.781 -0.814,4.414 -3.362,4.429 -1.688,-0.005 -3.38,-1.146 -3.379,-3.203 0,-1.704 1.238,-2.829 2.679,-3.311 0.288,-0.159 0.987,0.056 1.11,-0.405 0.042,-0.253 -0.206,-0.698 -0.37,-0.84 -0.741,-0.74 -1.729,-1.109 -2.677,-1.232 -2.144,-0.302 -3.712,0.928 -4.496,2.038 -1.278,1.956 -1.36,4.472 -1.36,6.902 0.001,1.999 -0.165,5.067 0.702,7.313 0.7,1.491 1.689,2.954 4,3.048 1.897,0.092 3.379,-1.07 4.406,-2.458 1.191,-1.743 1.56,-3.103 1.889,-4.952 0.353,-0.011 0.707,-0.022 1.062,-0.033 z"
   id="path3385" />
	</g>
	<g
   id="g3387">
		<path
   d="m 207.051,198.771 c 3.099,1.358 6.344,-2.312 7.203,-7.03 0.354,-0.005 0.708,-0.012 1.063,-0.018 -0.325,4.669 -3.31,8.646 -8.266,8.715 0,2.42 0,4.842 0,7.264 -0.411,0.004 -0.824,0 -1.235,-0.006 0,-2.477 0,-4.955 0,-7.432 -5.242,-1.07 -7.813,-6.277 -7.813,-11.092 -0.002,-4.574 3.228,-9.105 7.813,-10.225 0,-2.506 0,-5.012 0,-7.519 0.411,-0.007 0.824,-0.008 1.235,-0.005 0,2.421 0,4.843 0,7.264 3.719,0.008 7.657,2.211 8.062,5.745 0.367,1.776 -0.814,4.424 -3.363,4.434 -1.687,-0.003 -3.377,-1.115 -3.377,-3.122 0,-1.666 1.236,-2.768 2.678,-3.271 0.289,-0.16 0.986,0.034 1.111,-0.424 0.206,-1.13 -2.305,-1.873 -3.048,-1.967 -0.741,-0.103 -1.444,0.017 -2.063,0.229 0,6.153 0,12.307 0,18.46 z m -3.794,-6.212 c 0,1.566 0.453,4.434 2.559,5.739 0,-5.78 0,-11.562 0,-17.343 -1.733,1.001 -2.559,3.28 -2.559,5.909 0,1.898 0,3.796 0,5.695 z"
   id="path3389" />
	</g>
	<path
   d="m 195.845,217.523 v 1.281 l -12.027,3.609 v 0.076 l 12.027,3.57 v 1.277 l -16.179,-4.887 16.179,-4.926 z"
   id="path3391" />
	<path
   d="m 158.279,227.34 v -1.281 l 12.027,-3.607 v -0.078 l -12.027,-3.568 v -1.281 l 16.179,4.889 -16.179,4.926 z"
   id="path3393" />
	<path
   d="m 213.204,230.898 v 1.279 l -24.5,3.607 v 0.08 l 24.5,3.568 v 1.279 l -32.957,-4.887 32.957,-4.926 z"
   id="path3395" />
	<path
   d="m 141.504,241.289 v -1.281 l 24.5,-3.607 v -0.078 l -24.5,-3.568 v -1.281 l 32.958,4.889 -32.958,4.926 z"
   id="path3397" />
	<g
   id="g3399">
		<path
   d="m 37.253,178.168 c 4.356,-0.386 8.503,1.345 11.123,4.878 2.518,3.396 3.36,7.882 2.577,12.007 -0.809,4.262 -3.525,7.819 -7.122,10.158 -0.903,0.587 -1.854,1.1 -2.835,1.544 0.199,1.561 0.396,3.12 0.596,4.683 0.368,2.895 1.041,5.92 1.022,8.84 -0.024,3.969 -1.321,7.951 -4.826,10.16 -3.462,2.184 -8.033,2.242 -11.485,0.041 -3.53,-2.246 -6.029,-6.805 -4.302,-10.939 1.723,-4.117 7.039,-5.428 9.841,-1.578 1.576,2.164 1.751,5.471 -0.146,7.508 -1.132,1.215 -3.328,2.182 -4.983,1.531 0.045,2.162 3.351,3.244 5.112,3.18 2.545,-0.111 5.05,-1.018 6.697,-3.031 1.716,-2.102 2.209,-4.859 2.142,-7.502 -0.051,-2.016 -0.451,-4.029 -0.734,-6.021 -0.288,-2.033 -0.576,-4.066 -0.863,-6.101 -9.157,2.216 -17.611,-3.306 -21.261,-11.604 -1.785,-4.053 -2.511,-8.717 -1.755,-13.098 0.768,-4.45 3.056,-8.451 5.837,-11.947 2.841,-3.573 6.196,-6.691 9.545,-9.776 0.384,-0.354 0.769,-0.708 1.153,-1.063 0.314,-0.289 0.396,-0.249 0.32,-0.707 -0.059,-0.355 -0.116,-0.711 -0.169,-1.066 -0.231,-1.522 -0.416,-3.052 -0.538,-4.587 -0.216,-2.69 -0.282,-5.435 -0.019,-8.124 0.352,-3.59 1.347,-7.213 2.847,-10.49 0.749,-1.636 1.66,-3.24 2.88,-4.573 0.861,-0.941 2.254,-2.184 3.614,-2.247 0.867,-0.041 1.518,1.155 1.87,1.778 0.795,1.412 1.342,2.969 1.815,4.514 1.105,3.611 1.898,7.503 1.808,11.295 -0.111,4.702 -1.688,9.409 -4.021,13.462 -1.226,2.128 -2.69,4.119 -4.344,5.936 -0.797,0.877 -1.637,1.712 -2.517,2.506 -0.426,0.383 -0.055,1.469 0.019,2.027 0.112,0.854 0.224,1.707 0.336,2.561 0.254,1.946 0.511,3.896 0.766,5.845 m -0.992,7.118 c -4.25,1.024 -7.68,5.849 -6.307,10.209 0.301,0.958 0.839,1.822 1.519,2.555 0.345,0.374 0.726,0.713 1.127,1.023 0.456,0.349 1.067,0.594 1.48,0.984 0.331,0.312 0.203,0.825 -0.198,1.002 -0.475,0.209 -1.014,-0.19 -1.417,-0.413 -0.994,-0.55 -1.898,-1.256 -2.681,-2.079 -3.136,-3.299 -4.165,-8.329 -2.389,-12.544 0.908,-2.156 2.418,-4.066 4.26,-5.502 0.85,-0.662 1.78,-1.228 2.775,-1.646 0.239,-0.101 0.481,-0.192 0.727,-0.274 0.411,-0.137 0.198,-0.436 0.149,-0.813 -0.109,-0.859 -0.219,-1.718 -0.329,-2.577 -0.25,-1.963 -0.501,-3.928 -0.751,-5.892 -6.88,5.478 -14.744,12.397 -14.569,22.002 0.158,8.61 8.03,15.358 16.544,14.676 0.779,-0.063 1.552,-0.194 2.31,-0.385 0.554,-0.138 0.251,-0.7 0.189,-1.188 -0.063,-0.489 -0.125,-0.979 -0.188,-1.471 -0.25,-1.959 -0.5,-3.92 -0.75,-5.881 -0.499,-3.929 -1,-7.856 -1.501,-11.786 m 8.63,-43.819 c 0.08,-2.337 -1.637,-4.938 -4.207,-3.965 -2.009,0.759 -3.314,2.749 -4.204,4.602 -2.437,5.069 -2.702,10.593 -1.768,16.071 5.131,-3.968 9.974,-9.941 10.179,-16.708 m -4.133,63.534 c 4.275,-2.112 7.035,-6.972 6.233,-11.731 -0.748,-4.436 -4.291,-7.854 -8.835,-8.102 0.864,6.611 1.732,13.223 2.602,19.833"
   id="path3401" />
	</g>
	<g
   id="g3403">
		<path
   d="m 80.565,176.21 c 4.941,-0.304 14.065,2.405 14.264,10.034 0.211,7.457 -9.089,10.324 -13.893,10.047 -5.084,-0.102 -14.025,-3.333 -14.22,-10.047 -0.214,-6.478 9.106,-9.918 13.849,-10.034 z m 1.854,18.403 c 2.949,-0.436 4.099,-1.969 3.894,-6.649 -0.344,-6.438 -3.802,-10.835 -7.229,-10.038 -2.878,0.685 -4.091,2.179 -3.886,6.665 0.272,6.125 3.791,10.575 7.221,10.022 z"
   id="path3405" />
		<path
   d="m 99.704,182.785 c 1.774,0.105 3.236,1.701 3.236,3.459 0,1.758 -1.538,3.214 -3.31,3.314 -1.774,0.095 -3.137,-1.354 -3.137,-3.314 0.001,-1.961 1.439,-3.56 3.211,-3.459 z"
   id="path3407" />
	</g>
	<g
   id="g3409">
		<path
   d="m 86.538,216.689 c 0.524,-0.086 1.297,-0.471 1.297,0.166 0,0.953 0,1.908 0,2.861 0,1.752 0,3.504 0,5.256 1.95,-0.592 3.921,-1.104 5.86,-1.453 0,4.473 0,8.943 0,13.416 0,2.344 0,4.689 0,7.033 0,0.693 0.186,0.789 -0.559,0.893 -0.314,0.043 -0.738,0.264 -0.738,-0.109 0,-0.494 0,-0.986 0,-1.48 0,-2.223 0,-4.443 0,-6.666 -1.951,0.59 -3.92,1.102 -5.86,1.449 0,-7.123 0,-14.242 0,-21.366 m 1.297,17.28 c 0.47,-0.086 4.567,-0.982 4.563,-1.215 0,-1.719 0,-3.439 0,-5.16 -0.471,0.094 -4.567,0.996 -4.563,1.229 0,1.716 0,3.433 0,5.146"
   id="path3411" />
	</g>
	<g
   id="g3413">
		<path
   d="m 102.183,217.369 c 0.235,-0.043 1.296,-0.322 1.297,-0.064 0,0.43 0,0.861 0,1.293 0,1.809 0,3.621 0,5.43 0,3.031 0,6.064 0,9.098 1.371,-1.047 3.235,-2.104 4.931,-1.125 1.517,0.879 2.099,2.59 1.517,4.246 -0.567,1.611 -1.909,2.9 -3.184,3.961 -1.639,1.365 -3.138,2.754 -4.561,4.059 0,-8.842 0,-17.682 0,-26.521 0,-0.127 0,-0.252 0,-0.377 m 1.297,24.32 c 1.439,-1.586 3.546,-3.604 3.72,-6.025 0.077,-1.051 -0.417,-2.285 -1.559,-2.457 -0.847,-0.152 -1.82,0.838 -2.106,1.549 -0.116,0.289 -0.055,0.676 -0.055,0.98 0,0.773 0,1.545 0,2.318 0,1.212 0,2.423 0,3.635"
   id="path3415" />
	</g>
	<g
   id="g3417">
		<path
   d="m 73.794,237.496 c -0.826,0.229 -1.652,0.441 -2.478,0.635 -0.305,0.072 -0.133,1.162 -0.133,1.439 0,2.109 0,4.219 0,6.328 0,0.057 0.036,0.348 -0.03,0.344 -0.196,-0.002 -1.161,0.061 -1.271,-0.086 -0.214,-0.273 0,-1.648 0,-1.971 0,-1.875 0,-3.752 0,-5.627 -0.615,0.119 -1.229,0.225 -1.839,0.316 0,-1.07 0,-2.143 0,-3.215 0,-0.172 -0.109,-0.877 0.079,-0.926 0.558,-0.143 1.119,-0.293 1.681,-0.449 0.265,-0.074 0.079,-2.443 0.079,-2.75 0,-1.035 0,-2.07 0,-3.105 -0.615,0.154 -1.229,0.311 -1.839,0.467 0,-1.08 0,-2.16 0,-3.24 0,-0.158 -0.1,-0.744 0.079,-0.797 0.558,-0.166 1.119,-0.328 1.681,-0.484 0.225,-0.063 0.079,-1.84 0.079,-2.078 0,-1.398 0,-2.801 0,-4.201 0,-0.416 -0.255,-1.869 0.237,-1.908 0.142,-0.018 1.064,-0.139 1.064,-0.012 0,0.367 0,0.736 0,1.104 0,2.236 0,4.471 0,6.705 0.826,-0.227 1.652,-0.438 2.478,-0.633 0.305,-0.07 0.132,-1.164 0.132,-1.438 0,-2.137 0,-4.273 0,-6.41 0,-0.643 1.304,-0.021 1.303,-0.176 0,0.703 0,1.406 0,2.107 0,1.867 0,3.73 0,5.596 0.614,-0.117 1.228,-0.227 1.838,-0.32 0,1.053 0,2.102 0,3.154 0,0.293 0.139,0.717 -0.169,0.795 -0.548,0.141 -1.098,0.287 -1.649,0.441 -0.154,0.041 -0.02,2.508 -0.02,2.734 0,1.035 0,2.07 0,3.107 0.614,-0.191 1.228,-0.385 1.838,-0.576 0,1.02 0,2.037 0,3.055 0,0.215 0.12,0.879 0,1.07 -0.137,0.221 -1.162,0.408 -1.411,0.49 -0.309,0.105 -0.427,0.049 -0.427,0.357 0,0.426 0,0.848 0,1.271 0,1.381 0,2.764 0,4.145 0,0.256 0.133,1.959 -0.114,1.979 -0.127,0.016 -1.189,0.105 -1.189,0.045 0,-0.303 0,-0.607 0,-0.91 10e-4,-2.124 10e-4,-4.247 10e-4,-6.372 m -2.61,-3.543 c 0.756,-0.188 1.512,-0.379 2.268,-0.576 0.544,-0.143 0.343,-0.527 0.343,-1.08 0,-1.625 0,-3.252 0,-4.879 -0.755,0.184 -1.512,0.379 -2.267,0.574 -0.545,0.145 -0.344,0.529 -0.344,1.08 0,1.627 0,3.254 0,4.881"
   id="path3419" />
	</g>
	<g
   id="g3421">
		<path
   d="m 121.761,227.672 c 0.277,2.07 2.613,1.879 2.866,-0.117 0.082,-0.641 0.162,-1.277 0.243,-1.914 0.077,-0.605 0.032,-0.551 0.6,-0.516 0.375,-0.014 3.08,0.18 3.077,0.447 0,0.6 0,1.201 0,1.803 0,0.266 0.17,1.35 0,1.545 -0.174,0.199 -1.304,0.174 -1.579,0.219 -0.658,0.1 -1.351,0.166 -1.825,0.736 -0.715,0.865 -0.15,2.002 0.768,2.289 0.601,0.189 1.282,0.211 1.898,0.287 0.441,0.057 0.738,-0.082 0.738,0.379 0,0.721 0,1.439 0,2.16 0,0.119 0.061,0.998 -0.049,1.016 -0.613,0.094 -1.229,0.172 -1.845,0.232 -0.554,0.055 -1.108,0.096 -1.665,0.125 -0.127,0.006 -0.193,-1.336 -0.211,-1.502 -0.063,-0.582 -0.061,-1.252 -0.316,-1.783 -0.478,-1.002 -1.684,-1.195 -2.304,-0.227 -0.599,0.936 -0.611,2.414 -0.795,3.484 -0.026,0.172 -2.983,-0.227 -3.298,-0.314 -0.345,-0.055 -0.192,-0.41 -0.192,-0.715 0,-0.744 0,-1.486 0,-2.229 0,-0.496 -0.094,-0.523 0.383,-0.605 0.611,-0.105 1.225,-0.219 1.839,-0.344 1.866,-0.377 1.858,-2.777 -0.052,-3.012 -0.597,-0.076 -1.193,-0.143 -1.788,-0.201 -0.525,-0.049 -0.383,-0.176 -0.383,-0.713 0,-0.875 0,-1.75 0,-2.625 -10e-4,-0.252 1.495,-0.324 1.739,-0.336 0.308,-0.041 1.714,-0.352 1.771,0.016 0.128,0.804 0.254,1.606 0.38,2.415"
   id="path3423" />
	</g>
	<g
   id="g3425">
		<path
   d="m 71.287,140.546 c -0.015,-0.086 -0.023,-0.18 -0.027,-0.281 -0.004,-0.101 -0.005,-0.252 -0.005,-0.454 0,-0.829 0.171,-1.591 0.514,-2.282 0.343,-0.691 0.874,-1.356 1.595,-1.989 0.504,-0.44 1.305,-0.966 2.401,-1.58 0.49,-0.267 0.847,-0.473 1.071,-0.616 0.685,-0.426 1.155,-0.823 1.411,-1.195 0.256,-0.371 0.384,-0.813 0.384,-1.324 0,-0.635 -0.24,-1.146 -0.719,-1.531 -0.479,-0.385 -1.12,-0.578 -1.92,-0.578 -0.656,0 -1.2,0.129 -1.633,0.389 -0.433,0.261 -0.75,0.639 -0.952,1.137 0.13,-0.029 0.255,-0.055 0.374,-0.075 0.119,-0.022 0.222,-0.034 0.308,-0.034 0.461,0 0.836,0.142 1.125,0.422 0.288,0.282 0.432,0.646 0.432,1.092 0,0.513 -0.196,0.947 -0.589,1.305 -0.393,0.357 -0.878,0.535 -1.455,0.535 -0.713,0 -1.283,-0.219 -1.708,-0.66 -0.426,-0.439 -0.638,-1.035 -0.638,-1.783 0,-1.241 0.546,-2.277 1.638,-3.109 1.092,-0.834 2.475,-1.25 4.148,-1.25 1.78,0 3.203,0.407 4.266,1.223 1.064,0.814 1.596,1.899 1.596,3.255 0,1.016 -0.342,1.888 -1.027,2.611 -0.686,0.725 -1.698,1.286 -3.039,1.683 -0.188,0.059 -0.451,0.135 -0.79,0.227 -2.192,0.643 -3.591,1.384 -4.197,2.229 0.447,-0.245 0.9,-0.428 1.357,-0.547 0.458,-0.119 0.936,-0.178 1.433,-0.178 0.541,0 1.182,0.082 1.925,0.242 0.743,0.163 1.222,0.245 1.438,0.245 0.454,0 0.779,-0.145 0.973,-0.435 0.195,-0.287 0.292,-0.771 0.292,-1.449 h 1.947 c 0.007,0.103 0.013,0.207 0.017,0.32 0.003,0.111 0.005,0.275 0.005,0.492 0,1.485 -0.325,2.582 -0.974,3.287 -0.649,0.707 -1.655,1.061 -3.017,1.061 -0.657,0 -1.471,-0.199 -2.444,-0.595 -0.159,-0.065 -0.274,-0.112 -0.346,-0.141 -0.498,-0.188 -0.9,-0.323 -1.206,-0.405 -0.306,-0.084 -0.568,-0.125 -0.784,-0.125 -0.304,0 -0.564,0.072 -0.784,0.217 -0.22,0.144 -0.395,0.359 -0.524,0.648 h -1.872 z"
   id="path3427" />
		<path
   d="m 71.287,157.719 c -0.015,-0.085 -0.023,-0.18 -0.027,-0.28 -0.004,-0.1 -0.005,-0.253 -0.005,-0.454 0,-0.83 0.171,-1.591 0.514,-2.283 0.343,-0.691 0.874,-1.354 1.595,-1.989 0.504,-0.439 1.305,-0.966 2.401,-1.579 0.49,-0.268 0.847,-0.472 1.071,-0.617 0.685,-0.425 1.155,-0.822 1.411,-1.194 0.256,-0.372 0.384,-0.813 0.384,-1.325 0,-0.635 -0.24,-1.144 -0.719,-1.53 -0.479,-0.386 -1.12,-0.579 -1.92,-0.579 -0.656,0 -1.2,0.131 -1.633,0.39 -0.433,0.261 -0.75,0.639 -0.952,1.136 0.13,-0.027 0.255,-0.055 0.374,-0.075 0.119,-0.021 0.222,-0.034 0.308,-0.034 0.461,0 0.836,0.143 1.125,0.423 0.288,0.282 0.432,0.646 0.432,1.093 0,0.513 -0.196,0.947 -0.589,1.304 -0.393,0.356 -0.878,0.535 -1.455,0.535 -0.713,0 -1.283,-0.22 -1.708,-0.66 -0.426,-0.44 -0.638,-1.034 -0.638,-1.784 0,-1.24 0.546,-2.277 1.638,-3.109 1.092,-0.833 2.475,-1.249 4.148,-1.249 1.78,0 3.203,0.406 4.266,1.222 1.064,0.816 1.596,1.9 1.596,3.255 0,1.018 -0.342,1.888 -1.027,2.612 -0.686,0.725 -1.698,1.287 -3.039,1.683 -0.188,0.058 -0.451,0.134 -0.79,0.227 -2.192,0.643 -3.591,1.385 -4.197,2.228 0.447,-0.244 0.9,-0.426 1.357,-0.546 0.458,-0.118 0.936,-0.177 1.433,-0.177 0.541,0 1.182,0.08 1.925,0.242 0.743,0.162 1.222,0.244 1.438,0.244 0.454,0 0.779,-0.145 0.973,-0.435 0.195,-0.288 0.292,-0.77 0.292,-1.449 h 1.947 c 0.007,0.103 0.013,0.208 0.017,0.32 0.003,0.111 0.005,0.274 0.005,0.491 0,1.486 -0.325,2.582 -0.974,3.287 -0.649,0.707 -1.655,1.061 -3.017,1.061 -0.657,0 -1.471,-0.198 -2.444,-0.595 -0.159,-0.063 -0.274,-0.111 -0.346,-0.14 -0.498,-0.188 -0.9,-0.323 -1.206,-0.404 -0.306,-0.085 -0.568,-0.126 -0.784,-0.126 -0.304,0 -0.564,0.072 -0.784,0.217 -0.22,0.145 -0.395,0.359 -0.524,0.647 h -1.872 z"
   id="path3429" />
	</g>
	<g
   id="g3431">
		<path
   d="m 90.173,140.546 c -0.015,-0.086 -0.023,-0.18 -0.026,-0.281 -0.004,-0.102 -0.006,-0.252 -0.006,-0.454 0,-0.829 0.171,-1.591 0.514,-2.282 0.342,-0.691 0.874,-1.356 1.595,-1.989 0.504,-0.44 1.305,-0.966 2.401,-1.58 0.49,-0.267 0.847,-0.473 1.07,-0.616 0.686,-0.426 1.156,-0.823 1.412,-1.195 0.256,-0.371 0.384,-0.813 0.384,-1.324 0,-0.635 -0.24,-1.146 -0.72,-1.531 -0.479,-0.385 -1.119,-0.578 -1.919,-0.578 -0.657,0 -1.201,0.129 -1.633,0.389 -0.433,0.261 -0.75,0.639 -0.952,1.137 0.129,-0.029 0.254,-0.055 0.373,-0.075 0.119,-0.022 0.221,-0.034 0.309,-0.034 0.461,0 0.836,0.142 1.125,0.422 0.288,0.282 0.432,0.646 0.432,1.092 0,0.513 -0.196,0.947 -0.589,1.305 -0.393,0.358 -0.877,0.535 -1.455,0.535 -0.713,0 -1.283,-0.219 -1.708,-0.66 -0.425,-0.439 -0.638,-1.035 -0.638,-1.783 0,-1.241 0.546,-2.277 1.639,-3.109 1.092,-0.834 2.475,-1.25 4.147,-1.25 1.78,0 3.203,0.407 4.267,1.223 1.063,0.814 1.595,1.899 1.595,3.255 0,1.016 -0.343,1.888 -1.027,2.611 -0.686,0.725 -1.699,1.286 -3.04,1.683 -0.188,0.059 -0.451,0.135 -0.79,0.227 -2.192,0.643 -3.59,1.384 -4.196,2.229 0.447,-0.245 0.899,-0.428 1.357,-0.547 0.458,-0.119 0.936,-0.178 1.433,-0.178 0.541,0 1.183,0.082 1.925,0.242 0.743,0.163 1.223,0.245 1.439,0.245 0.454,0 0.778,-0.145 0.973,-0.435 0.195,-0.287 0.292,-0.771 0.292,-1.449 h 1.946 c 0.007,0.103 0.013,0.207 0.016,0.32 0.004,0.111 0.006,0.275 0.006,0.492 0,1.485 -0.326,2.582 -0.974,3.287 -0.649,0.707 -1.654,1.061 -3.018,1.061 -0.656,0 -1.471,-0.199 -2.444,-0.595 -0.159,-0.065 -0.274,-0.112 -0.346,-0.141 -0.498,-0.188 -0.9,-0.323 -1.206,-0.405 -0.307,-0.084 -0.567,-0.125 -0.785,-0.125 -0.302,0 -0.564,0.072 -0.784,0.217 -0.22,0.144 -0.395,0.359 -0.524,0.648 h -1.87 z"
   id="path3433" />
		<path
   d="m 94.217,157.719 v -1.838 h 0.595 c 0.699,0 1.159,-0.062 1.379,-0.184 0.22,-0.123 0.33,-0.483 0.33,-1.081 v -0.087 -0.909 h -6.446 v -2.12 l 6.89,-7.268 h 3.341 v 7.442 h 2.152 v 1.945 h -2.152 v 1.331 c 0,0.374 0.099,0.623 0.297,0.746 0.199,0.122 0.623,0.184 1.271,0.184 h 0.584 v 1.838 h -8.241 z m -1.924,-6.044 h 4.229 l 0.043,-4.349 -4.272,4.349 z"
   id="path3435" />
	</g>
	<g
   id="g3437">
		<path
   d="m 113.904,134.414 v -1.86 c 0.908,-0.043 1.584,-0.229 2.027,-0.557 0.444,-0.328 0.665,-0.803 0.665,-1.424 0,-0.64 -0.239,-1.147 -0.719,-1.52 -0.479,-0.37 -1.13,-0.555 -1.952,-0.555 -0.447,0 -0.849,0.06 -1.206,0.184 -0.357,0.122 -0.68,0.313 -0.967,0.571 h 0.194 c 0.469,0 0.842,0.131 1.12,0.39 0.277,0.26 0.417,0.61 0.417,1.05 0,0.526 -0.174,0.948 -0.52,1.266 -0.346,0.317 -0.807,0.477 -1.384,0.477 -0.634,0 -1.133,-0.183 -1.498,-0.546 -0.363,-0.365 -0.546,-0.868 -0.546,-1.511 0,-1.125 0.482,-2.022 1.444,-2.692 0.962,-0.671 2.269,-1.006 3.92,-1.006 1.832,0 3.241,0.315 4.229,0.946 0.988,0.632 1.482,1.528 1.482,2.688 0,0.764 -0.25,1.408 -0.752,1.931 -0.501,0.521 -1.195,0.858 -2.082,1.011 1.139,0.288 1.988,0.716 2.547,1.281 0.559,0.566 0.838,1.277 0.838,2.135 0,1.4 -0.557,2.465 -1.671,3.196 -1.114,0.732 -2.742,1.099 -4.883,1.099 -1.701,0 -3.046,-0.333 -4.034,-1 -0.988,-0.668 -1.481,-1.566 -1.481,-2.698 0,-0.722 0.21,-1.305 0.632,-1.747 0.422,-0.444 0.971,-0.666 1.649,-0.666 0.562,0 1.031,0.177 1.406,0.529 0.375,0.354 0.563,0.799 0.563,1.332 0,0.49 -0.161,0.881 -0.482,1.173 -0.321,0.293 -0.759,0.438 -1.314,0.438 0.318,0.253 0.674,0.438 1.071,0.557 0.396,0.12 0.854,0.179 1.374,0.179 0.937,0 1.658,-0.218 2.163,-0.655 0.504,-0.435 0.757,-1.061 0.757,-1.875 0,-0.729 -0.243,-1.266 -0.73,-1.605 -0.488,-0.345 -1.246,-0.516 -2.277,-0.516 z"
   id="path3439" />
		<path
   d="m 109.058,157.719 c -0.014,-0.085 -0.023,-0.18 -0.027,-0.28 -0.004,-0.1 -0.005,-0.253 -0.005,-0.454 0,-0.83 0.171,-1.591 0.514,-2.283 0.343,-0.691 0.875,-1.354 1.595,-1.989 0.505,-0.439 1.305,-0.966 2.401,-1.579 0.489,-0.268 0.847,-0.472 1.07,-0.617 0.685,-0.425 1.155,-0.822 1.412,-1.194 0.256,-0.372 0.384,-0.813 0.384,-1.325 0,-0.635 -0.24,-1.144 -0.72,-1.53 -0.479,-0.386 -1.119,-0.579 -1.919,-0.579 -0.656,0 -1.201,0.131 -1.634,0.39 -0.432,0.261 -0.75,0.639 -0.952,1.136 0.131,-0.027 0.255,-0.055 0.374,-0.075 0.118,-0.021 0.222,-0.034 0.308,-0.034 0.462,0 0.836,0.143 1.125,0.423 0.289,0.282 0.433,0.646 0.433,1.093 0,0.513 -0.197,0.947 -0.589,1.304 -0.394,0.356 -0.879,0.535 -1.455,0.535 -0.714,0 -1.283,-0.22 -1.709,-0.66 -0.426,-0.44 -0.638,-1.034 -0.638,-1.784 0,-1.24 0.546,-2.277 1.638,-3.109 1.093,-0.833 2.475,-1.249 4.148,-1.249 1.781,0 3.203,0.406 4.267,1.222 1.063,0.816 1.595,1.9 1.595,3.255 0,1.018 -0.342,1.888 -1.027,2.612 -0.685,0.725 -1.698,1.287 -3.039,1.683 -0.188,0.058 -0.451,0.134 -0.79,0.227 -2.192,0.643 -3.591,1.385 -4.197,2.228 0.447,-0.244 0.9,-0.426 1.358,-0.546 0.458,-0.118 0.935,-0.177 1.433,-0.177 0.541,0 1.182,0.08 1.925,0.242 0.743,0.162 1.222,0.244 1.438,0.244 0.454,0 0.779,-0.145 0.974,-0.435 0.194,-0.288 0.292,-0.77 0.292,-1.449 h 1.947 c 0.008,0.103 0.013,0.208 0.017,0.32 0.003,0.111 0.005,0.274 0.005,0.491 0,1.486 -0.324,2.582 -0.974,3.287 -0.649,0.707 -1.655,1.061 -3.017,1.061 -0.656,0 -1.472,-0.198 -2.445,-0.595 -0.159,-0.063 -0.274,-0.111 -0.346,-0.14 -0.498,-0.188 -0.899,-0.323 -1.206,-0.404 -0.306,-0.085 -0.567,-0.126 -0.784,-0.126 -0.303,0 -0.564,0.072 -0.784,0.217 -0.22,0.145 -0.395,0.359 -0.525,0.647 h -1.871 z"
   id="path3441" />
	</g>
	<g
   id="g3443">
		<path
   d="m 132.79,134.414 v -1.86 c 0.909,-0.043 1.584,-0.229 2.028,-0.557 0.443,-0.328 0.665,-0.803 0.665,-1.424 0,-0.64 -0.24,-1.147 -0.719,-1.52 -0.479,-0.37 -1.13,-0.555 -1.952,-0.555 -0.447,0 -0.849,0.06 -1.206,0.184 -0.357,0.122 -0.68,0.313 -0.968,0.571 h 0.195 c 0.469,0 0.842,0.131 1.119,0.39 0.277,0.26 0.417,0.61 0.417,1.05 0,0.526 -0.173,0.948 -0.519,1.266 -0.346,0.318 -0.808,0.477 -1.384,0.477 -0.634,0 -1.134,-0.183 -1.499,-0.546 -0.364,-0.365 -0.546,-0.868 -0.546,-1.511 0,-1.125 0.481,-2.022 1.444,-2.692 0.962,-0.671 2.269,-1.006 3.92,-1.006 1.832,0 3.241,0.315 4.229,0.946 0.988,0.632 1.481,1.528 1.481,2.688 0,0.764 -0.25,1.408 -0.751,1.931 -0.501,0.521 -1.195,0.858 -2.082,1.011 1.139,0.288 1.988,0.716 2.547,1.281 0.559,0.566 0.838,1.277 0.838,2.135 0,1.4 -0.557,2.465 -1.671,3.196 -1.114,0.732 -2.742,1.099 -4.883,1.099 -1.701,0 -3.046,-0.333 -4.034,-1 -0.988,-0.668 -1.482,-1.566 -1.482,-2.698 0,-0.722 0.211,-1.305 0.633,-1.747 0.422,-0.444 0.971,-0.666 1.649,-0.666 0.562,0 1.031,0.177 1.406,0.529 0.375,0.354 0.563,0.799 0.563,1.332 0,0.49 -0.161,0.881 -0.481,1.173 -0.321,0.293 -0.76,0.438 -1.314,0.438 0.317,0.253 0.674,0.438 1.071,0.557 0.397,0.12 0.854,0.179 1.374,0.179 0.937,0 1.657,-0.218 2.163,-0.655 0.504,-0.435 0.758,-1.061 0.758,-1.875 0,-0.729 -0.244,-1.266 -0.73,-1.605 -0.489,-0.345 -1.249,-0.516 -2.279,-0.516 z"
   id="path3445" />
		<path
   d="m 131.989,157.719 v -1.838 h 0.595 c 0.699,0 1.159,-0.062 1.379,-0.184 0.22,-0.123 0.33,-0.483 0.33,-1.081 v -0.087 -0.909 h -6.446 v -2.12 l 6.889,-7.268 h 3.342 v 7.442 h 2.152 v 1.945 h -2.152 v 1.331 c 0,0.374 0.099,0.623 0.297,0.746 0.198,0.122 0.622,0.184 1.271,0.184 h 0.584 v 1.838 h -8.241 z m -1.925,-6.044 h 4.229 l 0.043,-4.349 -4.272,4.349 z"
   id="path3447" />
	</g>
	<g
   id="g3449">
		<path
   d="m 151.675,134.414 v -1.86 c 0.908,-0.043 1.584,-0.229 2.027,-0.557 0.443,-0.328 0.666,-0.803 0.666,-1.424 0,-0.64 -0.24,-1.147 -0.719,-1.52 -0.479,-0.37 -1.13,-0.555 -1.953,-0.555 -0.447,0 -0.849,0.06 -1.205,0.184 -0.358,0.122 -0.681,0.313 -0.968,0.571 h 0.194 c 0.469,0 0.842,0.131 1.12,0.39 0.278,0.26 0.417,0.61 0.417,1.05 0,0.526 -0.173,0.948 -0.52,1.266 -0.346,0.317 -0.806,0.477 -1.384,0.477 -0.634,0 -1.134,-0.183 -1.498,-0.546 -0.364,-0.365 -0.546,-0.868 -0.546,-1.511 0,-1.125 0.481,-2.022 1.443,-2.692 0.963,-0.671 2.269,-1.006 3.92,-1.006 1.832,0 3.241,0.315 4.229,0.946 0.988,0.632 1.482,1.528 1.482,2.688 0,0.764 -0.251,1.408 -0.753,1.931 -0.501,0.521 -1.194,0.858 -2.081,1.011 1.138,0.288 1.987,0.716 2.546,1.281 0.559,0.566 0.838,1.277 0.838,2.135 0,1.4 -0.556,2.465 -1.67,3.196 -1.115,0.732 -2.742,1.099 -4.884,1.099 -1.702,0 -3.046,-0.333 -4.035,-1 -0.987,-0.668 -1.481,-1.566 -1.481,-2.698 0,-0.722 0.211,-1.305 0.633,-1.747 0.421,-0.444 0.971,-0.666 1.649,-0.666 0.563,0 1.031,0.177 1.406,0.529 0.375,0.354 0.563,0.799 0.563,1.332 0,0.49 -0.162,0.881 -0.481,1.173 -0.321,0.293 -0.759,0.438 -1.314,0.438 0.317,0.253 0.674,0.438 1.07,0.557 0.397,0.12 0.854,0.179 1.374,0.179 0.938,0 1.659,-0.218 2.163,-0.655 0.505,-0.435 0.757,-1.061 0.757,-1.875 0,-0.729 -0.243,-1.266 -0.73,-1.605 -0.485,-0.345 -1.243,-0.516 -2.275,-0.516 z"
   id="path3451" />
		<path
   d="m 149.317,151.058 c -0.692,-0.396 -1.211,-0.856 -1.558,-1.38 -0.346,-0.522 -0.52,-1.112 -0.52,-1.769 0,-1.276 0.512,-2.277 1.537,-3.007 1.023,-0.728 2.447,-1.091 4.271,-1.091 1.593,0 2.873,0.307 3.84,0.919 0.966,0.611 1.449,1.414 1.449,2.401 0,0.599 -0.188,1.116 -0.563,1.558 -0.375,0.439 -0.949,0.814 -1.72,1.123 1.017,0.361 1.777,0.859 2.282,1.493 0.504,0.636 0.757,1.406 0.757,2.314 0,1.392 -0.572,2.487 -1.714,3.282 -1.143,0.798 -2.728,1.195 -4.754,1.195 -1.911,0 -3.381,-0.34 -4.412,-1.022 -1.031,-0.681 -1.547,-1.647 -1.547,-2.903 0,-0.715 0.23,-1.343 0.692,-1.886 0.463,-0.545 1.117,-0.954 1.96,-1.227 z m 1.709,0.973 c -0.549,0.267 -0.954,0.569 -1.217,0.908 -0.264,0.339 -0.395,0.729 -0.395,1.168 0,0.684 0.279,1.229 0.838,1.633 0.558,0.405 1.31,0.606 2.255,0.606 1.024,0 1.778,-0.145 2.266,-0.433 0.486,-0.289 0.73,-0.736 0.73,-1.342 0,-0.381 -0.261,-0.736 -0.784,-1.066 -0.523,-0.325 -1.754,-0.817 -3.693,-1.474 z m 3.277,-2.997 c 0.433,-0.222 0.755,-0.485 0.968,-0.788 0.212,-0.305 0.318,-0.652 0.318,-1.051 0,-0.475 -0.236,-0.859 -0.708,-1.151 -0.473,-0.292 -1.108,-0.438 -1.909,-0.438 -0.714,0 -1.272,0.122 -1.677,0.367 -0.403,0.245 -0.605,0.589 -0.605,1.027 0,0.649 1.096,1.295 3.288,1.938 l 0.325,0.096 z"
   id="path3453" />
	</g>
	<g
   id="g3455">
		<path
   d="m 169.76,140.546 v -1.838 h 0.595 c 0.699,0 1.159,-0.062 1.379,-0.185 0.219,-0.122 0.33,-0.483 0.33,-1.081 v -0.087 -0.908 h -6.446 v -2.12 l 6.89,-7.268 h 3.342 v 7.44 h 2.152 v 1.947 h -2.152 v 1.33 c 0,0.375 0.099,0.624 0.297,0.746 0.199,0.123 0.623,0.185 1.271,0.185 h 0.584 v 1.838 h -8.242 z m -1.925,-6.046 h 4.229 l 0.043,-4.347 -4.272,4.347 z"
   id="path3457" />
		<path
   d="m 169.76,157.719 v -1.838 h 0.595 c 0.699,0 1.159,-0.062 1.379,-0.184 0.219,-0.123 0.33,-0.483 0.33,-1.081 v -0.087 -0.909 h -6.446 v -2.12 l 6.89,-7.268 h 3.342 v 7.442 h 2.152 v 1.945 h -2.152 v 1.331 c 0,0.374 0.099,0.623 0.297,0.746 0.199,0.122 0.623,0.184 1.271,0.184 h 0.584 v 1.838 h -8.242 z m -1.925,-6.044 h 4.229 l 0.043,-4.349 -4.272,4.349 z"
   id="path3459" />
	</g>
	<g
   id="g3461">
		<path
   d="m 188.754,133.191 c 0.483,-0.331 0.986,-0.576 1.509,-0.735 0.522,-0.158 1.09,-0.238 1.704,-0.238 1.449,0 2.597,0.384 3.444,1.147 0.849,0.765 1.272,1.799 1.272,3.104 0,1.326 -0.522,2.405 -1.564,3.233 -1.041,0.83 -2.403,1.244 -4.082,1.244 -1.968,0 -3.52,-0.604 -4.656,-1.811 -1.136,-1.209 -1.704,-2.865 -1.704,-4.971 0,-2.322 0.604,-4.149 1.812,-5.482 1.208,-1.335 2.872,-2.002 4.991,-2.002 1.428,0 2.567,0.27 3.417,0.806 0.852,0.537 1.277,1.242 1.277,2.114 0,0.563 -0.192,1.021 -0.578,1.373 -0.387,0.354 -0.886,0.53 -1.498,0.53 -0.592,0 -1.067,-0.151 -1.423,-0.454 -0.356,-0.303 -0.535,-0.702 -0.535,-1.2 0,-0.289 0.073,-0.538 0.216,-0.747 0.145,-0.209 0.359,-0.381 0.648,-0.519 -0.194,-0.072 -0.386,-0.126 -0.573,-0.162 -0.188,-0.035 -0.365,-0.054 -0.529,-0.054 -1.033,0 -1.814,0.385 -2.349,1.157 -0.533,0.771 -0.8,1.903 -0.8,3.396 v 0.271 z m 2.109,5.959 c 0.547,0 0.983,-0.213 1.31,-0.638 0.323,-0.425 0.485,-1.002 0.485,-1.729 0,-0.859 -0.16,-1.521 -0.48,-1.986 -0.322,-0.463 -0.773,-0.696 -1.358,-0.696 -0.556,0 -1.009,0.229 -1.363,0.687 -0.352,0.458 -0.529,1.054 -0.529,1.789 0,0.829 0.168,1.467 0.504,1.909 0.334,0.444 0.811,0.664 1.431,0.664 z"
   id="path3463" />
		<path
   d="m 187.088,151.058 c -0.692,-0.396 -1.211,-0.856 -1.558,-1.38 -0.346,-0.522 -0.519,-1.112 -0.519,-1.769 0,-1.276 0.512,-2.277 1.536,-3.007 1.023,-0.728 2.447,-1.091 4.271,-1.091 1.594,0 2.874,0.307 3.841,0.919 0.965,0.611 1.448,1.414 1.448,2.401 0,0.599 -0.188,1.116 -0.563,1.558 -0.375,0.439 -0.948,0.814 -1.72,1.123 1.017,0.361 1.778,0.859 2.283,1.493 0.505,0.636 0.757,1.406 0.757,2.314 0,1.392 -0.572,2.487 -1.715,3.282 -1.142,0.798 -2.728,1.195 -4.753,1.195 -1.911,0 -3.381,-0.34 -4.412,-1.022 -1.031,-0.681 -1.547,-1.647 -1.547,-2.903 0,-0.715 0.231,-1.343 0.692,-1.886 0.463,-0.545 1.116,-0.954 1.959,-1.227 z m 1.71,0.973 c -0.549,0.267 -0.953,0.569 -1.217,0.908 -0.263,0.339 -0.394,0.729 -0.394,1.168 0,0.684 0.279,1.229 0.838,1.633 0.558,0.405 1.31,0.606 2.254,0.606 1.023,0 1.779,-0.145 2.266,-0.433 0.486,-0.289 0.73,-0.736 0.73,-1.342 0,-0.381 -0.261,-0.736 -0.783,-1.066 -0.524,-0.325 -1.755,-0.817 -3.694,-1.474 z m 3.276,-2.997 c 0.433,-0.222 0.755,-0.485 0.967,-0.788 0.214,-0.305 0.32,-0.652 0.32,-1.051 0,-0.475 -0.237,-0.859 -0.709,-1.151 -0.472,-0.292 -1.108,-0.438 -1.908,-0.438 -0.714,0 -1.273,0.122 -1.677,0.367 -0.405,0.245 -0.606,0.589 -0.606,1.027 0,0.649 1.096,1.295 3.287,1.938 l 0.326,0.096 z"
   id="path3465" />
	</g>
	<g
   id="g3467">
		<path
   d="m 211.489,134.414 c -0.49,0.339 -0.998,0.59 -1.524,0.752 -0.526,0.161 -1.095,0.243 -1.71,0.243 -1.441,0 -2.587,-0.383 -3.438,-1.147 -0.852,-0.763 -1.277,-1.799 -1.277,-3.104 0,-1.342 0.521,-2.426 1.563,-3.255 1.043,-0.829 2.404,-1.244 4.084,-1.244 1.975,0 3.529,0.604 4.661,1.813 1.132,1.206 1.696,2.863 1.696,4.969 0,2.328 -0.604,4.161 -1.814,5.499 -1.21,1.338 -2.874,2.007 -4.986,2.007 -1.42,0 -2.559,-0.272 -3.412,-0.815 -0.854,-0.545 -1.281,-1.257 -1.281,-2.137 0,-0.556 0.193,-1.012 0.584,-1.368 0.389,-0.357 0.896,-0.535 1.525,-0.535 0.582,0 1.049,0.154 1.4,0.464 0.35,0.311 0.523,0.718 0.523,1.223 0,0.282 -0.07,0.524 -0.211,0.729 -0.141,0.206 -0.359,0.377 -0.654,0.514 0.231,0.08 0.435,0.139 0.611,0.179 0.176,0.041 0.346,0.06 0.503,0.06 1.03,0 1.815,-0.389 2.352,-1.168 0.538,-0.777 0.806,-1.919 0.806,-3.418 v -0.261 z m -2.118,-5.959 c -0.55,0 -0.984,0.212 -1.31,0.637 -0.324,0.427 -0.487,1.003 -0.487,1.731 0,0.857 0.161,1.523 0.483,1.994 0.318,0.473 0.773,0.709 1.355,0.709 0.556,0 1.012,-0.233 1.369,-0.703 0.355,-0.469 0.534,-1.07 0.534,-1.806 0,-0.815 -0.169,-1.444 -0.508,-1.893 -0.337,-0.445 -0.818,-0.669 -1.436,-0.669 z"
   id="path3469" />
		<path
   d="m 205.974,151.058 c -0.691,-0.396 -1.211,-0.856 -1.557,-1.38 -0.346,-0.522 -0.52,-1.112 -0.52,-1.769 0,-1.276 0.512,-2.277 1.536,-3.007 1.023,-0.728 2.446,-1.091 4.272,-1.091 1.592,0 2.873,0.307 3.84,0.919 0.966,0.611 1.449,1.414 1.449,2.401 0,0.599 -0.188,1.116 -0.563,1.558 -0.375,0.439 -0.949,0.814 -1.721,1.123 1.018,0.361 1.777,0.859 2.283,1.493 0.504,0.636 0.758,1.406 0.758,2.314 0,1.392 -0.572,2.487 -1.717,3.282 -1.142,0.798 -2.727,1.195 -4.752,1.195 -1.912,0 -3.382,-0.34 -4.413,-1.022 -1.031,-0.681 -1.547,-1.647 -1.547,-2.903 0,-0.715 0.23,-1.343 0.692,-1.886 0.464,-0.545 1.116,-0.954 1.96,-1.227 z m 1.71,0.973 c -0.548,0.267 -0.954,0.569 -1.218,0.908 -0.263,0.339 -0.395,0.729 -0.395,1.168 0,0.684 0.279,1.229 0.838,1.633 0.559,0.405 1.311,0.606 2.256,0.606 1.023,0 1.779,-0.145 2.266,-0.433 0.486,-0.289 0.729,-0.736 0.729,-1.342 0,-0.381 -0.261,-0.736 -0.784,-1.066 -0.522,-0.325 -1.754,-0.817 -3.692,-1.474 z m 3.276,-2.997 c 0.434,-0.222 0.756,-0.485 0.969,-0.788 0.212,-0.305 0.318,-0.652 0.318,-1.051 0,-0.475 -0.235,-0.859 -0.709,-1.151 -0.472,-0.292 -1.107,-0.438 -1.908,-0.438 -0.713,0 -1.273,0.122 -1.677,0.367 -0.404,0.245 -0.605,0.589 -0.605,1.027 0,0.649 1.095,1.295 3.288,1.938 l 0.324,0.096 z"
   id="path3471" />
	</g>
	<g
   id="g3473">
		<g
   id="g3475">
			<path
   d="m 316.062,270.709 5.296,-0.895 h 0.96 l -0.721,2.607 c 1.121,-1.023 2.038,-1.715 2.752,-2.072 0.715,-0.355 1.424,-0.535 2.129,-0.535 1.002,0 1.775,0.387 2.319,1.16 0.543,0.773 0.816,1.719 0.816,2.84 0,3.061 -1.062,5.775 -3.185,8.145 -1.877,2.09 -3.924,3.135 -6.143,3.135 -0.396,0 -0.732,-0.039 -1.009,-0.113 -0.277,-0.074 -0.667,-0.24 -1.167,-0.496 l -0.833,2.879 c -0.298,1.047 -0.447,1.84 -0.447,2.387 0,0.34 0.117,0.607 0.352,0.807 0.234,0.195 0.783,0.365 1.648,0.502 l -0.145,0.592 h -8.607 l 0.16,-0.592 c 0.683,-0.02 1.25,-0.238 1.704,-0.654 0.454,-0.416 0.877,-1.311 1.271,-2.688 l 3.904,-13.455 c 0.287,-1.002 0.431,-1.711 0.431,-2.127 0,-0.182 -0.043,-0.334 -0.127,-0.457 -0.086,-0.123 -0.213,-0.209 -0.384,-0.264 -0.171,-0.053 -0.556,-0.08 -1.152,-0.08 l 0.178,-0.626 z m 2.496,12.287 c 0.319,0.523 0.608,0.873 0.864,1.049 0.256,0.176 0.554,0.264 0.896,0.264 0.341,0 0.675,-0.094 1,-0.279 0.325,-0.188 0.728,-0.563 1.208,-1.129 0.48,-0.564 0.94,-1.289 1.384,-2.174 0.442,-0.887 0.798,-1.893 1.064,-3.018 0.266,-1.125 0.399,-2.199 0.399,-3.225 0,-0.82 -0.146,-1.418 -0.44,-1.791 -0.293,-0.373 -0.647,-0.559 -1.063,-0.559 -0.373,0 -0.726,0.096 -1.056,0.287 -0.48,0.277 -1.046,0.795 -1.697,1.551 l -2.559,9.024 z"
   id="path3477" />
			<path
   d="m 331.141,270.709 5.295,-0.895 h 0.961 l -0.721,2.607 c 1.12,-1.023 2.037,-1.715 2.752,-2.072 0.714,-0.355 1.425,-0.535 2.128,-0.535 1.002,0 1.775,0.387 2.32,1.16 0.544,0.773 0.815,1.719 0.815,2.84 0,3.061 -1.062,5.775 -3.184,8.145 -1.877,2.09 -3.926,3.135 -6.144,3.135 -0.395,0 -0.731,-0.039 -1.008,-0.113 -0.277,-0.074 -0.666,-0.24 -1.169,-0.496 l -0.831,2.879 c -0.298,1.047 -0.447,1.84 -0.447,2.387 0,0.34 0.117,0.607 0.352,0.807 0.234,0.195 0.783,0.365 1.648,0.502 l -0.145,0.592 h -8.607 l 0.16,-0.592 c 0.683,-0.02 1.251,-0.238 1.703,-0.654 0.454,-0.416 0.879,-1.311 1.271,-2.688 l 3.905,-13.455 c 0.287,-1.002 0.432,-1.711 0.432,-2.127 0,-0.182 -0.043,-0.334 -0.128,-0.457 -0.086,-0.123 -0.213,-0.209 -0.385,-0.264 -0.17,-0.053 -0.554,-0.08 -1.151,-0.08 l 0.178,-0.626 z m 2.496,12.287 c 0.319,0.523 0.608,0.873 0.863,1.049 0.257,0.176 0.555,0.264 0.896,0.264 0.341,0 0.674,-0.094 1,-0.279 0.325,-0.188 0.729,-0.563 1.208,-1.129 0.479,-0.564 0.941,-1.289 1.384,-2.174 0.442,-0.887 0.797,-1.893 1.063,-3.018 0.266,-1.125 0.4,-2.199 0.4,-3.225 0,-0.82 -0.146,-1.418 -0.44,-1.791 -0.293,-0.373 -0.647,-0.559 -1.063,-0.559 -0.373,0 -0.726,0.096 -1.057,0.287 -0.479,0.277 -1.045,0.795 -1.695,1.551 l -2.559,9.024 z"
   id="path3479" />
			<path
   d="m 346.872,270.709 5.296,-0.895 h 0.959 l -0.72,2.607 c 1.119,-1.023 2.037,-1.715 2.752,-2.072 0.714,-0.355 1.424,-0.535 2.127,-0.535 1.003,0 1.776,0.387 2.32,1.16 0.545,0.773 0.816,1.719 0.816,2.84 0,3.061 -1.062,5.775 -3.185,8.145 -1.877,2.09 -3.925,3.135 -6.143,3.135 -0.396,0 -0.731,-0.039 -1.009,-0.113 -0.276,-0.074 -0.666,-0.24 -1.168,-0.496 l -0.832,2.879 c -0.298,1.047 -0.447,1.84 -0.447,2.387 0,0.34 0.117,0.607 0.352,0.807 0.235,0.195 0.785,0.365 1.648,0.502 l -0.145,0.592 h -8.606 l 0.16,-0.592 c 0.682,-0.02 1.251,-0.238 1.704,-0.654 0.452,-0.416 0.877,-1.311 1.271,-2.688 l 3.904,-13.455 c 0.288,-1.002 0.432,-1.711 0.432,-2.127 0,-0.182 -0.042,-0.334 -0.129,-0.457 -0.084,-0.123 -0.213,-0.209 -0.383,-0.264 -0.171,-0.053 -0.555,-0.08 -1.151,-0.08 l 0.177,-0.626 z m 2.496,12.287 c 0.319,0.523 0.606,0.873 0.863,1.049 0.256,0.176 0.555,0.264 0.896,0.264 0.342,0 0.675,-0.094 1,-0.279 0.325,-0.188 0.729,-0.563 1.209,-1.129 0.479,-0.564 0.941,-1.289 1.383,-2.174 0.443,-0.887 0.798,-1.893 1.063,-3.018 0.265,-1.125 0.4,-2.199 0.4,-3.225 0,-0.82 -0.146,-1.418 -0.44,-1.791 -0.293,-0.373 -0.647,-0.559 -1.063,-0.559 -0.373,0 -0.726,0.096 -1.056,0.287 -0.48,0.277 -1.045,0.795 -1.695,1.551 l -2.56,9.024 z"
   id="path3481" />
		</g>
		<g
   id="g3483">
			<path
   d="m 267.049,269.814 -2.048,6.879 c 1.376,-2.111 2.379,-3.535 3.008,-4.271 0.929,-1.076 1.693,-1.781 2.297,-2.111 0.603,-0.33 1.208,-0.496 1.815,-0.496 0.693,0 1.194,0.207 1.504,0.623 0.309,0.418 0.464,0.875 0.464,1.377 0,0.523 -0.144,1.291 -0.432,2.303 l -0.72,2.576 c 1.385,-2.133 2.384,-3.551 2.992,-4.256 0.938,-1.088 1.753,-1.824 2.447,-2.207 0.479,-0.277 0.991,-0.416 1.536,-0.416 0.564,0 1.036,0.189 1.415,0.568 0.379,0.379 0.567,0.871 0.567,1.479 0,0.684 -0.159,1.57 -0.48,2.656 l -1.774,5.967 c -0.267,0.887 -0.399,1.455 -0.399,1.713 0,0.084 0.033,0.166 0.104,0.24 0.068,0.072 0.146,0.113 0.231,0.113 0.118,0 0.219,-0.041 0.305,-0.113 0.383,-0.309 0.788,-0.764 1.215,-1.359 0.096,-0.129 0.24,-0.326 0.433,-0.594 l 0.544,0.352 c -0.736,1.377 -1.544,2.385 -2.424,3.025 -0.88,0.639 -1.693,0.959 -2.44,0.959 -0.65,0 -1.173,-0.18 -1.567,-0.535 -0.394,-0.357 -0.592,-0.775 -0.592,-1.256 0,-0.459 0.133,-1.152 0.4,-2.08 l 1.808,-6.24 c 0.244,-0.863 0.367,-1.402 0.367,-1.617 0,-0.072 -0.036,-0.145 -0.112,-0.215 -0.074,-0.068 -0.148,-0.104 -0.224,-0.104 -0.139,0 -0.277,0.033 -0.415,0.096 -0.204,0.107 -0.515,0.385 -0.937,0.832 -0.421,0.447 -1.026,1.252 -1.816,2.408 -0.789,1.158 -1.335,2.061 -1.64,2.713 -0.304,0.65 -0.605,1.492 -0.903,2.527 l -0.977,3.297 h -4.047 l 2.991,-10.449 c 0.16,-0.564 0.24,-0.953 0.24,-1.168 0,-0.074 -0.035,-0.143 -0.104,-0.209 -0.069,-0.063 -0.141,-0.094 -0.216,-0.094 -0.394,0 -1.018,0.518 -1.871,1.551 -1.302,1.6 -2.485,3.525 -3.552,5.775 l -1.297,4.594 h -4.078 l 3.007,-10.289 c 0.298,-1.012 0.448,-1.73 0.448,-2.158 0,-0.172 -0.043,-0.318 -0.128,-0.439 -0.085,-0.125 -0.225,-0.219 -0.416,-0.289 -0.191,-0.068 -0.561,-0.105 -1.104,-0.105 l 0.159,-0.607 5.456,-0.943 h 0.96 z"
   id="path3485" />
			<path
   d="m 284.513,270.709 5.296,-0.895 h 0.959 l -0.72,2.607 c 1.12,-1.023 2.037,-1.715 2.752,-2.072 0.715,-0.355 1.424,-0.535 2.127,-0.535 1.002,0 1.776,0.387 2.32,1.16 0.545,0.773 0.816,1.719 0.816,2.84 0,3.061 -1.063,5.775 -3.184,8.145 -1.877,2.09 -3.927,3.135 -6.144,3.135 -0.396,0 -0.731,-0.039 -1.008,-0.113 -0.278,-0.074 -0.667,-0.24 -1.169,-0.496 l -0.832,2.879 c -0.299,1.047 -0.447,1.84 -0.447,2.387 0,0.34 0.117,0.607 0.352,0.807 0.235,0.195 0.785,0.365 1.648,0.502 l -0.145,0.592 h -8.606 l 0.16,-0.592 c 0.682,-0.02 1.251,-0.238 1.703,-0.654 0.453,-0.416 0.878,-1.311 1.271,-2.688 l 3.904,-13.455 c 0.288,-1.002 0.433,-1.711 0.433,-2.127 0,-0.182 -0.043,-0.334 -0.129,-0.457 -0.085,-0.123 -0.214,-0.209 -0.384,-0.264 -0.171,-0.053 -0.555,-0.08 -1.152,-0.08 l 0.179,-0.626 z m 2.496,12.287 c 0.319,0.523 0.607,0.873 0.863,1.049 0.256,0.176 0.555,0.264 0.896,0.264 0.342,0 0.675,-0.094 1,-0.279 0.325,-0.188 0.729,-0.563 1.209,-1.129 0.479,-0.564 0.94,-1.289 1.384,-2.174 0.441,-0.887 0.796,-1.893 1.063,-3.018 0.266,-1.125 0.4,-2.199 0.4,-3.225 0,-0.82 -0.147,-1.418 -0.441,-1.791 -0.293,-0.373 -0.647,-0.559 -1.063,-0.559 -0.373,0 -0.727,0.096 -1.057,0.287 -0.479,0.277 -1.046,0.795 -1.695,1.551 l -2.559,9.024 z"
   id="path3487" />
		</g>
		<g
   id="g3489">
			<path
   d="m 132.006,270.369 -2.047,6.879 c 1.375,-2.111 2.378,-3.537 3.008,-4.271 0.928,-1.076 1.693,-1.781 2.295,-2.111 0.604,-0.33 1.208,-0.496 1.816,-0.496 0.693,0 1.194,0.207 1.504,0.623 0.309,0.416 0.464,0.875 0.464,1.377 0,0.523 -0.144,1.291 -0.432,2.305 l -0.719,2.574 c 1.386,-2.133 2.383,-3.551 2.991,-4.256 0.938,-1.088 1.754,-1.824 2.448,-2.209 0.48,-0.275 0.992,-0.414 1.536,-0.414 0.565,0 1.037,0.189 1.416,0.568 0.379,0.377 0.568,0.871 0.568,1.479 0,0.684 -0.16,1.568 -0.48,2.656 l -1.775,5.967 c -0.267,0.887 -0.4,1.455 -0.4,1.713 0,0.084 0.034,0.164 0.104,0.24 0.069,0.074 0.147,0.111 0.232,0.111 0.117,0 0.218,-0.037 0.304,-0.111 0.384,-0.309 0.789,-0.764 1.216,-1.359 0.095,-0.129 0.239,-0.326 0.431,-0.594 l 0.544,0.352 c -0.736,1.377 -1.543,2.385 -2.423,3.023 -0.88,0.641 -1.694,0.963 -2.44,0.963 -0.651,0 -1.173,-0.18 -1.568,-0.537 -0.395,-0.357 -0.591,-0.777 -0.591,-1.256 0,-0.459 0.132,-1.152 0.399,-2.08 l 1.809,-6.24 c 0.245,-0.863 0.368,-1.402 0.368,-1.615 0,-0.074 -0.038,-0.146 -0.112,-0.217 -0.075,-0.068 -0.15,-0.104 -0.224,-0.104 -0.139,0 -0.278,0.033 -0.417,0.096 -0.203,0.107 -0.515,0.385 -0.936,0.832 -0.421,0.447 -1.026,1.252 -1.815,2.408 -0.79,1.158 -1.336,2.061 -1.64,2.711 -0.304,0.652 -0.605,1.494 -0.904,2.529 l -0.976,3.295 h -4.047 l 2.991,-10.447 c 0.16,-0.564 0.24,-0.953 0.24,-1.168 0,-0.074 -0.034,-0.145 -0.104,-0.209 -0.069,-0.063 -0.142,-0.094 -0.216,-0.094 -0.395,0 -1.019,0.518 -1.872,1.551 -1.302,1.6 -2.485,3.525 -3.552,5.775 l -1.295,4.592 h -4.08 l 3.007,-10.287 c 0.298,-1.014 0.448,-1.732 0.448,-2.16 0,-0.17 -0.042,-0.316 -0.127,-0.439 -0.085,-0.123 -0.224,-0.219 -0.417,-0.287 -0.191,-0.07 -0.559,-0.105 -1.103,-0.105 l 0.16,-0.607 5.456,-0.943 h 0.957 z"
   id="path3491" />
			<path
   d="m 156.061,272.689 -1.872,7.391 c -0.875,3.486 -1.728,6.016 -2.56,7.582 -0.832,1.57 -1.806,2.729 -2.92,3.48 -1.115,0.752 -2.391,1.129 -3.832,1.129 -0.906,0 -1.573,-0.174 -1.999,-0.52 -0.426,-0.348 -0.641,-0.754 -0.641,-1.225 0,-0.438 0.176,-0.816 0.529,-1.137 0.352,-0.32 0.815,-0.479 1.392,-0.479 0.48,0 0.848,0.121 1.104,0.365 0.256,0.246 0.384,0.557 0.384,0.93 0,0.342 -0.08,0.594 -0.239,0.76 -0.16,0.164 -0.24,0.273 -0.24,0.328 l 0.081,0.111 c 0.063,0.055 0.138,0.08 0.223,0.08 0.321,0 0.593,-0.1 0.816,-0.303 0.565,-0.504 0.986,-1.111 1.264,-1.824 0.191,-0.49 0.56,-1.787 1.104,-3.889 l 3.264,-12.781 h -2.224 l 0.528,-1.873 c 0.8,0.01 1.381,-0.09 1.744,-0.303 0.363,-0.213 0.747,-0.693 1.152,-1.441 1.173,-2.164 2.411,-3.717 3.711,-4.654 1.301,-0.939 2.752,-1.408 4.351,-1.408 1.024,0 1.769,0.197 2.232,0.592 0.463,0.395 0.696,0.906 0.696,1.537 0,0.553 -0.154,0.994 -0.464,1.318 -0.31,0.326 -0.694,0.488 -1.152,0.488 -0.427,0 -0.778,-0.133 -1.056,-0.4 -0.278,-0.266 -0.417,-0.586 -0.417,-0.959 0,-0.268 0.088,-0.549 0.264,-0.85 0.176,-0.297 0.264,-0.5 0.264,-0.607 0,-0.117 -0.04,-0.213 -0.12,-0.287 -0.08,-0.074 -0.183,-0.111 -0.312,-0.111 -0.629,0 -1.274,0.389 -1.936,1.168 -1.088,1.246 -1.963,3.221 -2.624,5.918 h 2.32 l -0.56,1.873 h -2.255 z"
   id="path3493" />
		</g>
		<g
   id="g3495">
			<path
   d="m 181.717,272.689 -1.871,7.391 c -0.875,3.486 -1.729,6.016 -2.561,7.582 -0.832,1.57 -1.805,2.729 -2.92,3.48 -1.114,0.752 -2.392,1.129 -3.831,1.129 -0.907,0 -1.573,-0.174 -2,-0.52 -0.426,-0.348 -0.64,-0.754 -0.64,-1.225 0,-0.438 0.176,-0.816 0.528,-1.137 0.352,-0.32 0.815,-0.479 1.392,-0.479 0.479,0 0.848,0.121 1.104,0.365 0.255,0.246 0.383,0.557 0.383,0.93 0,0.342 -0.08,0.594 -0.24,0.76 -0.16,0.164 -0.24,0.273 -0.24,0.328 l 0.08,0.111 c 0.064,0.055 0.139,0.08 0.225,0.08 0.319,0 0.591,-0.1 0.815,-0.303 0.565,-0.504 0.987,-1.111 1.264,-1.824 0.192,-0.49 0.56,-1.787 1.104,-3.889 l 3.264,-12.781 h -2.224 l 0.527,-1.873 c 0.8,0.01 1.381,-0.09 1.744,-0.303 0.362,-0.213 0.746,-0.693 1.152,-1.441 1.173,-2.164 2.41,-3.717 3.711,-4.654 1.301,-0.939 2.752,-1.408 4.352,-1.408 1.024,0 1.768,0.197 2.231,0.592 0.464,0.395 0.696,0.906 0.696,1.537 0,0.553 -0.154,0.994 -0.463,1.318 -0.31,0.326 -0.693,0.488 -1.151,0.488 -0.427,0 -0.779,-0.133 -1.056,-0.4 -0.278,-0.266 -0.416,-0.586 -0.416,-0.959 0,-0.268 0.088,-0.549 0.264,-0.85 0.176,-0.297 0.264,-0.5 0.264,-0.607 0,-0.117 -0.04,-0.213 -0.12,-0.287 -0.08,-0.074 -0.184,-0.111 -0.313,-0.111 -0.629,0 -1.274,0.389 -1.936,1.168 -1.088,1.246 -1.962,3.221 -2.624,5.918 h 2.32 l -0.56,1.873 h -2.254 z"
   id="path3497" />
			<path
   d="m 196.408,270.816 -9.087,10.736 c 0.683,0.201 1.189,0.506 1.52,0.91 0.427,0.535 0.737,1.33 0.928,2.393 0.193,1.061 0.411,1.732 0.657,2.018 0.245,0.281 0.496,0.422 0.752,0.422 0.17,0 0.331,-0.078 0.48,-0.23 0.149,-0.156 0.224,-0.328 0.224,-0.52 0,-0.205 -0.064,-0.535 -0.192,-0.994 -0.085,-0.309 -0.127,-0.607 -0.127,-0.895 0,-0.598 0.189,-1.1 0.568,-1.504 0.378,-0.406 0.834,-0.607 1.367,-0.607 0.48,0 0.882,0.178 1.208,0.535 0.325,0.355 0.488,0.824 0.488,1.4 0,0.885 -0.405,1.688 -1.216,2.414 -0.811,0.725 -1.807,1.088 -2.992,1.088 -1.365,0 -2.703,-0.629 -4.015,-1.887 -0.534,-0.502 -0.966,-0.844 -1.296,-1.025 -0.191,-0.096 -0.438,-0.143 -0.736,-0.143 -0.256,0 -0.539,0.092 -0.848,0.271 h -1.024 l 9.279,-11.008 h -3.328 c -0.95,0 -1.634,0.119 -2.056,0.354 -0.421,0.234 -0.819,0.693 -1.191,1.375 h -0.688 l 1.328,-5.104 h 9.997 z"
   id="path3499" />
		</g>
		<g
   id="g3501">
			<path
   d="m 86.415,272.689 -1.872,7.391 c -0.875,3.486 -1.728,6.016 -2.56,7.582 -0.832,1.57 -1.805,2.729 -2.92,3.48 -1.115,0.751 -2.392,1.129 -3.831,1.129 -0.907,0 -1.574,-0.174 -2,-0.52 -0.427,-0.348 -0.64,-0.754 -0.64,-1.225 0,-0.438 0.176,-0.816 0.528,-1.137 0.352,-0.32 0.815,-0.479 1.392,-0.479 0.48,0 0.848,0.121 1.104,0.365 0.256,0.246 0.384,0.557 0.384,0.93 0,0.342 -0.08,0.594 -0.24,0.76 -0.16,0.164 -0.24,0.273 -0.24,0.328 l 0.081,0.111 c 0.063,0.055 0.138,0.08 0.224,0.08 0.321,0 0.592,-0.1 0.816,-0.303 0.565,-0.504 0.987,-1.111 1.264,-1.824 0.191,-0.49 0.561,-1.787 1.104,-3.889 l 3.264,-12.781 h -2.224 l 0.528,-1.873 c 0.8,0.01 1.381,-0.09 1.744,-0.303 0.362,-0.213 0.747,-0.693 1.152,-1.441 1.173,-2.164 2.411,-3.717 3.711,-4.654 1.302,-0.939 2.752,-1.408 4.352,-1.408 1.023,0 1.768,0.197 2.231,0.592 0.464,0.395 0.696,0.906 0.696,1.537 0,0.553 -0.155,0.994 -0.464,1.318 -0.31,0.326 -0.694,0.488 -1.152,0.488 -0.427,0 -0.779,-0.133 -1.056,-0.4 -0.277,-0.266 -0.416,-0.586 -0.416,-0.959 0,-0.268 0.088,-0.549 0.264,-0.85 0.176,-0.297 0.264,-0.5 0.264,-0.607 0,-0.117 -0.04,-0.213 -0.12,-0.287 -0.08,-0.074 -0.184,-0.111 -0.312,-0.111 -0.63,0 -1.275,0.389 -1.936,1.168 -1.088,1.246 -1.963,3.221 -2.624,5.918 h 2.319 l -0.561,1.873 h -2.254 z"
   id="path3503" />
			<path
   d="m 96.083,272.689 -1.873,7.391 c -0.875,3.486 -1.728,6.016 -2.56,7.582 -0.832,1.57 -1.805,2.729 -2.919,3.48 -1.114,0.751 -2.392,1.129 -3.832,1.129 -0.906,0 -1.573,-0.174 -2,-0.52 -0.427,-0.348 -0.64,-0.754 -0.64,-1.225 0,-0.438 0.176,-0.816 0.528,-1.137 0.352,-0.321 0.815,-0.479 1.392,-0.479 0.479,0 0.847,0.121 1.104,0.365 0.255,0.246 0.384,0.557 0.384,0.93 0,0.342 -0.08,0.594 -0.241,0.76 -0.159,0.164 -0.24,0.273 -0.24,0.328 l 0.081,0.111 c 0.064,0.055 0.139,0.08 0.224,0.08 0.32,0 0.591,-0.1 0.816,-0.303 0.565,-0.504 0.986,-1.111 1.264,-1.824 0.191,-0.49 0.56,-1.787 1.104,-3.889 l 3.263,-12.781 h -2.223 l 0.527,-1.873 c 0.801,0.01 1.382,-0.09 1.744,-0.303 0.363,-0.213 0.747,-0.693 1.151,-1.441 1.173,-2.164 2.411,-3.717 3.712,-4.654 1.302,-0.939 2.752,-1.408 4.352,-1.408 1.023,0 1.768,0.197 2.231,0.592 0.464,0.395 0.697,0.906 0.697,1.537 0,0.553 -0.155,0.994 -0.465,1.318 -0.31,0.326 -0.693,0.488 -1.152,0.488 -0.427,0 -0.779,-0.133 -1.055,-0.4 -0.278,-0.266 -0.417,-0.586 -0.417,-0.959 0,-0.268 0.088,-0.549 0.264,-0.85 0.176,-0.297 0.264,-0.5 0.264,-0.607 0,-0.117 -0.04,-0.213 -0.12,-0.287 -0.08,-0.074 -0.185,-0.111 -0.313,-0.111 -0.629,0 -1.274,0.389 -1.936,1.168 -1.088,1.246 -1.962,3.221 -2.624,5.918 h 2.32 l -0.56,1.873 h -2.252 z"
   id="path3505" />
			<path
   d="m 106.4,272.689 -1.872,7.391 c -0.875,3.486 -1.728,6.016 -2.56,7.582 -0.833,1.57 -1.806,2.729 -2.92,3.48 -1.114,0.751 -2.391,1.129 -3.832,1.129 -0.907,0 -1.573,-0.174 -2,-0.52 -0.426,-0.348 -0.64,-0.754 -0.64,-1.225 0,-0.438 0.176,-0.816 0.528,-1.137 0.353,-0.32 0.815,-0.479 1.392,-0.479 0.48,0 0.848,0.121 1.104,0.365 0.256,0.246 0.383,0.557 0.383,0.93 0,0.342 -0.079,0.594 -0.24,0.76 -0.159,0.164 -0.24,0.273 -0.24,0.328 l 0.081,0.111 c 0.063,0.055 0.139,0.08 0.224,0.08 0.319,0 0.592,-0.1 0.816,-0.303 0.565,-0.504 0.986,-1.111 1.264,-1.824 0.191,-0.49 0.56,-1.787 1.104,-3.889 l 3.263,-12.781 h -2.223 l 0.527,-1.873 c 0.8,0.01 1.382,-0.09 1.744,-0.303 0.363,-0.213 0.747,-0.693 1.152,-1.441 1.173,-2.164 2.41,-3.717 3.712,-4.654 1.301,-0.939 2.752,-1.408 4.351,-1.408 1.024,0 1.768,0.197 2.232,0.592 0.464,0.395 0.696,0.906 0.696,1.537 0,0.553 -0.154,0.994 -0.463,1.318 -0.311,0.326 -0.694,0.488 -1.152,0.488 -0.426,0 -0.778,-0.133 -1.055,-0.4 -0.278,-0.266 -0.417,-0.586 -0.417,-0.959 0,-0.268 0.088,-0.549 0.264,-0.85 0.176,-0.297 0.264,-0.5 0.264,-0.607 0,-0.117 -0.04,-0.213 -0.12,-0.287 -0.08,-0.074 -0.185,-0.111 -0.312,-0.111 -0.629,0 -1.275,0.389 -1.937,1.168 -1.087,1.246 -1.962,3.221 -2.624,5.918 h 2.321 l -0.561,1.873 H 106.4 z"
   id="path3507" />
		</g>
		<g
   id="g3509">
			<path
   d="m 222.565,270.369 -0.705,4.943 h -0.592 c -0.085,-1.281 -0.478,-2.289 -1.176,-3.023 -0.699,-0.736 -1.447,-1.104 -2.248,-1.104 -0.49,0 -0.896,0.143 -1.215,0.432 -0.32,0.287 -0.48,0.633 -0.48,1.039 0,0.344 0.069,0.662 0.208,0.961 0.138,0.299 0.448,0.703 0.927,1.215 1.686,1.814 2.709,3.063 3.072,3.744 0.363,0.684 0.543,1.414 0.543,2.191 0,0.844 -0.213,1.641 -0.639,2.391 -0.428,0.754 -1.064,1.355 -1.912,1.811 -0.847,0.451 -1.731,0.68 -2.648,0.68 -0.619,0 -1.381,-0.123 -2.287,-0.369 -0.598,-0.17 -1.045,-0.256 -1.343,-0.256 -0.267,0 -0.476,0.039 -0.625,0.119 -0.149,0.08 -0.315,0.248 -0.497,0.506 h -0.592 l 0.785,-5.33 h 0.512 c 0.373,1.293 0.723,2.211 1.047,2.762 0.326,0.549 0.762,0.986 1.305,1.311 0.545,0.326 1.066,0.49 1.568,0.49 0.585,0 1.071,-0.186 1.456,-0.553 0.382,-0.367 0.575,-0.809 0.575,-1.32 0,-0.502 -0.125,-0.986 -0.375,-1.455 -0.252,-0.471 -0.83,-1.201 -1.737,-2.193 -1.247,-1.354 -2.069,-2.4 -2.463,-3.135 -0.278,-0.533 -0.417,-1.143 -0.417,-1.824 0,-1.152 0.42,-2.111 1.258,-2.879 0.837,-0.77 2.012,-1.152 3.526,-1.152 0.661,0 1.472,0.117 2.433,0.352 0.479,0.117 0.863,0.176 1.15,0.176 0.417,0 0.754,-0.176 1.009,-0.527 h 0.577 z"
   id="path3511" />
			<path
   d="m 230.396,272.689 -1.872,7.391 c -0.875,3.486 -1.729,6.016 -2.559,7.582 -0.834,1.57 -1.808,2.729 -2.92,3.48 -1.116,0.752 -2.393,1.129 -3.833,1.129 -0.905,0 -1.571,-0.174 -1.999,-0.52 -0.428,-0.348 -0.641,-0.754 -0.641,-1.225 0,-0.438 0.176,-0.816 0.527,-1.137 0.354,-0.32 0.816,-0.479 1.394,-0.479 0.48,0 0.847,0.121 1.104,0.365 0.254,0.246 0.383,0.557 0.383,0.93 0,0.342 -0.08,0.594 -0.24,0.76 -0.16,0.164 -0.24,0.273 -0.24,0.328 l 0.08,0.111 c 0.064,0.055 0.139,0.08 0.226,0.08 0.318,0 0.591,-0.1 0.815,-0.303 0.564,-0.504 0.986,-1.111 1.264,-1.824 0.191,-0.49 0.559,-1.787 1.104,-3.889 l 3.264,-12.781 h -2.225 l 0.529,-1.873 c 0.799,0.01 1.381,-0.09 1.744,-0.303 0.361,-0.213 0.745,-0.693 1.15,-1.441 1.174,-2.164 2.41,-3.717 3.713,-4.654 1.3,-0.939 2.751,-1.408 4.352,-1.408 1.022,0 1.768,0.197 2.23,0.592 0.465,0.395 0.696,0.906 0.696,1.537 0,0.553 -0.154,0.994 -0.464,1.318 -0.31,0.326 -0.694,0.488 -1.152,0.488 -0.427,0 -0.779,-0.133 -1.055,-0.4 -0.278,-0.266 -0.416,-0.586 -0.416,-0.959 0,-0.268 0.086,-0.549 0.264,-0.85 0.176,-0.297 0.264,-0.5 0.264,-0.607 0,-0.117 -0.039,-0.213 -0.121,-0.287 -0.078,-0.074 -0.183,-0.111 -0.311,-0.111 -0.63,0 -1.275,0.389 -1.936,1.168 -1.088,1.246 -1.964,3.221 -2.625,5.918 h 2.32 l -0.56,1.873 h -2.254 z"
   id="path3513" />
			<path
   d="M 245.087,270.816 236,281.553 c 0.683,0.201 1.188,0.506 1.521,0.91 0.426,0.535 0.734,1.33 0.928,2.393 0.189,1.061 0.41,1.732 0.654,2.018 0.246,0.281 0.498,0.422 0.752,0.422 0.173,0 0.332,-0.078 0.48,-0.23 0.15,-0.156 0.224,-0.328 0.224,-0.52 0,-0.205 -0.063,-0.535 -0.191,-0.994 -0.087,-0.309 -0.128,-0.607 -0.128,-0.895 0,-0.598 0.189,-1.1 0.567,-1.504 0.379,-0.406 0.835,-0.607 1.37,-0.607 0.479,0 0.881,0.178 1.206,0.535 0.326,0.355 0.489,0.824 0.489,1.4 0,0.885 -0.406,1.688 -1.217,2.414 -0.812,0.725 -1.809,1.088 -2.99,1.088 -1.367,0 -2.706,-0.629 -4.018,-1.887 -0.533,-0.502 -0.966,-0.844 -1.295,-1.025 -0.193,-0.096 -0.438,-0.143 -0.736,-0.143 -0.258,0 -0.539,0.092 -0.848,0.271 h -1.025 l 9.281,-11.008 h -3.33 c -0.948,0 -1.633,0.119 -2.054,0.354 -0.423,0.234 -0.819,0.693 -1.194,1.375 h -0.688 l 1.329,-5.104 h 10 z"
   id="path3515" />
		</g>
		<g
   id="g3517">
			<path
   d="m 49.245,272.689 -1.871,7.391 c -0.876,3.486 -1.729,6.016 -2.561,7.582 -0.832,1.57 -1.805,2.729 -2.919,3.48 -1.115,0.752 -2.392,1.129 -3.831,1.129 -0.908,0 -1.574,-0.174 -2.001,-0.52 -0.426,-0.348 -0.639,-0.754 -0.639,-1.225 0,-0.438 0.175,-0.816 0.528,-1.137 0.353,-0.321 0.815,-0.479 1.392,-0.479 0.479,0 0.847,0.121 1.103,0.365 0.256,0.246 0.384,0.557 0.384,0.93 0,0.342 -0.08,0.594 -0.24,0.76 -0.159,0.164 -0.239,0.273 -0.239,0.328 l 0.08,0.111 c 0.063,0.055 0.138,0.08 0.224,0.08 0.319,0 0.591,-0.1 0.815,-0.303 0.565,-0.504 0.987,-1.111 1.265,-1.824 0.191,-0.49 0.56,-1.787 1.103,-3.889 l 3.265,-12.781 h -2.224 l 0.528,-1.873 c 0.799,0.01 1.381,-0.09 1.743,-0.303 0.362,-0.213 0.746,-0.693 1.153,-1.441 1.173,-2.164 2.41,-3.717 3.71,-4.654 1.301,-0.939 2.752,-1.408 4.353,-1.408 1.024,0 1.767,0.197 2.231,0.592 0.465,0.395 0.696,0.906 0.696,1.537 0,0.553 -0.155,0.994 -0.464,1.318 -0.31,0.326 -0.694,0.488 -1.152,0.488 -0.427,0 -0.778,-0.133 -1.056,-0.4 -0.278,-0.266 -0.416,-0.586 -0.416,-0.959 0,-0.268 0.088,-0.549 0.264,-0.85 0.175,-0.297 0.265,-0.5 0.265,-0.607 0,-0.117 -0.04,-0.213 -0.121,-0.287 -0.081,-0.074 -0.184,-0.111 -0.312,-0.111 -0.629,0 -1.275,0.389 -1.936,1.168 -1.088,1.246 -1.962,3.221 -2.624,5.918 h 2.32 l -0.56,1.873 h -2.256 z"
   id="path3519" />
			<path
   d="m 58.913,272.689 -1.873,7.391 c -0.875,3.486 -1.727,6.016 -2.56,7.582 -0.833,1.57 -1.806,2.729 -2.92,3.48 -1.114,0.752 -2.391,1.129 -3.831,1.129 -0.907,0 -1.573,-0.174 -2,-0.52 -0.426,-0.348 -0.639,-0.754 -0.639,-1.225 0,-0.438 0.175,-0.816 0.527,-1.137 0.353,-0.32 0.816,-0.479 1.392,-0.479 0.481,0 0.847,0.121 1.104,0.365 0.255,0.246 0.384,0.557 0.384,0.93 0,0.342 -0.08,0.594 -0.241,0.76 -0.16,0.164 -0.24,0.273 -0.24,0.328 l 0.08,0.111 c 0.063,0.055 0.139,0.08 0.225,0.08 0.319,0 0.591,-0.1 0.815,-0.303 0.565,-0.504 0.987,-1.111 1.265,-1.824 0.191,-0.49 0.559,-1.787 1.103,-3.889 l 3.264,-12.781 h -2.224 l 0.528,-1.873 c 0.8,0.01 1.382,-0.09 1.744,-0.303 0.362,-0.213 0.746,-0.693 1.151,-1.441 1.174,-2.164 2.411,-3.717 3.712,-4.654 1.301,-0.939 2.752,-1.408 4.352,-1.408 1.023,0 1.768,0.197 2.233,0.592 0.463,0.395 0.696,0.906 0.696,1.537 0,0.553 -0.155,0.994 -0.464,1.318 -0.31,0.326 -0.693,0.488 -1.152,0.488 -0.427,0 -0.778,-0.133 -1.056,-0.4 -0.278,-0.266 -0.416,-0.586 -0.416,-0.959 0,-0.268 0.087,-0.549 0.264,-0.85 0.176,-0.297 0.264,-0.5 0.264,-0.607 0,-0.117 -0.04,-0.213 -0.121,-0.287 -0.08,-0.074 -0.184,-0.111 -0.312,-0.111 -0.629,0 -1.274,0.389 -1.935,1.168 -1.088,1.246 -1.962,3.221 -2.625,5.918 h 2.32 l -0.561,1.873 h -2.253 z"
   id="path3521" />
		</g>
	</g>
</g>
</svg>